<svg id="bigbooks" xmlns="http://www.w3.org/2000/svg" viewBox="0 0 287.46 171.45"><defs><style>.cls-1,.cls-2{fill:#131a3d;}.cls-1{stroke:#03060f;}.cls-1,.cls-2,.cls-3,.cls-4,.cls-5,.cls-6,.cls-7,.cls-8{stroke-miterlimit:10;stroke-width:0.3px;}.cls-2{stroke:#020611;}.cls-3{fill:#e2af54;}.cls-3,.cls-6{stroke:#efcb84;}.cls-4,.cls-5{fill:#af0c0c;}.cls-4{stroke:#911616;}.cls-5{stroke:#8e1919;}.cls-6{fill:#efcb84;}.cls-7,.cls-8{fill:none;}.cls-7{stroke:#e2bb76;}.cls-8{stroke:#c49b5b;}.cls-9{fill:#656568;opacity:0.8;isolation:isolate;}</style></defs><polygon class="cls-1" points="180.93 149.9 117.23 113.22 116.93 98.86 180.48 128.09 180.93 149.9"/><polygon class="cls-2" points="234.77 110.76 164.67 90.84 116.63 98.55 178.53 128.1 234.77 110.76"/><path class="cls-3" d="M348.58,162.17l-54.5,23.31q-.22-10.92-.46-21.82L348.22,146Z" transform="translate(-113.15 -35.57)"/><polygon class="cls-4" points="166.56 127.62 104.58 91.71 104.58 78.13 166.56 107 166.56 127.62"/><polygon class="cls-5" points="222.42 90.01 152.32 70.09 104.28 77.79 166.18 107.35 222.42 90.01"/><polygon class="cls-6" points="222.72 108.73 166.56 127.62 166.56 105.25 222.72 90.63 222.72 108.73"/><line class="cls-7" x1="167.67" y1="109.47" x2="222.42" y2="94.71"/><line class="cls-7" x1="167.26" y1="107.98" x2="222.02" y2="93.22"/><line class="cls-7" x1="167.26" y1="106.24" x2="222.02" y2="91.48"/><line class="cls-7" x1="166.56" y1="111.69" x2="221.32" y2="96.93"/><line class="cls-7" x1="167.67" y1="113.62" x2="222.42" y2="98.86"/><line class="cls-7" x1="167.96" y1="114.73" x2="222.72" y2="99.96"/><line class="cls-7" x1="167.96" y1="119.07" x2="222.72" y2="104.31"/><line class="cls-7" x1="167.96" y1="122.11" x2="222.72" y2="107.35"/><line class="cls-8" x1="182.37" y1="130.9" x2="233.94" y2="113.71"/><line class="cls-8" x1="182.14" y1="128.88" x2="233.72" y2="111.69"/><line class="cls-8" x1="183.06" y1="132.98" x2="234.63" y2="115.79"/><line class="cls-8" x1="183.06" y1="135.31" x2="234.63" y2="118.12"/><line class="cls-8" x1="183.06" y1="137.48" x2="234.63" y2="120.29"/><line class="cls-8" x1="183.49" y1="138.78" x2="235.07" y2="121.59"/><line class="cls-8" x1="183.52" y1="140.98" x2="235.03" y2="122.64"/><line class="cls-8" x1="183.85" y1="144.45" x2="234.6" y2="124.38"/><line class="cls-8" x1="183.85" y1="146.01" x2="234.6" y2="125.93"/><line class="cls-8" x1="182.78" y1="143.29" x2="233.53" y2="123.22"/><line class="cls-7" x1="167.67" y1="117.85" x2="222.42" y2="103.08"/><line class="cls-7" x1="167.67" y1="116.51" x2="222.42" y2="101.75"/><path class="cls-9" d="M348.74,162.06l-53.49,23.17,67.65-18Z" transform="translate(-113.15 -35.57)"/><polygon class="cls-1" points="109.19 171.18 45.49 134.5 45.2 120.14 108.74 149.37 109.19 171.18"/><polygon class="cls-2" points="163.37 131.79 93.22 112.03 45.2 119.85 107.17 149.26 163.37 131.79"/><path class="cls-3" d="M276.84,183.45l-54.5,23.3-.45-21.81,54.6-17.63Z" transform="translate(-113.15 -35.57)"/><line class="cls-8" x1="110.63" y1="152.18" x2="162.21" y2="134.99"/><line class="cls-8" x1="110.41" y1="150.16" x2="161.98" y2="132.97"/><line class="cls-8" x1="111.32" y1="154.26" x2="162.9" y2="137.07"/><line class="cls-8" x1="111.32" y1="156.59" x2="162.9" y2="139.4"/><line class="cls-8" x1="111.32" y1="158.76" x2="162.9" y2="141.57"/><line class="cls-8" x1="111.76" y1="160.06" x2="163.33" y2="142.87"/><line class="cls-8" x1="111.79" y1="162.26" x2="163.3" y2="143.92"/><line class="cls-8" x1="112.12" y1="165.73" x2="162.87" y2="145.66"/><line class="cls-8" x1="112.12" y1="167.29" x2="162.87" y2="147.21"/><line class="cls-8" x1="111.04" y1="164.57" x2="161.79" y2="144.5"/><polygon class="cls-4" points="100.78 148.9 38.8 112.99 38.8 99.41 100.78 128.28 100.78 148.9"/><polygon class="cls-5" points="156.64 111.29 86.53 91.37 38.5 99.07 100.4 128.63 156.64 111.29"/><polygon class="cls-6" points="156.94 130.01 100.78 148.9 100.78 126.53 156.94 111.91 156.94 130.01"/><line class="cls-7" x1="101.88" y1="130.75" x2="156.64" y2="115.98"/><line class="cls-7" x1="101.48" y1="129.26" x2="156.24" y2="114.5"/><line class="cls-7" x1="101.48" y1="127.52" x2="156.24" y2="112.75"/><line class="cls-7" x1="100.78" y1="132.97" x2="155.53" y2="118.21"/><line class="cls-7" x1="101.88" y1="134.9" x2="156.64" y2="120.14"/><line class="cls-7" x1="102.18" y1="136.01" x2="156.94" y2="121.24"/><line class="cls-7" x1="102.18" y1="140.35" x2="156.94" y2="125.59"/><line class="cls-7" x1="102.18" y1="143.39" x2="156.94" y2="128.63"/><line class="cls-7" x1="101.88" y1="139.13" x2="156.64" y2="124.36"/><line class="cls-7" x1="101.88" y1="137.79" x2="156.64" y2="123.03"/><polygon class="cls-4" points="219.97 131.64 182.55 70.56 189.01 58.61 229.78 113.5 219.97 131.64"/><polygon class="cls-5" points="287 125.14 234.82 74.26 188.91 58.17 229.28 113.62 287 125.14"/><polygon class="cls-6" points="278.35 141.75 219.97 131.64 230.62 111.96 286.96 125.83 278.35 141.75"/><line class="cls-7" x1="229.58" y1="116.2" x2="284.76" y2="129.27"/><line class="cls-7" x1="229.93" y1="114.7" x2="285.12" y2="127.77"/><line class="cls-7" x1="230.76" y1="113.17" x2="285.95" y2="126.24"/><line class="cls-7" x1="227.55" y1="117.63" x2="282.73" y2="130.7"/><line class="cls-7" x1="227.6" y1="119.85" x2="282.79" y2="132.92"/><line class="cls-7" x1="227.34" y1="120.96" x2="282.52" y2="134.04"/><line class="cls-7" x1="225.27" y1="124.79" x2="280.45" y2="137.86"/><line class="cls-7" x1="223.82" y1="127.46" x2="279.01" y2="140.53"/><line class="cls-7" x1="225.59" y1="123.57" x2="280.78" y2="136.64"/><line class="cls-7" x1="226.23" y1="122.39" x2="281.41" y2="135.46"/><path class="cls-9" d="M277.05,182.74l-53.5,23.18,67.66-18Z" transform="translate(-113.15 -35.57)"/><polygon class="cls-1" points="78.75 121.72 12.63 153.85 0.57 146.03 60.44 109.85 78.75 121.72"/><polygon class="cls-2" points="76.55 54.77 20.82 101.74 0.34 145.87 59.46 111.09 76.55 54.77"/><path class="cls-3" d="M203.2,99.11l-11.31,58.18-18.3-11.87,16.06-55.08Z" transform="translate(-113.15 -35.57)"/><line class="cls-8" x1="63.82" y1="109.86" x2="78.55" y2="57.53"/><line class="cls-8" x1="62.03" y1="108.92" x2="76.75" y2="56.58"/><line class="cls-8" x1="65.93" y1="110.46" x2="80.66" y2="58.12"/><line class="cls-8" x1="67.87" y1="111.77" x2="82.59" y2="59.44"/><line class="cls-8" x1="69.66" y1="112.98" x2="84.38" y2="60.65"/><line class="cls-8" x1="70.98" y1="113.35" x2="85.7" y2="61.02"/><line class="cls-8" x1="72.82" y1="114.57" x2="86.55" y2="61.64"/><line class="cls-8" x1="75.88" y1="116.24" x2="87.75" y2="62.98"/><line class="cls-8" x1="77.16" y1="117.11" x2="89.03" y2="63.85"/><line class="cls-8" x1="74.31" y1="116.48" x2="86.19" y2="63.21"/><polygon class="cls-1" points="139.37 11.18 191.2 63.3 187.72 77.24 134.08 32.34 139.37 11.18"/><polygon class="cls-2" points="76.75 34.96 139.25 72.45 187.64 77.51 135.57 32.86 76.75 34.96"/><path class="cls-3" d="M193.81,54.92l58.71-8.17q-2.66,10.57-5.29,21.16l-57.31,2.67Z" transform="translate(-113.15 -35.57)"/><line class="cls-8" x1="132.99" y1="29.13" x2="78.71" y2="32.18"/><line class="cls-8" x1="132.68" y1="31.14" x2="78.4" y2="34.18"/><line class="cls-8" x1="132.87" y1="26.95" x2="78.59" y2="29.99"/><line class="cls-8" x1="133.48" y1="24.69" x2="79.21" y2="27.73"/><line class="cls-8" x1="134.05" y1="22.6" x2="79.77" y2="25.65"/><line class="cls-8" x1="133.98" y1="21.24" x2="79.7" y2="24.28"/><line class="cls-8" x1="134.53" y1="19.1" x2="80.01" y2="23.27"/><line class="cls-8" x1="135.12" y1="15.67" x2="80.88" y2="21.7"/><line class="cls-8" x1="135.53" y1="14.17" x2="81.29" y2="20.21"/><line class="cls-8" x1="135.85" y1="17.07" x2="81.61" y2="23.11"/><polygon class="cls-1" points="189.11 73.09 145.69 13.79 151.22 0.53 197.52 52.96 189.11 73.09"/><polygon class="cls-2" points="254.59 58.97 198.42 12.53 151.34 0.27 196.13 52.22 254.59 58.97"/><path class="cls-3" d="M361.53,109.39l-59.27-.73q4.22-10.06,8.41-20.13l57.06,6Z" transform="translate(-113.15 -35.57)"/><line class="cls-8" x1="198.11" y1="56.29" x2="252.24" y2="61.42"/><line class="cls-8" x1="198.72" y1="54.36" x2="252.84" y2="59.49"/><line class="cls-8" x1="197.91" y1="58.47" x2="252.03" y2="63.6"/><line class="cls-8" x1="196.96" y1="60.61" x2="251.08" y2="65.74"/><line class="cls-8" x1="196.09" y1="62.59" x2="250.21" y2="67.72"/><line class="cls-8" x1="195.96" y1="63.95" x2="250.08" y2="69.09"/><line class="cls-8" x1="195.09" y1="65.98" x2="249.62" y2="70.03"/><line class="cls-8" x1="193.99" y1="69.29" x2="248.52" y2="71.45"/><line class="cls-8" x1="193.36" y1="70.71" x2="247.9" y2="72.87"/><line class="cls-8" x1="193.48" y1="67.79" x2="248.01" y2="69.95"/><polygon class="cls-4" points="98.22 99.61 46.31 50.25 49.47 37.04 103.02 79.56 98.22 99.61"/><polygon class="cls-5" points="161.3 76.05 97.77 40.34 49.26 36.64 102.57 79.81 161.3 76.05"/><polygon class="cls-6" points="157.23 94.33 98.22 99.61 103.43 77.85 161.45 76.73 157.23 94.33"/><line class="cls-7" x1="103.52" y1="82.22" x2="160.21" y2="80.62"/><line class="cls-7" x1="103.48" y1="80.68" x2="160.16" y2="79.08"/><line class="cls-7" x1="103.88" y1="78.98" x2="160.57" y2="77.38"/><line class="cls-7" x1="101.93" y1="84.12" x2="158.62" y2="82.52"/><line class="cls-7" x1="102.55" y1="86.25" x2="159.24" y2="84.65"/><line class="cls-7" x1="102.58" y1="87.4" x2="159.27" y2="85.8"/><line class="cls-7" x1="101.57" y1="91.63" x2="158.26" y2="90.03"/><line class="cls-7" x1="100.86" y1="94.58" x2="157.55" y2="92.98"/><line class="cls-7" x1="101.57" y1="90.36" x2="158.26" y2="88.76"/><line class="cls-7" x1="101.88" y1="89.06" x2="158.57" y2="87.46"/></svg>