<?xml version="1.0" encoding="utf-8"?>
<!-- Generator: Adobe Illustrator 23.1.0, SVG Export Plug-In . SVG Version: 6.00 Build 0)  -->
<svg version="1.1" id="Layer_1" xmlns="http://www.w3.org/2000/svg" xmlns:xlink="http://www.w3.org/1999/xlink" x="0px" y="0px"
	 viewBox="0 0 1529.9 1431.3" style="enable-background:new 0 0 1529.9 1431.3;" xml:space="preserve">
<style type="text/css">
	.st0{fill:#C2E7EF;}
	.st1{fill:#FFFFFF;}
	.st2{fill:#989833;}
	.st3{fill:#738234;}
	.st4{fill:#748234;}
	.st5{fill:none;stroke:#000000;stroke-miterlimit:10;}
	.st6{fill:#B5CB50;}
	.st7{fill:#431F0E;}
	.st8{fill:#CCCC66;}
	.st9{fill:#954E22;}
	.st10{fill:#E7B47D;}
	.st11{fill:#E6B37C;}
	.st12{fill:#A75E31;}
	.st13{fill:#B88858;}
	.st14{fill:#BE8F63;}
	.st15{fill:#DBA976;}
	.st16{fill:#D0A06F;}
	.st17{fill:url(#SVGID_1_);}
	.st18{fill:url(#SVGID_2_);}
	.st19{fill:url(#SVGID_3_);}
	.st20{fill:url(#SVGID_4_);}
	.st21{fill:url(#SVGID_5_);}
	.st22{fill:url(#SVGID_6_);}
	.st23{fill:url(#SVGID_7_);}
	.st24{fill:url(#SVGID_8_);}
	.st25{fill:#58321D;}
	.st26{fill:#F7F6F2;}
	.st27{fill:url(#SVGID_9_);}
	.st28{display:none;opacity:0.5;fill:#FFFFFF;enable-background:new    ;}
	.st29{fill:#F2F2F2;}
	.st30{fill:#AAAAAA;}
	.st31{fill:#D2D2D2;}
	.st32{fill:#8F8F8D;}
	.st33{fill:#BFBFBF;}
	.st34{fill:#F0F0F0;}
	.st35{fill:#3A3A3A;}
	.st36{opacity:0.68;fill:#494949;enable-background:new    ;}
	.st37{fill:#D5D5D5;}
	.st38{opacity:0.41;fill:#1C1C1C;enable-background:new    ;}
	.st39{fill:#EFEFED;}
	.st40{fill:#929292;}
	.st41{fill:#EA8A42;}
	.st42{fill:#282828;}
	.st43{fill:#393834;}
</style>
<g id="bamboo" class="bubble">
	<g>
		<circle class="st0" cx="1078.1" cy="262.4" r="162.5"/>
		<circle class="st1" cx="1073.6" cy="256.5" r="154.9"/>
	</g>
	<g>
		<path class="st2" d="M1176.9,170.3C1176.9,170.4,1176.9,170.4,1176.9,170.3c-3,3.4-9.1,2.8-13.7-1.4l0,0c0,0,0,0-0.1-0.1
			c-4.5-4.2-5.9-10.3-3-13.7c0.2-0.3,0.6-0.6,0.8-0.8c3.2-2.5,8.6-1.7,12.8,2.2C1178.4,160.7,1179.9,166.9,1176.9,170.3z"/>
		<path class="st3" d="M1177.4,170.5l-11.6,11.9l-33.1,33.7v0.2c-6.2-1.1-8.8-3.8-9.9-6.2l40.5-41.3c0,0,0,0,0.1,0.1l0,0
			C1168.2,173.1,1174.5,173.7,1177.4,170.5L1177.4,170.5z"/>
		<path class="st4" d="M1125.5,223.4l-5.1,5.3l-72.3,73.7c-3.2-0.4-8.8-1.7-10.7-5.3h0.1l74.5-76c-3.9-5.1-4.4-9.8-4.3-12.7l0.6-0.6
			v-4.2c0.6,4.7,2.1,8.4,4.2,11.2C1116,219.8,1121.2,222.2,1125.5,223.4z"/>
		<path class="st4" d="M1045.7,310.2l-5.9,0.6l-4.4,4.4l-35.7,36.3l-0.1-0.1c-3.1,2.9-8.9,2.2-13.5-1.7c0.2-0.4,0.6-0.9,0.9-1.2
			l0.1-0.1c0.1-0.1,0.2-0.2,0.3-0.3l0,0l40.6-40.6c-4-5.6-4.3-10.3-3.9-13l1.4-1.4c0,0.1,0,0.3,0.1,0.4v0.1c0,0.1,0.1,0.3,0.1,0.4
			c0,0.1,0.1,0.3,0.1,0.6c0,0.1,0.1,0.3,0.1,0.4c0,0,0,0,0,0.1c0.1,0.2,0.1,0.4,0.2,0.8c0,0.1,0,0.2,0.1,0.3c0,0.1,0.1,0.2,0.1,0.3
			c0.1,0.2,0.1,0.4,0.2,0.7c0,0.1,0.1,0.3,0.2,0.6c0.1,0.3,0.2,0.6,0.3,0.9c0.1,0.2,0.1,0.3,0.2,0.6c0,0,0,0,0,0.1
			c0.1,0.2,0.2,0.3,0.3,0.6c0.1,0.2,0.2,0.4,0.3,0.6l0,0C1032.8,308.3,1041.6,309.9,1045.7,310.2z"/>
		<path class="st5" d="M1025.6,292.9L1025.6,292.9v-0.1V292.9z"/>
		<path class="st6" d="M1028,307.3L987.4,348l0,0c-0.1,0.1-0.2,0.2-0.3,0.3l-0.1,0.1c-0.3,0.4-0.6,0.8-0.9,1.2
			c-0.1,0-0.1-0.1-0.2-0.1l0,0c-4.7-4.2-6.2-10.4-3.2-13.8c0.1-0.1,0.3-0.3,0.4-0.4l0,0l41-41C1023.7,297.2,1024.1,301.7,1028,307.3
			z"/>
		<path class="st5" d="M1025.6,292.9L1025.6,292.9v-0.1V292.9z"/>
		<path class="st6" d="M1048,302.4l-0.3,0.4l0,0l-0.3,4.1c-10.5-0.7-15.6-5.5-17.9-10.7c-2.4-5.3-2.1-10.8-2-12.5l5.6,0.8l74.4-75.9
			c-0.1,2.8,0.4,7.6,4.3,12.7l-74.5,76h-0.1C1039.2,300.7,1044.9,301.9,1048,302.4z"/>
		<path class="st6" d="M1132.7,216.3l-0.2,4.2c-9.5-0.4-14.8-4.4-17.8-8.8c-3.2-5-3.6-10.5-3.6-12.7h5.9l43.9-44.7l0.1,0.1
			c-0.3,0.2-0.6,0.4-0.9,0.8c-3,3.4-1.7,9.5,3.1,13.7l-40.5,41.2l0,0C1124,212.6,1126.6,215.2,1132.7,216.3z"/>
		<path class="st7" d="M1047.4,306.8l-0.2,3.2l-1.5,0.1l0,0c-4.1-0.3-12.8-1.9-17.6-9.9l0,0c-0.1-0.2-0.2-0.4-0.3-0.6
			c-0.1-0.2-0.2-0.3-0.3-0.6c0,0,0,0,0-0.1c-0.1-0.1-0.1-0.3-0.2-0.6c-0.1-0.3-0.2-0.6-0.3-0.9c-0.1-0.1-0.1-0.3-0.2-0.6
			c-0.1-0.2-0.1-0.4-0.2-0.7c0-0.1-0.1-0.2-0.1-0.3c0-0.1-0.1-0.2-0.1-0.3c-0.1-0.2-0.1-0.4-0.2-0.8c0,0,0,0,0-0.1
			c0-0.1-0.1-0.3-0.1-0.4c0-0.1-0.1-0.3-0.1-0.6c0-0.1-0.1-0.3-0.1-0.4v-0.1c0-0.1,0-0.3-0.1-0.4l0,0v-0.1c-0.4-2.8-0.6-5.9-0.2-9.4
			v-0.1c0.1-0.4,2.2,0,2.2,0s0,0.1,0,0.4c-0.1,1.7-0.4,7.2,2,12.5C1031.8,301.3,1036.9,306.1,1047.4,306.8z"/>
		<path class="st5" d="M1025.6,292.9L1025.6,292.9v-0.1V292.9z"/>
		<path class="st7" d="M1133,220.5c0,4.1,0,4.1,0,4.1s-3.3,0-7.5-1.2c-4.3-1.2-9.5-3.6-13.1-8.5c-2.1-2.9-3.6-6.5-4.2-11.2
			c-0.2-1.5-0.2-3.2-0.2-5.1c0.4-1.2,3.2-0.8,3.2-0.8s0,0.3,0,1c0,2.2,0.4,7.8,3.6,12.7c3,4.5,8.3,8.4,17.8,8.8
			C1132.7,220.5,1132.8,220.5,1133,220.5z"/>
		<path class="st5" d="M1037.3,297.1c0-0.1,0-0.1-0.1-0.2"/>
		<path class="st8" d="M1174.2,167.3L1174.2,167.3c-1.8,2-5.4,1.7-8.2-0.9l0,0l0,0c-2.8-2.5-3.5-6.2-1.8-8.2
			c0.1-0.1,0.3-0.3,0.4-0.4c1.9-1.5,5.1-1,7.7,1.3C1175.2,161.6,1176.1,165.2,1174.2,167.3z"/>
	</g>
</g>
<g id="cardboard" class="bubble">
	<g>
		<circle class="st0" cx="1252.8" cy="755.7" r="162.5"/>
		<circle class="st1" cx="1248.2" cy="749.8" r="154.9"/>
	</g>
	<g>
		<polygon class="st9" points="1252.7,719.4 1253.7,768.8 1198.5,763.4 1200.2,737 		"/>
		<polygon class="st10" points="1279.2,684 1252.7,719.4 1343.2,738.9 1366.9,699.5 		"/>
		<polygon class="st11" points="1252.7,719.4 1181.1,747.7 1150.2,698.8 1226,679.6 		"/>
		<polygon class="st12" points="1343.2,738.9 1252.7,719.4 1253.1,764.3 1340.4,814.2 		"/>
		<polygon class="st13" points="1143.4,723.8 1181.1,747.7 1275.4,768.8 1241.3,746.8 		"/>
		<polygon class="st14" points="1181.1,747.7 1183.7,822.4 1275.8,854.3 1275.4,768.8 		"/>
		<polygon class="st15" points="1275.4,768.8 1343.2,738.9 1340.4,814.2 1275.8,854.3 		"/>
		<polygon class="st16" points="1378.8,705.8 1343.2,738.9 1275.4,768.8 1314.9,732.6 		"/>
	</g>
</g>
<g id="beard" class="bubble">
	<g>
		<circle class="st0" cx="777.9" cy="639.2" r="162.5"/>
		<circle class="st1" cx="773.3" cy="633.4" r="154.9"/>
	</g>
	<path d="M875.1,614.7c12,49.1-3,69.9-5.9,73c1.2-6.5-1.5-9.4-1.5-9.4s-8.8,32-43.2,47.3c1.8-3.8,5.3-10.8,4.5-20
		c-4.3,26.9-37.3,30.4-44.5,44.7c-19.3-21.4-40.1-19-44.5-44.5c-0.8,9.1,2.8,16.1,4.5,20c-34.3-15.1-43.2-47.3-43.2-47.3
		s-2.8,2.8-1.5,9.4c-17.4-21-8-64.2-5.9-73c-1,1.8-4.5,8.1-5.9,12.6c-5.3-31,19.3-66.9,9.1-97.2c4.7,3.8,7.7,15.3,9.8,26.9
		c12.5,88.8,48-3.3,77.3,26.9c32.9-30.5,64.8,64.6,78.3-32c2.1-10,4.5-17.9,8.8-22c-10.4,29.7,14.5,66.6,9.1,97.2
		C880,621,877.4,620.5,875.1,614.7z"/>
</g>
<g id="coconut" class="bubble">
	<g>
		<circle class="st0" cx="955.6" cy="1147.8" r="162.5"/>
		<circle class="st1" cx="951" cy="1142" r="154.9"/>
	</g>
	<g>
		<g>
			
				<linearGradient id="SVGID_1_" gradientUnits="userSpaceOnUse" x1="959.9775" y1="400.0931" x2="1000.4207" y2="400.0931" gradientTransform="matrix(1 0 0 -1 0 1480.6383)">
				<stop  offset="0" style="stop-color:#73AC4B"/>
				<stop  offset="0.8127" style="stop-color:#4E6B37"/>
				<stop  offset="0.9771" style="stop-color:#4E6B37"/>
			</linearGradient>
			<polygon class="st17" points="960,1053.3 981.1,1107.8 1000.5,1099.2 			"/>
			
				<linearGradient id="SVGID_2_" gradientUnits="userSpaceOnUse" x1="983.277" y1="399.0994" x2="1010.2205" y2="399.0994" gradientTransform="matrix(1 0 0 -1 0 1480.6383)">
				<stop  offset="0" style="stop-color:#73AC4B"/>
				<stop  offset="0.8127" style="stop-color:#4E6B37"/>
				<stop  offset="0.9771" style="stop-color:#4E6B37"/>
			</linearGradient>
			<polygon class="st18" points="983.3,1045.5 987,1117.6 1010.2,1107.1 			"/>
			
				<linearGradient id="SVGID_3_" gradientUnits="userSpaceOnUse" x1="1003.1534" y1="389.1611" x2="1017.3698" y2="389.1611" gradientTransform="matrix(1 0 0 -1 0 1480.6383)">
				<stop  offset="0" style="stop-color:#73AC4B"/>
				<stop  offset="0.8127" style="stop-color:#4E6B37"/>
				<stop  offset="0.9771" style="stop-color:#4E6B37"/>
			</linearGradient>
			<polygon class="st19" points="1011.5,1076.6 1003.2,1103.6 1017.4,1106.3 			"/>
			
				<linearGradient id="SVGID_4_" gradientUnits="userSpaceOnUse" x1="854.375" y1="296.4046" x2="911.4858" y2="296.4046" gradientTransform="matrix(1 0 0 -1 0 1480.6383)">
				<stop  offset="0" style="stop-color:#73AC4B"/>
				<stop  offset="0.8127" style="stop-color:#4E6B37"/>
				<stop  offset="0.9771" style="stop-color:#4E6B37"/>
			</linearGradient>
			<path class="st20" d="M856.1,1189.1l55.4-14.5l-1.8,19.1c0,0-32.8-0.8-55.4-4.2"/>
			
				<linearGradient id="SVGID_5_" gradientUnits="userSpaceOnUse" x1="853.6388" y1="285.9144" x2="938.6656" y2="285.9144" gradientTransform="matrix(1 0 0 -1 0 1480.6383)">
				<stop  offset="0" style="stop-color:#73AC4B"/>
				<stop  offset="0.8127" style="stop-color:#4E6B37"/>
				<stop  offset="0.9771" style="stop-color:#4E6B37"/>
			</linearGradient>
			<path class="st21" d="M853.6,1211.7l85-4.2l-22.3-29.7C916.4,1177.9,873.7,1200.4,853.6,1211.7z"/>
			
				<linearGradient id="SVGID_6_" gradientUnits="userSpaceOnUse" x1="879.1468" y1="271.1175" x2="967.8176" y2="271.1175" gradientTransform="matrix(1 0 0 -1 0 1480.6383)">
				<stop  offset="0" style="stop-color:#73AC4B"/>
				<stop  offset="0.8127" style="stop-color:#4E6B37"/>
				<stop  offset="0.9771" style="stop-color:#4E6B37"/>
			</linearGradient>
			<path class="st22" d="M879.1,1229.3c0,0,20.5-8.8,30.6-10.5c10-1.8,17.9-2.4,25.7-3.6c7.8-1.2,32.4-11.3,32.4-11.3l-36.8-14.2
				C931,1189.7,888.4,1212,879.1,1229.3z"/>
			<path class="st5" d="M922.5,1121.8c0.1-0.6,0.2-1.1,0.2-1.7C922.8,1120.7,922.7,1121.2,922.5,1121.8z"/>
			
				<linearGradient id="SVGID_7_" gradientUnits="userSpaceOnUse" x1="858.3193" y1="349.1323" x2="1006.8652" y2="349.1323" gradientTransform="matrix(1 0 0 -1 0 1480.6383)">
				<stop  offset="0" style="stop-color:#A1683D"/>
				<stop  offset="7.681940e-02" style="stop-color:#A3693E"/>
				<stop  offset="1" style="stop-color:#000000"/>
			</linearGradient>
			<path class="st23" d="M997.7,1176.2c-19.7,28.7-64.8,31.9-100.8,7.2c-36-24.7-49.1-68-29.5-96.6c19.7-28.7,64.8-31.9,100.8-7.2
				C1004.3,1104.3,1017.4,1147.5,997.7,1176.2z"/>
			
				<linearGradient id="SVGID_8_" gradientUnits="userSpaceOnUse" x1="921.4393" y1="310.2077" x2="1061.347" y2="310.2077" gradientTransform="matrix(1 0 0 -1 0 1480.6383)">
				<stop  offset="0" style="stop-color:#A1683D"/>
				<stop  offset="6.738545e-03" style="stop-color:#B97F4F"/>
				<stop  offset="7.681940e-02" style="stop-color:#A3693E"/>
				<stop  offset="0.4677" style="stop-color:#9F673D"/>
				<stop  offset="1" style="stop-color:#000000"/>
			</linearGradient>
			<path class="st24" d="M1061.3,1155.6c-7.4,36.3-35.4,63.4-69,63.4c-39.1,0-70.9-37-70.9-82.5c0-5,0.3-9.8,1.1-14.6
				c-3.1,23.5,21.4,49.4,57.3,59.5c38.1,10.6,74.4-0.7,81.3-25.2C1061.2,1155.9,1061.2,1155.7,1061.3,1155.6z"/>
			<path class="st25" d="M1004.7,1092.4c-38.1-10.6-74.4,0.8-81.4,25.3c-0.2,0.8-0.4,1.5-0.6,2.4c-0.1,0.6-0.2,1.1-0.2,1.7l0,0
				c-3.1,23.5,21.4,49.4,57.3,59.5c38.1,10.6,74.4-0.7,81.3-25.2c0-0.2,0.1-0.4,0.1-0.6c0.3-1.5,0.6-3.1,0.8-4.6
				C1064.4,1127.6,1040.1,1102.2,1004.7,1092.4z M1055.3,1153.1c-6.3,22.6-39.9,33-74.9,23.2c-35-9.8-58.3-36.1-52-58.6
				c6.3-22.6,39.9-33,74.9-23.2C1038.3,1104.2,1061.6,1130.5,1055.3,1153.1z"/>
			<path class="st5" d="M1062.1,1150.9c-0.1,1.5-0.4,3.1-0.8,4.6C1061.6,1154,1061.9,1152.5,1062.1,1150.9z"/>
			<path class="st26" d="M1055.3,1153.1c-6.3,22.6-39.9,33-74.9,23.2c-35-9.8-58.3-36.1-52-58.6c6.3-22.6,39.9-33,74.9-23.2
				C1038.3,1104.2,1061.6,1130.5,1055.3,1153.1z"/>
			
				<linearGradient id="SVGID_9_" gradientUnits="userSpaceOnUse" x1="1002.8797" y1="375.1481" x2="985.9509" y2="324.5539" gradientTransform="matrix(1 0 0 -1 0 1480.6383)">
				<stop  offset="0" style="stop-color:#F2EFEB"/>
				<stop  offset="0.4461" style="stop-color:#E7E2DB"/>
				<stop  offset="0.8639" style="stop-color:#CDC2B3"/>
				<stop  offset="1" style="stop-color:#BFB4A7"/>
			</linearGradient>
			<path class="st27" d="M1035.3,1145.2c-4.2,14.9-26.3,21.8-49.4,15.3s-38.4-23.7-34.2-38.6c4.2-14.9,26.3-21.8,49.4-15.3
				C1024.1,1113,1039.5,1130.3,1035.3,1145.2z"/>
		</g>
	</g>
</g>
<g id="platinum" class="bubble">
	<g>
		<circle class="st0" cx="452.1" cy="255.4" r="162.5"/>
		<circle class="st1" cx="447.6" cy="249.6" r="154.9"/>
	</g>
	<g>
		<rect x="303.5" y="167.4" class="st28" width="309.1" height="224.2"/>
		<g>
			<polygon class="st29" points="544.2,213.2 506,238.1 379.9,201.4 488.3,197.7 			"/>
			<g>
				<g>
					<path class="st30" d="M460.3,195.3c0.8,0.3,1.2,0.7,1.2,1.1s-0.4,0.9-1.4,1.3c-2.3,1.2-4.7,1.1-5.9,0.6c-0.1,0-0.2-0.1-0.2-0.1
						l-0.4-0.4l-2.7,1.2c-1.4,0.7-1.4,0.8-0.6,1.2l-0.6,0.2l-3.2-1.3l0.6-0.2c1.2,0.3,1.3,0.3,2.8-0.3l6.6-3.1
						c1.4-0.7,1.3-0.7,0.6-1.1l0.4-0.2L460.3,195.3z M454.1,197.4c0,0.1,0.2,0.3,0.6,0.4c0.8,0.3,2.3,0.4,4.3-0.6
						c1.8-0.9,1.5-1.4,0.7-1.9c-0.3-0.1-0.7-0.2-0.8-0.1c-0.2,0-0.4,0.1-0.9,0.3L454.1,197.4z"/>
					<path class="st30" d="M462,203c-0.6,0.2-2.7,1-3.3,1.2l-5.5-2.3l0.4-0.2c1.2,0.3,1.4,0.3,2.9-0.3l6.3-3.2
						c1.3-0.7,1.2-0.8,0.4-1.2l0.4-0.2l3,1.2l-0.4,0.2c-1-0.3-1.2-0.3-2.4,0.3l-6.5,3.3c-1,0.6-1.2,0.7-0.6,1c0,0,0.9,0.3,0.9,0.4
						c0.6,0.2,0.9,0.2,1.5,0.1c0.8-0.1,1.7-0.3,2.4-0.6L462,203z"/>
					<path class="st30" d="M465,206.7l0.4-0.2c0.9,0.2,1.2,0.2,1.7-0.2c0.4-0.4,1-1,1.8-1.7l-2.5-1c-0.9,0.3-1.7,0.6-2.5,0.9
						c-1.3,0.4-1.3,0.7-0.4,1.1l-0.4,0.2l-2.8-1.1l0.4-0.2c0.9,0.2,1.2,0.2,3.1-0.4l10.3-3.5l0.4,0.1c-1.7,1.7-3.6,3.6-5.5,5.5
						c-1,1-1,1.1-0.2,1.5l-0.4,0.2L465,206.7z M471.9,201.5c-1.7,0.6-3.3,1.2-4.9,1.8l2.2,0.9L471.9,201.5z"/>
					<path class="st30" d="M481,205.7c0.3-0.3,0.6-0.7,0.7-0.9c0.1-0.3,0.1-0.4-0.6-0.7l-1.2-0.4l-6.8,4.4c-1.2,0.8-1.2,0.9-0.1,1.4
						l-0.4,0.3l-3.6-1.4l0.4-0.2c1.2,0.4,1.5,0.3,2.7-0.4l7-4.4l-1.1-0.4c-0.7-0.2-0.9-0.2-1.5-0.1c-0.4,0.1-0.9,0.3-1.5,0.6
						l-0.3-0.1c0.9-0.6,1.9-1,2.7-1.4l0.2,0.1c-0.1,0.2,0,0.3,0.3,0.4l4.6,1.8c0.3,0.1,0.4,0.1,0.9,0l0.3,0.1
						c-0.6,0.4-1.5,1.1-2.2,1.5L481,205.7z"/>
					<path class="st30" d="M475.5,211l0.4-0.3c1.2,0.3,1.3,0.3,2.5-0.6l5.4-3.8c1.1-0.8,1.1-0.9,0.2-1.3l0.3-0.2l3.1,1.2l-0.3,0.2
						c-1.1-0.3-1.2-0.3-2.3,0.4l-5.4,3.8c-1.2,0.9-1.2,1-0.2,1.4l-0.4,0.3L475.5,211z"/>
					<path class="st30" d="M496.7,210.1c-0.9-0.2-1.2-0.2-1.8,0.2c-0.4,0.3-0.9,0.7-2.1,1.7l-5.2,4.2l-0.6-0.2l1.5-7.5l-3.2,2.4
						c-1.2,0.9-1.8,1.3-2.2,1.7c-0.7,0.6-0.6,0.9,0.2,1.2l-0.4,0.3l-3.1-1.2l0.4-0.3c0.9,0.2,1.3,0.2,2.1-0.2
						c0.4-0.3,1.1-0.8,2.3-1.7l3.3-2.4c0.3-0.2,0.6-0.4,0.6-0.7c0.1-0.3-0.1-0.4-0.6-0.8l0.3-0.2l1.8,0.7l-1.1,7.1l3.1-2.5
						c1.1-0.9,1.7-1.3,2-1.7c0.6-0.4,0.3-0.7-0.6-1.1l0.3-0.2l3,1.2L496.7,210.1z"/>
					<path class="st30" d="M506.2,213.9c-0.8-0.2-1.3-0.2-1.8,0.2c-0.2,0.2-0.8,0.7-1.8,1.7l-1.2,1.2c-1.2,1.1-2.3,2-3.8,2.3
						c-1.2,0.3-2.3,0.1-3.2-0.2c-0.8-0.3-1.4-0.8-1.5-1.4c-0.2-0.9,0.3-1.8,1.8-3l3-2.7c1-0.9,1-1,0.1-1.4l0.3-0.2l3.2,1.2l-0.3,0.2
						c-1-0.3-1.2-0.3-2.2,0.6l-3,2.5c-1.8,1.5-1.9,2.9-0.3,3.5c1.9,0.8,3.5,0,5.5-1.9l1.2-1.1c1-1,1.4-1.3,1.7-1.7
						c0.4-0.4,0.3-0.8-0.6-1.2l0.3-0.2l3,1.2L506.2,213.9z"/>
					<path class="st30" d="M507.2,224.1l0.3-0.3c1.2,0.3,1.3,0.3,2.4-1l4.2-4.6c-2.9,1.5-7.7,4.2-9.2,5.1l-0.3-0.1
						c0.6-1.3,2.1-5.1,3.1-7.4c-4.1,3.8-5,4.6-5.2,4.9c-0.7,0.7-0.4,0.9,0.4,1.3l-0.3,0.3l-3.2-1.3l0.3-0.3c0.9,0.2,1.3,0.2,2.1-0.3
						c0.6-0.4,1-0.9,5.3-4.7c0.6-0.6,0.7-0.8-0.3-1.2l0.3-0.3l2.2,0.9l-2.5,6.7l8.3-4.4l2.2,0.9l-0.2,0.3c-1.2-0.3-1.4-0.3-2.1,0.4
						l-3.8,4.4c-1.1,1.3-1.1,1.4,0,2l-0.3,0.3L507.2,224.1z"/>
				</g>
			</g>
			<polygon class="st31" points="353.1,258.4 478.8,300 486.5,346 337,294 			"/>
			<polygon class="st32" points="518.9,270.2 382,236.2 353.1,258.4 478.8,300 			"/>
			<polygon class="st33" points="566.4,238.9 580.9,273.4 538.1,307.7 527.3,257.3 			"/>
			<polygon class="st34" points="550.8,231.7 566.4,238.9 551.5,245.7 			"/>
			<polygon class="st35" points="538.1,307.7 529,267 518.9,270.2 531.6,306.7 			"/>
			<polygon class="st36" points="468.6,326.4 416.9,315 444.5,289 452.9,291.6 			"/>
			<polygon class="st33" points="478.8,300 518.9,270.2 536,308 486.5,346 			"/>
			<polygon class="st37" points="379.9,201.4 364.9,236.2 516,282.9 506,238.1 			"/>
			<polygon class="st38" points="476.2,233 476.6,233.9 493.9,269.4 483.8,274.1 479.4,294.2 453,291.6 444.5,289 			"/>
			<polygon class="st39" points="407.1,164.4 333.5,300 393.6,322.7 468.8,180 			"/>
			<polygon class="st30" points="411.4,356.2 393.1,321.3 333.5,300 339.3,329.8 			"/>
			<polygon class="st33" points="468.8,180 499.2,191.4 411.4,356.2 393.6,322.7 			"/>
			<polygon class="st40" points="544.2,213.2 506,238.1 516,282.9 561.9,251.2 			"/>
			<g>
				<g>
					<path class="st30" d="M382.1,263.2c0.4-0.8,0.9-1.3,1.4-1.7c0.6-0.2,1.2-0.1,1.9,0.4c1.7,1.2,1.5,3.2,1,4.3
						c0,0.1-0.1,0.2-0.2,0.3l-0.6,0.7l1.8,1.4c1,0.8,1,0.7,1.8-0.3l0.3,0.2l-1.7,3.4l-0.3-0.2c0.4-1.1,0.3-1.2-0.6-2l-4.3-3.5
						c-0.9-0.8-1-0.7-1.5,0.2l-0.3-0.2L382.1,263.2z M385.3,266.9c0.1-0.1,0.3-0.3,0.6-0.8c0.4-0.8,0.6-2.1-0.9-3.1
						c-1.2-0.9-2.1-0.4-2.5,0.6c-0.1,0.3-0.2,0.6-0.2,0.8c0,0.1,0.1,0.3,0.4,0.6L385.3,266.9z"/>
					<path class="st30" d="M392.4,257.4c0.3,0.3,1.4,1.5,1.8,1.9l-2.9,5.7l-0.3-0.2c0.4-1.2,0.4-1.3-0.6-2.1l-4.5-3.3
						c-0.9-0.7-1-0.6-1.5,0.2l-0.3-0.2l1.5-3.1l0.3,0.2c-0.3,1-0.4,1.1,0.6,1.8l4.6,3.3c0.8,0.6,1,0.6,1.3-0.1c0,0,0.4-0.9,0.6-1
						c0.3-0.7,0.3-0.9,0.1-1.3c-0.1-0.6-0.6-1.1-0.9-1.5L392.4,257.4z"/>
					<path class="st30" d="M397.2,253.1l-0.3-0.2c0.3-0.9,0.2-1-0.3-1.2c-0.6-0.1-1.3-0.2-2.2-0.6l-1.3,2.5c0.4,0.6,0.8,1,1.2,1.5
						c0.7,0.8,0.9,0.7,1.4-0.2l0.3,0.2l-1.4,2.9l-0.3-0.2c0.3-0.9,0.3-1.1-0.6-2.2l-4.9-6.4l0.1-0.4c2.3,0.4,4.9,1,7.4,1.5
						c1.2,0.2,1.4,0.2,2-0.6l0.3,0.2L397.2,253.1z M390.3,250.3c0.8,1,1.7,2.1,2.4,3l1.1-2.2L390.3,250.3z"/>
					<path class="st30" d="M395.6,240.8c-0.4-0.1-0.9-0.1-1.2-0.1c-0.4,0-0.6,0.1-0.9,0.8l-0.6,1.2l5.9,3.2c1,0.6,1.2,0.6,1.9-0.6
						l0.3,0.2l-1.8,3.5l-0.3-0.2c0.6-1.2,0.4-1.3-0.6-1.9l-5.9-3.3l-0.6,1.1c-0.3,0.7-0.3,0.9-0.1,1.2c0.1,0.2,0.4,0.6,0.8,0.9
						l-0.2,0.3c-0.7-0.4-1.3-1-2-1.4l0.1-0.2c0.3,0,0.4-0.1,0.6-0.4l2.3-4.5c0.1-0.3,0.1-0.4,0-0.8l0.1-0.2c0.6,0.3,1.4,0.7,2.1,1
						L395.6,240.8z"/>
					<path class="st30" d="M402.4,242.7l-0.3-0.2c0.4-1.1,0.3-1.2-0.7-1.8l-4.9-2.4c-1-0.6-1.1-0.4-1.7,0.4l-0.3-0.1l1.5-3.1
						l0.3,0.1c-0.3,1-0.3,1.1,0.7,1.7l4.9,2.4c1.1,0.6,1.2,0.4,1.8-0.4l0.3,0.2L402.4,242.7z"/>
					<path class="st30" d="M400.9,226.5c-0.3,0.8-0.3,1.1,0.2,1.3c0.4,0.2,0.9,0.4,2.1,0.9l5.3,2.2l-0.2,0.4l-9.3,2.2l3.1,1.4
						c1.2,0.6,1.8,0.8,2.1,0.9c0.7,0.3,1,0.1,1.5-0.8l0.3,0.1l-1.4,3l-0.3-0.2c0.3-0.8,0.2-1.2-0.3-1.5c-0.4-0.2-1-0.6-2.1-1.1
						l-3.2-1.4c-0.3-0.1-0.6-0.2-0.9-0.1c-0.4,0.1-0.6,0.3-1,0.8l-0.3-0.1l0.9-1.8l8.8-2.2l-3.2-1.3c-1.2-0.4-1.8-0.7-2.1-0.8
						c-0.6-0.2-0.9,0-1.4,0.9l-0.3-0.1l1.4-2.9L400.9,226.5z"/>
					<path class="st30" d="M405.3,217.7c-0.3,0.8-0.2,1.1,0.3,1.3c0.3,0.1,0.8,0.3,2,0.7l1.4,0.4c1.3,0.4,2.3,1,2.9,2
						c0.4,0.8,0.2,1.8-0.2,2.5c-0.3,0.7-0.9,1.4-1.7,1.8c-1,0.6-2.1,0.6-3.6-0.1l-3.3-1.2c-1.1-0.4-1.2-0.3-1.8,0.6l-0.3-0.1l1.5-3
						l0.3,0.1c-0.4,1-0.3,1.1,0.8,1.5l3.2,1.2c2,0.8,3.4,0.3,4.2-1.2c0.9-1.8-0.1-2.7-2.3-3.4l-1.3-0.4c-1.2-0.4-1.7-0.6-2.1-0.7
						c-0.6-0.1-0.9,0-1.4,0.9l-0.3-0.1l1.3-2.8L405.3,217.7z"/>
					<path class="st30" d="M417.2,213l-0.4-0.1c0.4-1,0.3-1.1-1.2-1.4L410,210c2,1.7,5.2,4.2,6.2,5.1l-0.1,0.3c-1.5,0-6,0.3-8.8,0.4
						c4.5,1.7,5.6,2,6,2.1c0.8,0.2,1.1,0,1.5-0.9l0.4,0.1l-1.4,2.9l-0.4-0.1c0.2-0.8,0.2-1.1-0.4-1.4c-0.6-0.2-1.1-0.4-5.7-2.2
						c-0.7-0.2-0.9-0.2-1.5,0.8l-0.3-0.1l1-2l8.1-0.7l-5.4-4.6l1-2l0.3,0.1c-0.3,1-0.3,1.2,0.6,1.4l5.3,1.2c1.5,0.3,1.7,0.3,2.3-0.8
						l0.4,0.1L417.2,213z"/>
				</g>
			</g>
		</g>
	</g>
</g>
<g id="fishing-line" class="bubble">
	<g>
		<circle class="st0" cx="214" cy="699.3" r="162.5"/>
		<circle class="st1" cx="209.5" cy="693.4" r="154.9"/>
	</g>
	<g>
		<path class="st41" d="M264.3,778.8C246.9,789.4,228.7,794,211,794c-26.9,0-52.3-10.9-70.6-27.8c-15.5-14.5-25.3-32.9-27.7-52.1
			c-2.7-21.5,3.9-43.4,18.9-63.2l0.1-0.1c19.7-22.4,45.4-30.9,70.6-23.6c23.7,7,42.7,27.4,46.3,49.8c3.2,20.5-6.5,39.4-27.3,53.3
			l-0.3,0.2c-22.3,11.2-43.5,1.5-53.8-11.9c-11-14.6-10.2-32.9,2.3-46.6l0.1-0.1c7.7-8,17.9-11,27.9-8.5c9.8,2.5,17.8,10,20.3,19.1
			c2.3,8.3-0.2,16.6-7,23.4l-0.1,0.1c-9.3,8.1-20.9,5.4-27.1-1.1c-5.4-5.7-7.4-15.1,0.3-23.2l4.1,3.9c-5.6,5.9-3.9,11.8-0.3,15.5
			c4.5,4.7,12.6,6.5,19.2,0.8c6.7-6.8,6.7-13.6,5.5-17.9c-2-7.1-8.5-13.1-16.3-15.1c-4.7-1.2-13.8-1.9-22.4,7
			c-12.8,14.1-9.4,29.6-1.9,39.4c8.8,11.7,27.3,20,46.7,10.4c18.8-12.6,27.5-29.6,24.7-47.8c-3.1-20.3-20.5-39-42.3-45.3
			c-23.1-6.7-46.6,1.1-64.7,21.8c-32.7,43.4-16,85.1,8.3,107.8c28.4,26.5,75.4,37.2,116.7,12L264.3,778.8z"/>
		<path d="M312.5,643.4c-32.7-8.1-44.2,24.7-44.3,31.4c-0.3,32.7,17.1,40.1,14.5,57.9c-3.2,20.8-15.6,33.3-15.6,33.3
			c-4.3-2.8-26.8,16.1-5.7,22.5c11.3,3.4,12.9-21.1,9.7-19.8c0,0,15.6-25.7,16-37.4c0.7-17.2-10-25-11.6-49.2
			c-1.5-24,18.4-40.4,35-33.5s23,16.2,18,40c-3.9-4.5-7.5-7.4-9.3-8.6c2.9,2.4,10.5,12.5-1,46.5C328.5,699.3,356,654.2,312.5,643.4z
			 M268.2,778.6c-2.1,3.5-5.7,5.3-8.2,3.9s-2.8-5.5-0.7-9.1s5.7-5.3,8.2-3.9C270,771,270.2,775,268.2,778.6z"/>
		<path d="M253.7,833.2c-0.4-0.3-0.8-0.6-0.9-0.7C252.9,832.7,253.2,832.9,253.7,833.2z"/>
		<path class="st41" d="M279.6,767.4c-5,4.3-10.2,8.2-15.5,11.4l-3.2-4.6c5.1-3.1,10.2-6.7,15-11L279.6,767.4z"/>
	</g>
</g>
<g id="rubber" class="bubble">
	<g>
		<circle class="st0" cx="425.5" cy="1098.8" r="162.5"/>
		<circle class="st1" cx="421" cy="1093" r="154.9"/>
	</g>
	<g>
		<path class="st5" d="M451.9,1107.6c0,23.7-7.4,44.3-18,53.3c-9.3-10.4-15.6-30-15.6-52.8c0-23.2,6.5-43.3,16.1-53.4
			C444.8,1064.2,451.9,1084.3,451.9,1107.6z"/>
		<path class="st42" d="M465.1,999c-4.1-1.8-8.3-2.8-12.6-2.8c-4.4,0-8.7,1-12.8,2.9c-18.9,8.5-34.2,35.1-40.7,70
			c-2.3,12-3.5,25.1-3.5,38.6s1.2,26.6,3.5,38.6c6.4,33.6,20.8,59.5,38.8,68.9c4.7,2.5,9.7,3.9,14.9,3.9c3.5,0,7.1-0.7,10.4-1.9
			c26.6-9.5,46.8-55,46.8-109.7C509.7,1054.5,490.6,1010.1,465.1,999z M448.7,1168.7c-5.4,0-10.4-2.8-14.8-7.6
			c-9.3-10.4-15.6-30-15.6-52.8c0-23.2,6.5-43.3,16.1-53.4c4.2-4.4,9.1-7,14.2-7c16.8,0,30.4,27.1,30.4,60.4
			S465.5,1168.7,448.7,1168.7z"/>
		<path class="st5" d="M451.9,1107.6c0,23.7-7.4,44.3-18,53.3c-9.3-10.4-15.6-30-15.6-52.8c0-23.2,6.5-43.3,16.1-53.4
			C444.8,1064.2,451.9,1084.3,451.9,1107.6z"/>
		<path d="M479,1108.3c0,33.3-13.6,60.4-30.4,60.4c-5.4,0-10.4-2.8-14.8-7.6c10.6-9.1,18-29.6,18-53.3c0-23.3-7.1-43.5-17.4-52.8
			c4.2-4.4,9.1-7,14.2-7C465.5,1047.9,479,1075,479,1108.3z"/>
		<path class="st43" d="M388.8,1205.8l0.2,3.2c-27.4-17.1-46.5-56.4-46.5-102.3c0-51.2,24-94.4,56.6-107.4l-0.9,1.8l-10.6,5l0.8,3.2
			l-8.9,7.1l0.6,5.6l-10.2,10.3l1.8,7.7l-8.7,10.4l2.5,7.6l-7.3,13.3l2.7,8.8l-5.4,11.7l4,9.3l-5.3,14.8l6.1,7.5l-4,12.8l6.3,8
			l-2.4,13l7,7l-0.7,11.3l8,5.5l-0.9,8.7l7.7,6.5l0.1,6.4L388.8,1205.8z"/>
		<path class="st43" d="M433.1,1221.6c-8.5-0.7-16.8-2.5-23.3-4.3c-2-0.3-4-0.9-6-1.4l-1.4-2.3l-7.7-2.3l-1.7-6.1l-6.7-3l-0.7-8.1
			l-7.4-4.7l0.7-10.4l-7.7-3.3l0.7-13l-6.7-6.7l4-12.4l-7.7-7.7l4.7-13.5l-6.4-8.1c0,0,5.4-12.4,5.4-13.7c0-1.3-4.3-8.4-4.3-8.4
			l6.1-13.5l-3-7.4l7.1-13.5l-2-9.1l6.7-8.1l-1.3-9.1l10.4-9.1l-1-6.1l7.7-6.4v-4l11.4-6.1v-2.2c1-0.3,2-0.7,3.1-0.9c0,0,0,0,0.1,0
			c9.5-2.8,17.9-4.1,25.2-4.5l-0.1,0.1l-7.2,1.1l-2.9,5.5l-10.6,5l0.8,3.2l-8.9,7.1l0.6,5.5l-10.2,10.3l1.8,7.7l-8.7,10.4l2.5,7.6
			l-7.3,13.3l2.7,8.8l-5.4,11.7l4,9.3l-5.3,14.8l6.1,7.5l-4,12.9l6.3,8l-2.4,13l7,7l-0.7,11.3l8,5.5l-0.9,8.7l7.7,6.5l0.1,6.4
			l7.5,3.3l0.2,4.2l8.6,4.3c0,0,0.7,4.5,2.2,4.3c1.5-0.3,2.4-0.9,2.4-0.9l4,2.7L433.1,1221.6z"/>
		<path class="st43" d="M452.5,1219.2c3.5,0,7.1-0.7,10.4-1.9c-7.3,3.8-16,4.9-24.7,4.6l-5.3-5.2h-5l-3-5l-7.7-2.3l-1.7-6.1l-6.7-3
			l-0.7-8.1l-7.4-4.7l0.7-10.4l-7.7-3.3l0.7-13l-6.7-6.7l4-12.4l-7.7-7.7l4.7-13.5l-6.4-8.1c0,0,5.4-12.4,5.4-13.7
			c0-1.3-4.4-8.4-4.4-8.4l6.1-13.5l-3-7.4l7.1-13.5l-2-9.1l6.7-8.1l-1.3-9.1l10.4-9.1l-1-6.1l7.7-6.4v-4l11.4-6.1V994l9.7-1v-0.7
			c15.6-0.2,25.5,3.8,30.3,6.4c-4.1-1.8-8.3-2.8-12.6-2.8c-4.4,0-8.7,1-12.8,2.9c-18.9,8.5-34.1,35.1-40.7,70
			c-2.3,12-3.5,25.1-3.5,38.6c0,13.6,1.2,26.6,3.5,38.6c6.4,33.6,20.8,59.5,38.8,68.9C442.4,1217.8,447.3,1219.2,452.5,1219.2z"/>
		<path d="M438.2,1221.9c-1.3,0-2.7-0.1-4-0.2c-0.3,0-0.8-0.1-1.1-0.1l-4.2-3l-4-2.7c0,0-0.9,0.6-2.4,0.9c-1.5,0.3-2.2-4.3-2.2-4.3
			l-8.6-4.3l-0.2-4.2l-7.5-3.3l-0.1-6.4l-7.7-6.5l0.9-8.7l-8-5.5l0.7-11.3l-7-7l2.4-13l-6.3-8l4-12.9l-6-7.5l5.2-14.7l-4-9.3
			l5.4-11.7l-2.7-8.8l7.3-13.3l-2.5-7.6l8.7-10.4l-1.8-7.7l10.2-10.3l-0.6-5.5l8.9-7.1l-0.8-3.2l10.6-5l2.9-5.5l7.2-1.1l0.1-0.1
			c1.3-0.1,2.7-0.1,4-0.1v0.8l-9.7,1v4.3l-11.4,6.1v4l-7.6,6.4l1,6.1l-10.4,9.1l1.3,9.1l-6.7,8.1l2,9.1l-7.1,13.5l3,7.4l-6.3,13.1
			c0,0,4.3,7.1,4.3,8.4c0,1.3-5.4,13.7-5.4,13.7l6.4,8.1l-4.7,13.5l7.7,7.7l-4,12.4l6.7,6.7l-0.7,13l7.7,3.3l-0.7,10.4l7.4,4.7
			l0.7,8.1l6.7,3l1.7,6.1l7.7,2.3l3,5h5L438.2,1221.9z"/>
		<path d="M403.7,1215.9c-5.1-1.5-10-3.9-14.7-6.8l-0.2-3.2l-7.5-3.3l-0.1-6.4l-7.7-6.5l0.9-8.7l-8-5.5l0.7-11.3l-7-7l2.4-13l-6.3-8
			l4-12.8l-6.1-7.5l5.3-14.8l-4-9.3l5.4-11.7l-2.7-8.8l7.3-13.3l-2.5-7.6l8.7-10.4l-1.8-7.7l10.2-10.3l-0.6-5.6l8.9-7.1l-0.8-3.2
			l10.6-5l0.9-1.8c1.1-0.4,2.3-0.9,3.4-1.2v2.2l-11.4,6.1v4l-7.7,6.4l1,6.1l-10.4,9.1l1.3,9.1l-6.7,8.1l2,9.1l-7.1,13.5l3,7.4
			l-6.1,13.5c0,0,4.3,7.1,4.3,8.4c0,1.3-5.4,13.7-5.4,13.7l6.4,8.1l-4.7,13.5l7.7,7.7l-4,12.4l6.7,6.7l-0.7,13l7.7,3.3l-0.7,10.4
			l7.4,4.7l0.7,8.1l6.7,3l1.7,6.1l7.7,2.3L403.7,1215.9z"/>
	</g>
</g>
</svg>
