<svg id="candle" xmlns="http://www.w3.org/2000/svg" viewBox="0 0 365.6 387.2"><defs><style>.cls-1{fill:#ffda00;}.cls-2{fill:#ef7b00;}.cls-3{fill:#e6312f;}.cls-4{fill:#35332a;}.cls-5{fill:#f2e9c7;}.cls-6{fill:#f1d564;}.cls-7{fill:#d1b747;}.cls-8{fill:#ceb344;}.cls-9{fill:#635e5a;}.cls-10{fill:#827d79;}</style></defs><path id="yellow_flame" data-name="yellow flame" class="cls-1" d="M337.55,370.76c-5.3,39.79-25.48,45.54-52.42,41.95s-42.42-26.23-37.12-66,56.3-78.08,56.3-78.08S342.85,331,337.55,370.76Z" transform="translate(-119.43 -268.61)"/><path id="orange_flame" data-name="orange flame" class="cls-2" d="M338.17,364.68c5.22,34.8-10.38,44.55-33.95,48.08S262.12,401,256.9,366.19s28.43-79.46,28.43-79.46S333,329.88,338.17,364.68Z" transform="translate(-119.43 -268.61)"/><path id="red_flame" data-name="red flame" class="cls-3" d="M323.85,384.92c-5.16,27.75-19.54,31.06-38.33,27.57s-28.84-19.95-23.68-47.7S304.2,312,304.2,312,329,357.17,323.85,384.92Z" transform="translate(-119.43 -268.61)"/><g id="candle_body" data-name="candle body"><rect class="cls-4" x="165.17" y="112.68" width="21.15" height="64.22" rx="10.58"/><path class="cls-5" d="M419.92,606.67a22,22,0,0,0-10.4,2.6A19.5,19.5,0,0,0,374,599.7a25.5,25.5,0,1,0-.52,44.14,21.52,21.52,0,0,0,31.89,1.51,22.09,22.09,0,1,0,14.59-38.68Z" transform="translate(-119.43 -268.61)"/><path class="cls-5" d="M365.28,560.2V534.45a10.86,10.86,0,0,0-8.7-10.77,10.71,10.71,0,0,0-12.69,10.51v44.18h0a3.73,3.73,0,0,1-.36,1.71,17.63,17.63,0,1,0,28.09-4.85A20.91,20.91,0,0,1,365.28,560.2Z" transform="translate(-119.43 -268.61)"/><path class="cls-5" d="M357,502.19V437.13a8.28,8.28,0,0,0-7.3-8.32,8.13,8.13,0,0,0-8.92,8.07v81.66a15.51,15.51,0,1,0,22.06-6.07A12.22,12.22,0,0,1,357,502.19Z" transform="translate(-119.43 -268.61)"/><path class="cls-6" d="M260.8,454.68v-1.05h-.05C260.78,454,260.8,454.33,260.8,454.68Z" transform="translate(-119.43 -268.61)"/><path class="cls-7" d="M235.06,448.69v6h0v34a12.9,12.9,0,0,0,12.87,12.86h0a12.9,12.9,0,0,0,12.87-12.86V469.84a12.91,12.91,0,0,0,12.87,12.87h0a12.91,12.91,0,0,0,12.87-12.87v-8.19a8,8,0,0,1,8-8H348.5c.27,0,.53,0,.79,0v-4.9Zm25.74,6c0-.35,0-.7-.05-1.05h.05Z" transform="translate(-119.43 -268.61)"/><path class="cls-8" d="M235.06,572.84v64.65H349.29V578.08c-15.79,12-34.23,18.95-53.94,18.95C272.94,597,252.16,588.09,235.06,572.84Z" transform="translate(-119.43 -268.61)"/><path class="cls-6" d="M348.5,453.63H294.56a8,8,0,0,0-8,8v8.19a12.91,12.91,0,0,1-12.87,12.87h0a12.91,12.91,0,0,1-12.87-12.87v18.87a12.9,12.9,0,0,1-12.87,12.86h0a12.9,12.9,0,0,1-12.87-12.86v84.13c17.1,15.25,37.88,24.19,60.29,24.19,19.71,0,38.15-6.92,53.94-18.95V453.59C349,453.61,348.77,453.63,348.5,453.63Z" transform="translate(-119.43 -268.61)"/><path class="cls-5" d="M348.5,427H235.86A10.87,10.87,0,0,0,225,437.85h0a10.86,10.86,0,0,0,9,10.67,1.24,1.24,0,0,1,1,1.22h0v34a12.91,12.91,0,0,0,12.87,12.87h0a12.91,12.91,0,0,0,12.87-12.87V464.91a12.91,12.91,0,0,0,12.87,12.87h0a12.91,12.91,0,0,0,12.87-12.87v-8.2a8,8,0,0,1,8-8H348.5a10.87,10.87,0,0,0,10.84-10.84h0A10.87,10.87,0,0,0,348.5,427Zm-87.7,22.74c0-.36,0-.71-.05-1.06h.05Z" transform="translate(-119.43 -268.61)"/><path class="cls-9" d="M476.74,632.37h-35c5.19,3.77,8,7.79,8,12,0,4-2.58,7.85-7.37,11.49h34.34a8.31,8.31,0,0,0,8.29-8.29v-6.87A8.31,8.31,0,0,0,476.74,632.37Z" transform="translate(-119.43 -268.61)"/><path class="cls-10" d="M449.77,644.33c0-4.17-2.81-8.19-8-12H127.71a8.31,8.31,0,0,0-8.28,8.29v6.87a8.31,8.31,0,0,0,8.28,8.29H442.4C447.19,652.18,449.77,648.33,449.77,644.33Z" transform="translate(-119.43 -268.61)"/><rect class="cls-8" x="172.75" y="267.34" width="21.15" height="76.68" rx="10.58"/><rect class="cls-8" x="193.91" y="250.41" width="22.09" height="93.6" rx="11.05"/><rect class="cls-8" x="165.17" y="213.51" width="21.15" height="43.19" rx="10.58"/></g></svg>