<?xml version="1.0" encoding="utf-8"?>
<!-- Generator: Adobe Illustrator 23.1.0, SVG Export Plug-In . SVG Version: 6.00 Build 0)  -->
<svg version="1.1" id="lamp" xmlns="http://www.w3.org/2000/svg" xmlns:xlink="http://www.w3.org/1999/xlink" x="0px" y="0px"
	 viewBox="0 0 1920 1080" style="enable-background:new 0 0 1920 1080;" xml:space="preserve">
<style type="text/css">
	.st0{fill:#914949;}
	.st1{fill:#843939;}
	.st2{fill:#8C3C3C;}
	.st3{fill:none;stroke:#000000;stroke-width:1.0956;stroke-miterlimit:10.9556;}
	.st4{opacity:0.5;fill:#A9D1D1;stroke:#000000;stroke-width:1.0956;stroke-miterlimit:10.9556;enable-background:new    ;}
	.st5{fill:none;stroke:#000000;stroke-width:2.1911;stroke-miterlimit:10.9556;}
	
		.st6{opacity:0.9;fill:url(#SVGID_1_);stroke:url(#SVGID_2_);stroke-width:1.0956;stroke-miterlimit:10.9556;enable-background:new    ;}
	.st7{opacity:0.4;fill:#F2FF61;stroke:#000000;stroke-width:1.0956;stroke-miterlimit:10.9556;enable-background:new    ;}
	.st8{fill:none;stroke:#F2E251;stroke-width:2.1911;stroke-miterlimit:10.9556;}
</style>
<g id="lamp-base">
	<path class="st0" d="M1248.5,960.7c0,11.9-25.6,23-68,31.4c-52.7,10.5-131.2,17.2-218.9,17.2s-166.3-6.7-218.9-17.2
		c-42.4-8.5-68-19.5-68-31.4c0-26.8,128.5-48.6,287-48.6C1120.1,912.1,1248.5,933.9,1248.5,960.7z"/>
	<path class="st1" d="M1248.5,960.7v62.9c0,26.8-128.5,48.6-287,48.6s-287-21.8-287-48.6v-62.9c0,11.9,25.6,23,68,31.4
		c52.6,10.5,131.2,17.2,218.9,17.2s166.3-6.7,218.9-17.2C1223,983.7,1248.5,972.7,1248.5,960.7z"/>
	<path class="st2" d="M1148.8,929.3c-1,5.4-10.5,10.3-26.5,14.6c-31.8,8.4-89,14.1-154.3,14.1c-65.4,0-122.7-5.7-154.5-14.1
		c-16.8-4.5-26.4-9.8-26.4-15.4c0,0,11.5-2.3,26.3-15.3l0,0c26.8-23.6,64.6-82.1,65.1-224.8c18.2,5,50.8,8.4,88.1,8.4
		c37,0,69.5-3.3,87.6-8.3c0,0-12.4,159.4,67.9,224.6C1130.2,919.4,1139.1,924.9,1148.8,929.3z"/>
	<path class="st1" d="M1148.8,929.3v29.9h-0.1c0,16.3-81,29.6-180.9,29.6S787,975.5,787,959.2c0-0.4,0.1-1,0.2-1.4v-29.4
		c0,5.7,9.6,11,26.4,15.4c31.8,8.5,89.1,14.1,154.5,14.1c65.3,0,122.5-5.7,154.3-14.1C1138.3,939.5,1147.9,934.6,1148.8,929.3z"/>
	<path class="st0" d="M1069,633.1c0,6.7-21,12.5-52,15.4c-14.8,1.4-31.8,2.3-50,2.3c-18.3,0-35.4-0.9-50.2-2.3
		c-31-3.1-51.8-8.9-51.8-15.4c0-3.1,4.5-6,12.4-8.5c17.3-5.5,50.9-9.2,89.6-9.2c39.4,0,73.6,3.8,90.6,9.6
		C1064.9,627.4,1069,630.2,1069,633.1z"/>
	<path class="st1" d="M1081.1,656.2c0,10.6-5,20-12.9,26c-1.1,0.9-2.3,1.6-3.5,2.3c0,0-0.1,0-0.1,0.1c-2,1-4.3,2-7.1,2.8
		c-1,0.3-2,0.5-3.1,0.9c-18.3,5-50.7,8.3-87.6,8.3c-37.2,0-69.9-3.4-88.1-8.4c-3.2-0.9-5.8-1.9-8.1-2.7c-2.2-1.1-4.2-2.4-6-3.8
		c-7.3-6-12.1-15.1-12.1-25.3c0-15.3,10.5-28.2,24.8-31.7c-7.9,2.5-12.4,5.5-12.4,8.5c0,6.6,20.9,12.4,51.8,15.4
		c14.8,1.4,32,2.3,50.2,2.3s35.2-0.9,50-2.3c31.1-3.1,52-8.9,52-15.4c0-3-4.2-5.7-11.4-8.2C1071.1,628.8,1081.1,641.3,1081.1,656.2z
		"/>
	<g>
		<path class="st0" d="M1223.4,894c0,0.1,0,0.1,0,0.2c-0.4,4.3-14.9,7.8-32.8,7.8s-32.3-3.5-32.6-7.8c0-0.1,0-0.1,0-0.2
			c0-4.4,14.7-8,32.8-8C1208.9,886,1223.4,889.6,1223.4,894z"/>
		<path class="st2" d="M1223.4,894.2v17.5l0,0c0,1.5-1.9,3.1-5.1,4.3c-5.8,2.2-16,3.6-27.6,3.6c-11.9,0-22.3-1.5-28.2-3.8
			c-3-1.2-4.6-2.6-4.6-4.1l0,0v-17.5l0,0c0.4,4.3,14.9,7.8,32.6,7.8S1223,898.6,1223.4,894.2L1223.4,894.2z"/>
		<path class="st1" d="M1218.2,969.3h-0.3c0.1,0.2,0.1,0.3,0.1,0.5c0,3.2-12.5,5.7-27.8,5.7s-27.8-2.5-27.8-5.7c0-0.2,0-0.3,0.1-0.5
			v-53.6c5.7,2.3,16.2,3.8,28.2,3.8c11.6,0,21.7-1.4,27.6-3.6V969.3L1218.2,969.3z"/>
	</g>
	<g>
		<path class="st0" d="M777.2,879.1c0,0.1,0,0.1,0,0.2c-0.4,4.3-14.9,7.8-32.8,7.8c-17.9,0-32.3-3.5-32.6-7.8c0-0.1,0-0.1,0-0.2
			c0-4.4,14.7-8,32.8-8C762.6,871.1,777.2,874.7,777.2,879.1z"/>
		<path class="st2" d="M777.2,879.3v17.5l0,0c0,1.5-1.9,3.1-5.1,4.3c-5.8,2.2-16,3.6-27.6,3.6c-11.9,0-22.3-1.5-28.2-3.8
			c-3-1.2-4.6-2.6-4.6-4.1l0,0v-17.5l0,0c0.4,4.3,14.9,7.8,32.6,7.8C762.1,887.1,776.8,883.6,777.2,879.3L777.2,879.3z"/>
		<path class="st1" d="M772.1,954.4h-0.3c0.1,0.2,0.1,0.3,0.1,0.5c0,3.2-12.5,5.7-27.8,5.7c-15.3,0-27.8-2.5-27.8-5.7
			c0-0.2,0-0.3,0.1-0.5v-53.6c5.7,2.3,16.2,3.8,28.2,3.8c11.6,0,21.7-1.4,27.6-3.6L772.1,954.4L772.1,954.4z"/>
	</g>
</g>
<g id="glass">
	<path class="st3" d="M977.8,414.2c0,0.1,0,0.2-0.1,0.3c-0.9,1-5.3,1.8-10.5,1.8s-9.6-0.8-10.5-1.8c-0.1-0.1-0.1-0.2-0.1-0.3
		c0-1.2,4.7-2.2,10.6-2.2S977.8,413,977.8,414.2z"/>
	<path class="st4" d="M1129.9,276.8c0,38-14.5,73.8-34,101.8c0,0-12.5,18.6-21.3,28.3c-10.3,11.5-42.9,36.9-43.1,56v168.9
		c0,2.1-13.4,3.9-33,4.9V412.1c-0.1-16.2-14-29.5-31.3-29.5s-31.2,13.1-31.3,29.5v224.6c-19.4-1-32.4-2.7-32.4-4.8V462.1
		c-0.4-6.1-3-19.6-14.8-30.9c-15.3-14.5-37.4-34.6-47.8-49.3c-23.9-28.5-38.2-65.1-38.2-105.1c-0.2-90.4,73.1-163.7,163.5-163.7
		S1129.9,186.5,1129.9,276.8z"/>
	<path class="st4" d="M998.5,412v224.6c-6.4,0.3-13.3,0.5-20.7,0.7V414.6h-0.1c0.1-0.1,0.1-0.2,0.1-0.3c0-1.2-4.7-2.2-10.6-2.2
		s-10.6,1-10.6,2.2c0,0.1,0,0.2,0.1,0.3h-0.1v222.7c-7.4-0.1-14.4-0.3-20.7-0.7V412c0.1-16.2,14-29.5,31.3-29.5
		C984.5,382.7,998.4,395.8,998.5,412z"/>
	<path class="st4" d="M977.8,414.6v222.7c-3.4,0-6.8,0.1-10.3,0.1c-3.7,0-7.3,0-11-0.1V414.6h0.1c0.9,1,5.3,1.8,10.5,1.8
		C972.4,416.3,976.8,415.5,977.8,414.6L977.8,414.6z"/>
	<line class="st5" x1="990.1" y1="391.8" x2="1028.4" y2="297.8"/>
	<line class="st5" x1="945.3" y1="391.3" x2="906.9" y2="297.3"/>
</g>
<g id="glass-lit" class="glass-lit">
	
		<radialGradient id="SVGID_1_" cx="275.2" cy="339.1" r="243.4" gradientTransform="matrix(1.0956 0 0 1.0956 668.5271 -100.7912)" gradientUnits="userSpaceOnUse">
		<stop  offset="0.4784" style="stop-color:#F2FF61;stop-opacity:0.9"/>
		<stop  offset="0.7264" style="stop-color:#F5FF83;stop-opacity:0.514"/>
		<stop  offset="0.8531" style="stop-color:#F7FFA1;stop-opacity:0.3966"/>
		<stop  offset="1" style="stop-color:#FFFFFF;stop-opacity:0"/>
	</radialGradient>
	
		<radialGradient id="SVGID_2_" cx="275.2" cy="339.1" r="243.9478" gradientTransform="matrix(1.0956 0 0 1.0956 668.5271 -100.7912)" gradientUnits="userSpaceOnUse">
		<stop  offset="0" style="stop-color:#F2FF61;stop-opacity:0.9"/>
		<stop  offset="1" style="stop-color:#FFFFFF;stop-opacity:0"/>
	</radialGradient>
	<circle class="st6" cx="970" cy="270.7" r="266.7"/>
	<path class="st7" d="M1129.9,276.8c0,38-14.5,73.8-34,101.8c0,0-12.5,18.6-21.3,28.3c-10.3,11.5-42.9,36.9-43.1,56v168.9
		c0,2.1-13.4,3.9-33,4.9V412.1c-0.1-16.2-14-29.5-31.3-29.5s-31.2,13.1-31.3,29.5v224.6c-19.4-1-32.4-2.7-32.4-4.8V462.1
		c-0.4-6.1-3-19.6-14.8-30.9c-15.3-14.5-37.4-34.6-47.8-49.3c-23.9-28.5-38.2-65.1-38.2-105.1c-0.2-90.4,73.1-163.7,163.5-163.7
		S1129.9,186.5,1129.9,276.8z"/>
	<path class="st3" d="M977.8,413.5c0,0.1,0,0.2-0.1,0.3c-0.9,1-5.3,1.8-10.5,1.8s-9.6-0.8-10.5-1.8c-0.1-0.1-0.1-0.2-0.1-0.3
		c0-1.2,4.7-2.1,10.6-2.1S977.8,412.3,977.8,413.5z"/>
	<path class="st7" d="M998.5,412v224.6c-6.4,0.3-13.3,0.5-20.7,0.7V414.6h-0.1c0.1-0.1,0.1-0.2,0.1-0.3c0-1.2-4.7-2.2-10.6-2.2
		s-10.6,1-10.6,2.2c0,0.1,0,0.2,0.1,0.3h-0.1v222.7c-7.4-0.1-14.4-0.3-20.7-0.7V412c0.1-16.2,14-29.5,31.3-29.5
		C984.5,382.7,998.4,395.8,998.5,412z"/>
	<path class="st7" d="M977.8,414.6v222.7c-3.4,0-6.8,0.1-10.3,0.1c-3.7,0-7.3,0-11-0.1V414.6h0.1c0.9,1,5.3,1.8,10.5,1.8
		C972.4,416.3,976.8,415.5,977.8,414.6L977.8,414.6z"/>
	<line class="st5" x1="990.1" y1="391.8" x2="1028.4" y2="297.8"/>
	<line class="st5" x1="945.3" y1="391.3" x2="906.9" y2="297.3"/>
</g>
<path id="filament" class="st8 filament" d="M912.1,297.7c0,0,4.9-5.4,8.2-4.9c3.3,0.4,6.1,5.4,11.9,5.4s4.2-2.2,11.1-2.7
	c6.9-0.5,6.6,4.9,12.4,4.9c5.8,0,12.4-3.2,17.7-3.2c5.4,0,11.5,5.4,14.5,5.4c2.8,0,4.5-4.9,11.9-4.9s12.4,3.6,14.5,4.9
	c2.1,1.3,9.4-4.1,9.4-4.1"/>
</svg>
