<?xml version="1.0" encoding="utf-8"?>
<!-- Generator: Adobe Illustrator 23.1.0, SVG Export Plug-In . SVG Version: 6.00 Build 0)  -->
<svg version="1.1" id="lamp" xmlns="http://www.w3.org/2000/svg" xmlns:xlink="http://www.w3.org/1999/xlink" x="0px" y="0px"
	 viewBox="0 0 532.1 985.8" style="enable-background:new 0 0 532.1 985.8;" xml:space="preserve">
<style type="text/css">
	.Lampst0{fill:#914949;}
	.Lampst1{fill:#843939;}
	.Lampst2{fill:#8C3C3C;}
	.Lampst3{fill:none;stroke:#000000;stroke-miterlimit:10;}
	.Lampst4{opacity:0.5;fill:#A9D1D1;stroke:#000000;stroke-miterlimit:10;enable-background:new    ;}
	.Lampst5{fill:none;stroke:#000000;stroke-width:2;stroke-miterlimit:10;}
	.Lampst7{display:inline;opacity:0.9;fill:url(#SVGID_1_);stroke:url(#SVGID_2_);stroke-miterlimit:10;enable-background:new    ;}
	.Lampst8{display:inline;opacity:0.4;fill:#F2FF61;stroke:#000000;stroke-miterlimit:10;enable-background:new    ;}
	.Lampst9{display:inline;fill:none;stroke:#000000;stroke-miterlimit:10;}
	.Lampst10{display:inline;fill:none;stroke:#000000;stroke-width:2;stroke-miterlimit:10;}
</style>
<g id="lamp-base">
	<path class="Lampst0" d="M529.4,876.9c0,10.9-23.4,21-62.1,28.7c-48.1,9.6-119.8,15.7-199.8,15.7s-151.8-6.1-199.8-15.7
		C29,897.8,5.6,887.8,5.6,876.9c0-24.5,117.3-44.4,262-44.4C412.2,832.5,529.4,852.4,529.4,876.9z"/>
	<path class="Lampst1" d="M529.4,876.9v57.4c0,24.5-117.3,44.4-262,44.4s-262-19.9-262-44.4v-57.4c0,10.9,23.4,21,62.1,28.7
		c48,9.6,119.8,15.7,199.8,15.7s151.8-6.1,199.8-15.7C506.1,897.9,529.4,887.9,529.4,876.9z"/>
	<path class="Lampst2" d="M438.4,848.2c-0.9,4.9-9.6,9.4-24.2,13.3c-29,7.7-81.2,12.9-140.8,12.9c-59.7,0-112-5.2-141-12.9
		c-15.3-4.1-24.1-8.9-24.1-14.1c0,0,10.5-2.1,24-14l0,0c24.5-21.5,59-74.9,59.4-205.2c16.6,4.6,46.4,7.7,80.4,7.7
		c33.8,0,63.4-3,80-7.6c0,0-11.3,145.5,62,205C421.4,839.2,429.5,844.2,438.4,848.2z"/>
	<path class="Lampst1" d="M438.4,848.2v27.3h-0.1c0,14.9-73.9,27-165.1,27s-165.1-12.1-165.1-27c0-0.4,0.1-0.9,0.2-1.3v-26.8
		c0,5.2,8.8,10,24.1,14.1c29,7.8,81.3,12.9,141,12.9c59.6,0,111.8-5.2,140.8-12.9C428.8,857.6,437.6,853.1,438.4,848.2z"/>
	<path class="Lampst0" d="M365.5,577.9c0,6.1-19.2,11.4-47.5,14.1c-13.5,1.3-29,2.1-45.6,2.1c-16.7,0-32.3-0.8-45.8-2.1
		c-28.3-2.8-47.3-8.1-47.3-14.1c0-2.8,4.1-5.5,11.3-7.8c15.8-5,46.5-8.4,81.8-8.4c36,0,67.2,3.5,82.7,8.8
		C361.8,572.7,365.5,575.2,365.5,577.9z"/>
	<path class="Lampst1" d="M376.6,599c0,9.7-4.6,18.3-11.8,23.7c-1,0.8-2.1,1.5-3.2,2.1c0,0-0.1,0-0.1,0.1c-1.8,0.9-3.9,1.8-6.5,2.6
		c-0.9,0.3-1.8,0.5-2.8,0.8c-16.7,4.6-46.3,7.6-80,7.6c-34,0-63.8-3.1-80.4-7.7c-2.9-0.8-5.3-1.7-7.4-2.5c-2-1-3.8-2.2-5.5-3.5
		c-6.7-5.5-11-13.8-11-23.1c0-14,9.6-25.7,22.6-28.9c-7.2,2.3-11.3,5-11.3,7.8c0,6,19.1,11.3,47.3,14.1c13.5,1.3,29.2,2.1,45.8,2.1
		s32.1-0.8,45.6-2.1c28.4-2.8,47.5-8.1,47.5-14.1c0-2.7-3.8-5.2-10.4-7.5C367.5,574,376.6,585.4,376.6,599z"/>
	<g>
		<path class="Lampst0" d="M506.5,816c0,0.1,0,0.1,0,0.2c-0.4,3.9-13.6,7.1-29.9,7.1s-29.5-3.2-29.8-7.1c0-0.1,0-0.1,0-0.2
			c0-4,13.4-7.3,29.9-7.3S506.5,812,506.5,816z"/>
		<path class="Lampst2" d="M506.5,816.2v16l0,0c0,1.4-1.7,2.8-4.7,3.9c-5.3,2-14.6,3.3-25.2,3.3c-10.9,0-20.4-1.4-25.7-3.5
			c-2.7-1.1-4.2-2.4-4.2-3.7l0,0v-16l0,0c0.4,3.9,13.6,7.1,29.8,7.1S506.1,820.2,506.5,816.2L506.5,816.2z"/>
		<path class="Lampst1" d="M501.7,884.8h-0.3c0.1,0.2,0.1,0.3,0.1,0.5c0,2.9-11.4,5.2-25.4,5.2s-25.4-2.3-25.4-5.2c0-0.2,0-0.3,0.1-0.5
			v-48.9c5.2,2.1,14.8,3.5,25.7,3.5c10.6,0,19.8-1.3,25.2-3.3L501.7,884.8L501.7,884.8z"/>
	</g>
	<g>
		<path class="Lampst0" d="M99.2,802.4c0,0.1,0,0.1,0,0.2c-0.4,3.9-13.6,7.1-29.9,7.1s-29.5-3.2-29.8-7.1c0-0.1,0-0.1,0-0.2
			c0-4,13.4-7.3,29.9-7.3S99.2,798.4,99.2,802.4z"/>
		<path class="Lampst2" d="M99.2,802.6v16l0,0c0,1.4-1.7,2.8-4.7,3.9c-5.3,2-14.6,3.3-25.2,3.3c-10.9,0-20.4-1.4-25.7-3.5
			c-2.7-1.1-4.2-2.4-4.2-3.7l0,0v-16l0,0c0.4,3.9,13.6,7.1,29.8,7.1S98.8,806.5,99.2,802.6L99.2,802.6z"/>
		<path class="Lampst1" d="M94.5,871.2h-0.3c0.1,0.2,0.1,0.3,0.1,0.5c0,2.9-11.4,5.2-25.4,5.2s-25.4-2.3-25.4-5.2c0-0.2,0-0.3,0.1-0.5
			v-48.9c5.2,2.1,14.8,3.5,25.7,3.5c10.6,0,19.8-1.3,25.2-3.3L94.5,871.2L94.5,871.2z"/>
	</g>
</g>
<g id="glass">
	<path class="Lampst3" d="M282.3,378.1c0,0.1,0,0.2-0.1,0.3c-0.8,0.9-4.8,1.6-9.6,1.6s-8.8-0.7-9.6-1.6c-0.1-0.1-0.1-0.2-0.1-0.3
		c0-1.1,4.3-2,9.7-2S282.3,377,282.3,378.1z"/>
	<path class="Lampst4" d="M421.1,252.7c0,34.7-13.2,67.4-31,92.9c0,0-11.4,17-19.4,25.8c-9.4,10.5-39.2,33.7-39.3,51.1v154.2
		c0,1.9-12.2,3.6-30.1,4.5v-205c-0.1-14.8-12.8-26.9-28.6-26.9c-15.8,0-28.5,12-28.6,26.9v205c-17.7-0.9-29.6-2.5-29.6-4.4v-155
		c-0.4-5.6-2.7-17.9-13.5-28.2c-14-13.2-34.1-31.6-43.6-45c-21.8-26-34.9-59.4-34.9-95.9c-0.2-82.5,66.7-149.4,149.2-149.4
		S421.1,170.2,421.1,252.7z"/>
	<path class="Lampst4" d="M301.2,376.1v205c-5.8,0.3-12.1,0.5-18.9,0.6V378.4h-0.1c0.1-0.1,0.1-0.2,0.1-0.3c0-1.1-4.3-2-9.7-2
		c-5.4,0-9.7,0.9-9.7,2c0,0.1,0,0.2,0.1,0.3h-0.1v203.3c-6.8-0.1-13.1-0.3-18.9-0.6v-205c0.1-14.8,12.8-26.9,28.6-26.9
		C288.4,349.3,301.1,361.3,301.2,376.1z"/>
	<path class="Lampst4" d="M282.3,378.4v203.3c-3.1,0-6.2,0.1-9.4,0.1c-3.4,0-6.7,0-10-0.1V378.4h0.1c0.8,0.9,4.8,1.6,9.6,1.6
		S281.4,379.3,282.3,378.4L282.3,378.4z"/>
	<line class="Lampst5" x1="293.5" y1="357.6" x2="328.5" y2="271.8"/>
	<line class="Lampst5" x1="252.6" y1="357.2" x2="217.6" y2="271.4"/>
</g>
<g id="glass-lit" class="Lampst6 hidden">
	
		<radialGradient id="SVGID_1_" cx="275.2" cy="740.9" r="243.4" gradientTransform="matrix(1 0 0 -1 0 988)" gradientUnits="userSpaceOnUse">
		<stop  offset="0.4784" style="stop-color:#F2FF61;stop-opacity:0.9"/>
		<stop  offset="0.7264" style="stop-color:#F5FF83;stop-opacity:0.514"/>
		<stop  offset="0.8531" style="stop-color:#F7FFA1;stop-opacity:0.3966"/>
		<stop  offset="1" style="stop-color:#FFFFFF;stop-opacity:0"/>
	</radialGradient>
	
		<radialGradient id="SVGID_2_" cx="275.2" cy="740.9" r="243.9" gradientTransform="matrix(1 0 0 -1 0 988)" gradientUnits="userSpaceOnUse">
		<stop  offset="0" style="stop-color:#F2FF61;stop-opacity:0.9"/>
		<stop  offset="1" style="stop-color:#FFFFFF;stop-opacity:0"/>
	</radialGradient>
	<circle class="Lampst7" cx="275.2" cy="247.1" r="243.4"/>
	<path class="Lampst8" d="M421.1,252.7c0,34.7-13.2,67.4-31,92.9c0,0-11.4,17-19.4,25.8c-9.4,10.5-39.2,33.7-39.3,51.1v154.2
		c0,1.9-12.2,3.6-30.1,4.5v-205c-0.1-14.8-12.8-26.9-28.6-26.9c-15.8,0-28.5,12-28.6,26.9v205c-17.7-0.9-29.6-2.5-29.6-4.4v-155
		c-0.4-5.6-2.7-17.9-13.5-28.2c-14-13.2-34.1-31.6-43.6-45c-21.8-26-34.9-59.4-34.9-95.9c-0.2-82.5,66.7-149.4,149.2-149.4
		S421.1,170.2,421.1,252.7z"/>
	<path class="Lampst9" d="M282.3,377.4c0,0.1,0,0.2-0.1,0.3c-0.8,0.9-4.8,1.6-9.6,1.6s-8.8-0.7-9.6-1.6c-0.1-0.1-0.1-0.2-0.1-0.3
		c0-1.1,4.3-1.9,9.7-1.9S282.3,376.3,282.3,377.4z"/>
	<path class="Lampst8" d="M301.2,376.1v205c-5.8,0.3-12.1,0.5-18.9,0.6V378.4h-0.1c0.1-0.1,0.1-0.2,0.1-0.3c0-1.1-4.3-2-9.7-2
		c-5.4,0-9.7,0.9-9.7,2c0,0.1,0,0.2,0.1,0.3h-0.1v203.3c-6.8-0.1-13.1-0.3-18.9-0.6v-205c0.1-14.8,12.8-26.9,28.6-26.9
		C288.4,349.3,301.1,361.3,301.2,376.1z"/>
	<path class="Lampst8" d="M282.3,378.4v203.3c-3.1,0-6.2,0.1-9.4,0.1c-3.4,0-6.7,0-10-0.1V378.4h0.1c0.8,0.9,4.8,1.6,9.6,1.6
		S281.4,379.3,282.3,378.4L282.3,378.4z"/>
	<line class="Lampst10" x1="293.5" y1="357.6" x2="328.5" y2="271.8"/>
	<line class="Lampst10" x1="252.6" y1="357.2" x2="217.6" y2="271.4"/>
</g>
<path id="filament" class="Lampst5 hidden" d="M222.3,271.7c0,0,4.5-4.9,7.5-4.5s5.6,4.9,10.9,4.9c5.3,0,3.8-2,10.1-2.5s6,4.5,11.3,4.5
	s11.3-2.9,16.2-2.9s10.5,4.9,13.2,4.9c2.6,0,4.1-4.5,10.9-4.5s11.3,3.3,13.2,4.5c1.9,1.2,8.6-3.7,8.6-3.7"/>
</svg>
