<svg id="stuff" xmlns="http://www.w3.org/2000/svg" xmlns:xlink="http://www.w3.org/1999/xlink" viewBox="0 0 420.7 420.01"><defs><style>.factory-1{fill:none;stroke:#010101;}.factory-1,.factory-22,.factory-23,.factory-24,.factory-25,.factory-26,.factory-27,.factory-28{stroke-miterlimit:10;}.factory-1,.factory-27{stroke-width:0.5px;}.factory-2,.factory-7{fill:#f7c801;}.factory-2{opacity:0.54;}.factory-3{fill:url(#linear-gradient);}.factory-4{fill:url(#linear-gradient-2);}.factory-5{fill:url(#linear-gradient-3);}.factory-6{fill:url(#linear-gradient-4);}.factory-8{fill:#a7a7a4;}.factory-9{fill:#585a56;}.factory-10{fill:#7c7d7a;}.factory-11{fill:#2e2e2e;}.factory-12{fill:#49301a;}.factory-13{font-size:14.87px;fill:#c1bdbc;font-family:ArialMT, Arial;}.factory-14{fill:#69b03f;}.factory-15{fill:#26642c;}.factory-16{font-size:22.75px;}.factory-16,.factory-17,.factory-18,.factory-19,.factory-20,.factory-21{fill:#fff;font-family:MyriadPro-Regular, Myriad Pro;}.factory-17{font-size:22.82px;}.factory-18{font-size:23.1px;}.factory-19{font-size:24.12px;}.factory-20{font-size:26.04px;}.factory-21{font-size:28px;}.factory-22{fill:#a5542b;}.factory-22,.factory-23{stroke:#9c4b21;}.factory-23{fill:#ce7045;}.factory-24{fill:#882929;stroke:#882929;}.factory-25{fill:#5a1f1f;stroke:#5a1f1f;}.factory-26{fill:#d8a607;stroke:#d8a607;}.factory-27{fill:#b6603f;stroke:#ce7045;}.factory-28{fill:#cec4c3;stroke:#b2afae;}</style><linearGradient id="linear-gradient" x1="67.62" y1="148.57" x2="67.62" y2="139.76" gradientUnits="userSpaceOnUse"><stop offset="0" stop-color="#fff"/><stop offset="0.02" stop-color="#fafafa"/><stop offset="0.39" stop-color="#919191"/><stop offset="0.69" stop-color="#434343"/><stop offset="0.9" stop-color="#131313"/><stop offset="1"/></linearGradient><linearGradient id="linear-gradient-2" x1="67.62" y1="153.61" x2="67.62" y2="144.79" xlink:href="#linear-gradient"/><linearGradient id="linear-gradient-3" x1="67.62" y1="158.65" x2="67.62" y2="149.83" xlink:href="#linear-gradient"/><linearGradient id="linear-gradient-4" x1="67.84" y1="159.14" x2="67.84" y2="155.5" xlink:href="#linear-gradient"/></defs><g id="bulb"><path class="factory-1" d="M275.49,234.29s0-25.45-2.55-24.82-3.78,1.89-2.52,3.15,14.48.63,14.48.63,3.78-3.15-1.26-3.78.42,24.88.42,24.88" transform="translate(-211.93 -94.28)"/><path class="factory-2" d="M268.75,237.41S264.82,225,258.59,218c0,0-16.64-30,19.75-37.7,0,0,36-.78,23,37,0,0-9.78,11.82-10.16,21Z" transform="translate(-211.93 -94.28)"/><ellipse class="factory-3" cx="67.62" cy="144.16" rx="12.28" ry="4.41"/><ellipse class="factory-4" cx="67.62" cy="149.2" rx="12.28" ry="4.41"/><ellipse class="factory-5" cx="67.62" cy="154.24" rx="12.28" ry="4.41"/><ellipse class="factory-6" cx="67.84" cy="157.32" rx="5.06" ry="1.82"/><g id="rays"><rect class="factory-7" x="263.49" y="157.2" width="29.6" height="4.41" rx="2.2" transform="translate(225.76 -213.17) rotate(90)"/><rect class="factory-7" x="300.65" y="169.16" width="29.6" height="4.41" rx="2.2" transform="translate(447.75 -24.79) rotate(135)"/><rect class="factory-7" x="229.05" y="166.85" width="29.6" height="4.41" rx="2.2" transform="translate(-20.97 -217.2) rotate(45)"/></g></g><g id="bank"><rect class="factory-8" x="16.11" y="303.04" width="107.39" height="73.45"/><polygon class="factory-9" points="0.83 303.04 68.56 252.66 137.12 303.04 0.83 303.04"/><rect class="factory-9" x="0.83" y="303.04" width="136.3" height="6.61"/><rect class="factory-10" x="5.78" y="322.87" width="17.35" height="47.08"/><rect class="factory-10" x="113.17" y="322.87" width="17.35" height="47.08"/><circle class="factory-9" cx="14.46" cy="318.33" r="8.67"/><circle class="factory-9" cx="121.84" cy="318.33" r="8.67"/><rect class="factory-11" y="369.95" width="28.91" height="6.61"/><rect class="factory-11" x="107.39" y="369.95" width="28.91" height="6.61"/><rect class="factory-11" x="42.13" y="369.95" width="55.34" height="3.3"/><rect class="factory-11" x="36.35" y="373.26" width="66.08" height="3.3"/><path id="door" class="factory-12" d="M265.36,464.24l.27-35.52s0-12.4,14.87-13.22,15.69,14.87,15.69,14.87v33.87Z" transform="translate(-211.93 -94.28)"/><text id="bank_title" class="factory-13" transform="translate(46.96 290.79)">BANK</text></g><g id="money"><polygon class="factory-14" points="381.76 359.27 257.98 361.13 256.8 325.12 380.58 323.26 381.76 359.27"/><polygon class="factory-14" points="265.98 330.77 371.78 329.19 372.57 353.49 266.78 355.07 265.98 330.77"/><path class="factory-15" d="M581.78,425.5l.66,20.3-101.79,1.53L480,427l101.8-1.52m3.87-4.06-109.8,1.65.93,28.3,109.79-1.65-.92-28.3Z" transform="translate(-211.93 -94.28)"/><ellipse class="factory-15" cx="319.27" cy="341.96" rx="17.14" ry="11.61"/><text class="factory-16" transform="matrix(1.48, -0.02, 0.03, 1, 310.05, 349.43)">$</text><polygon class="factory-14" points="378.86 356.07 255.37 350.02 259.21 314.1 382.7 320.15 378.86 356.07"/><polygon class="factory-14" points="264.98 344.56 267.57 320.31 373.11 325.49 370.51 349.74 264.98 344.56"/><path class="factory-15" d="M481.29,416.68l101.54,5-2.17,20.27-101.53-5,2.16-20.27m-3.57-4.18-3,28.24,109.54,5.37,3-28.24L477.72,412.5Z" transform="translate(-211.93 -94.28)"/><ellipse class="factory-15" cx="319.06" cy="334.85" rx="17.14" ry="11.61"/><text class="factory-17" transform="matrix(1.47, 0.07, -0.11, 0.99, 308.84, 341.7)">$</text><polygon class="factory-14" points="379.08 357.92 256.91 344.29 265.55 308.75 387.72 322.38 379.08 357.92"/><polygon class="factory-14" points="267.23 339.46 273.07 315.45 377.43 327.08 371.59 351.1 267.23 339.46"/><path class="factory-15" d="M486.53,411.91,586.88,423.1,582,443.2,481.65,432l4.88-20.1m-3.06-4.36-6.78,27.93,108.36,12.08,6.79-27.93L483.47,407.55Z" transform="translate(-211.93 -94.28)"/><ellipse class="factory-15" cx="322.37" cy="333.1" rx="17.14" ry="11.61"/><text class="factory-18" transform="matrix(1.43, 0.16, -0.24, 0.97, 311.28, 339.3)">$</text><polygon class="factory-14" points="377.47 356.99 260.36 329.76 277.61 295.69 394.72 322.92 377.47 356.99"/><polygon class="factory-14" points="271.79 326.22 283.49 303.12 383.36 326.34 371.65 349.44 271.79 326.22"/><path class="factory-15" d="M496.5,399.71,592.35,422l-9.84,19.43-95.85-22.29,9.84-19.42m-2.15-4.61-13.56,26.78L584.66,446l13.57-26.77L494.35,395.1Z" transform="translate(-211.93 -94.28)"/><ellipse class="factory-15" cx="327.66" cy="326.12" rx="17.14" ry="11.61"/><text class="factory-19" transform="matrix(1.32, 0.31, -0.45, 0.89, 315.19, 330.97)">$</text><polygon class="factory-14" points="376.95 358.04 270.66 315.02 297.92 284.11 404.21 327.12 376.95 358.04"/><polygon class="factory-14" points="283 313.3 301.62 292.18 391.97 328.74 373.35 349.86 283 313.3"/><path class="factory-15" d="M514.12,388.84l86.42,35-15.82,17.94-86.42-35,15.82-17.94M513,384.07l-21.43,24.3,94.28,38.16,21.43-24.3L513,384.07Z" transform="translate(-211.93 -94.28)"/><ellipse class="factory-15" cx="337.62" cy="320.87" rx="17.14" ry="11.61"/><text class="factory-20" transform="matrix(1.11, 0.45, -0.66, 0.75, 323.94, 323.88)">$</text><polygon class="factory-14" points="375.53 357.98 282.6 302.56 317.72 275.53 410.66 330.95 375.53 357.98"/><polygon class="factory-14" points="295.22 302.54 319.42 283.92 398.16 330.87 373.96 349.5 295.22 302.54"/><path class="factory-15" d="M531.49,380.61l75,44.76-20.79,16L510.7,396.61l20.79-16m-.28-4.83L503.6,397,586,446.19l27.6-21.25-82.43-49.16Z" transform="translate(-211.93 -94.28)"/><ellipse class="factory-15" cx="346.86" cy="316.58" rx="17.14" ry="11.61"/><text class="factory-21" transform="matrix(0.9, 0.54, -0.79, 0.61, 332.6, 317.85)">$</text></g><g id="factory"><g id="factory-body"><rect class="factory-22" x="325.76" y="72.29" width="63.69" height="91.8" rx="12"/><path class="factory-23" d="M486.28,223.09h-.83c-2.54,0-4.61-.9-4.61-2V149c0-1.11,2.07-2,4.61-2h.83c2.54,0,4.61.91,4.61,2v72C490.89,221.22,490.86,221.93,486.28,223.09Z" transform="translate(-211.93 -94.28)"/><path class="factory-23" d="M506,221.37h-.89c-2.74,0-5-1-5-2.19V140.91c0-1.21,2.23-2.19,5-2.19H506c2.73,0,5,1,5,2.19v78.27C511,219.33,511,220.1,506,221.37Z" transform="translate(-211.93 -94.28)"/><rect class="factory-24" x="252.13" y="123.09" width="113.73" height="41" rx="12"/><rect class="factory-25" x="252.13" y="154.55" width="113.73" height="9.54" rx="3.5"/><rect class="factory-26" x="261.43" y="132.63" width="11.86" height="9.03" rx="3.31"/><rect class="factory-26" x="282.31" y="132.63" width="11.86" height="9.03" rx="3.31"/><rect class="factory-26" x="302.17" y="132.63" width="11.86" height="9.03" rx="3.31"/><rect class="factory-26" x="323.57" y="132.63" width="11.86" height="9.03" rx="3.31"/><rect class="factory-26" x="345.75" y="132.63" width="11.86" height="9.03" rx="3.31"/><rect class="factory-23" x="332.6" y="86.21" width="48.74" height="5.67" rx="2.08"/><rect class="factory-23" x="332.6" y="98.85" width="48.74" height="5.67" rx="2.08"/><rect class="factory-23" x="332.6" y="111.48" width="48.74" height="5.67" rx="2.08"/><rect class="factory-27" x="296.31" y="45.77" width="2.76" height="77.32" rx="1.01"/><rect class="factory-27" x="275.87" y="54.75" width="3.09" height="68.33" rx="1.13"/></g><g id="factory-smoke"><circle class="factory-28" cx="273.93" cy="42.12" r="5.8"/><circle class="factory-28" cx="294.17" cy="40.19" r="3.9"/><circle class="factory-28" cx="283.6" cy="32.45" r="7.74"/><ellipse class="factory-28" cx="300.49" cy="27.87" rx="9.41" ry="8.45"/><ellipse class="factory-28" cx="320.54" cy="27.79" rx="10.64" ry="9.81"/><circle class="factory-28" cx="341.64" cy="21.22" r="13.31"/><circle class="factory-28" cx="365.46" cy="15.9" r="15.4"/></g></g><g id="arrows"><path d="M249.9,244.11l-15,6.63,3.18,3a74.32,74.32,0,0,0,1.06,103.34A2,2,0,0,0,242,354.3a70.31,70.31,0,0,1-1-97.75l2.95,2.82Z" transform="translate(-211.93 -94.28)"/><path d="M443.92,146.49l-7.37-14.64-2.88,3.32a74.33,74.33,0,0,0-103.15,6.21,2,2,0,1,0,3,2.7,70.32,70.32,0,0,1,97.58-5.89l-2.67,3.09Z" transform="translate(-211.93 -94.28)"/><path d="M609,384.07l13.83-8.78-3.58-2.53a74.34,74.34,0,0,0-16.39-102,2,2,0,0,0-2.39,3.21A70.32,70.32,0,0,1,616,370.45l-3.33-2.35Z" transform="translate(-211.93 -94.28)"/><path d="M355,490.5l8.74,13.86,2.54-3.58a74.32,74.32,0,0,0,102.08-16.09,2,2,0,1,0-3.19-2.4,70.33,70.33,0,0,1-96.57,15.23l2.36-3.32Z" transform="translate(-211.93 -94.28)"/></g></svg>