<svg id="first_page" data-name="first page" xmlns="http://www.w3.org/2000/svg" viewBox="-10 0 200 174.44"><defs><style>.firstPagemodal-1{fill:#968a38;}.firstPagemodal-2{fill:#b5a543;}.firstPagemodal-3{fill:#9d9945;}.firstPagemodal-4{fill:#5c5c5b;}.firstPagemodal-22,.firstPagemodal-5{fill:none;}.firstPagemodal-6{fill:#a9a291;}.firstPagemodal-12,.firstPagemodal-7{fill:#a9d1d1;}.firstPagemodal-8{fill:#91b3b4;}.firstPagemodal-9{fill:#ffda00;}.firstPagemodal-10{fill:#ef7b00;}.firstPagemodal-11{fill:#e6312f;}.firstPagemodal-12{opacity:0.5;isolation:isolate;}.firstPagemodal-13{fill:#35332a;}.firstPagemodal-14{fill:#f2e9c7;}.firstPagemodal-15{fill:#f1d564;}.firstPagemodal-16{fill:#d1b747;}.firstPagemodal-17{fill:#ceb344;}.firstPagemodal-18{fill:#635e5a;}.firstPagemodal-19{fill:#827d79;}.firstPagemodal-20{fill:#473414;}.firstPagemodal-21{fill:#d0cbb6;}.firstPagemodal-22{stroke:#1d1d1b;stroke-miterlimit:10;}</style></defs><g id="gass-lamp"><g id="oil_lamp_body" data-name="oil lamp body"><rect class="firstPagemodal-1" x="148.45" y="128.32" width="14.56" height="1.72"/><path class="firstPagemodal-1" d="M210,383.16H154a2.58,2.58,0,0,1-2.56-2.56v7.84A2.58,2.58,0,0,0,154,391h56a2.57,2.57,0,0,0,2.56-2.56V380.6A2.58,2.58,0,0,1,210,383.16Z" transform="translate(-38.38 -216.56)"/><path class="firstPagemodal-2" d="M210,358.82h-5.24a1.37,1.37,0,0,1-1.35-1.37v-1.62a2.56,2.56,0,0,0-2.56-2.56H163.16a2.56,2.56,0,0,0-2.56,2.56v1.59a1.37,1.37,0,0,1-1.33,1.4H154a2.57,2.57,0,0,0-2.56,2.56V380.6a2.58,2.58,0,0,0,2.56,2.56h56a2.58,2.58,0,0,0,2.56-2.56V361.38A2.57,2.57,0,0,0,210,358.82Z" transform="translate(-38.38 -216.56)"/><path class="firstPagemodal-3" d="M182,377.49c-7.09,0-13.78-1.77-18.82-5s-8-7.71-8-12.44a1.11,1.11,0,0,1,1-1.13,1.08,1.08,0,0,1,1.15,1V360c0,8.47,11.1,15.35,24.74,15.35s24.69-6.86,24.74-15.3a1.1,1.1,0,0,1,.84-1.09,1.07,1.07,0,0,1,1.27.82.82.82,0,0,1,0,.22c0,4.77-2.87,9.21-8.05,12.51A35.47,35.47,0,0,1,182,377.49Z" transform="translate(-38.38 -216.56)"/><path class="firstPagemodal-3" d="M193.56,358.94h-22a2.58,2.58,0,0,1-2.56-2.56l4.74-18.51c0-1.41-9.25-6.54-7.84-6.54h32.18c1.41,0-7.67,5.13-7.67,6.54l5.71,18.51A2.57,2.57,0,0,1,193.56,358.94Z" transform="translate(-38.38 -216.56)"/><path class="firstPagemodal-4" d="M215.72,389a5.34,5.34,0,0,1-3.25-.76,1.6,1.6,0,0,1-.53-1.72.57.57,0,0,1,1.12.24.06.06,0,0,0,0,0c-.07.24-.08.5.42.73,2.29,1.06,9.18-.54,10-1.41V358.93a2,2,0,0,0-1.87-2l-4.64,2-.56.35c-2.51,1.57-3.27,2.05-3.27,4.44a.57.57,0,1,1-1.14,0c0-3,1.27-3.82,3.8-5.42l.67-.41,4.9-2.08h.12a3.14,3.14,0,0,1,3.13,3.14v27.22c0,.62-.67,1-1.17,1.26A21.48,21.48,0,0,1,215.72,389Zm7.72-2.81Z" transform="translate(-38.38 -216.56)"/><line class="firstPagemodal-5" x1="134.07" y1="126.38" x2="154.5" y2="126.38"/><rect class="firstPagemodal-1" x="131.84" y="135.06" width="24.47" height="0.86"/><rect class="firstPagemodal-1" x="134.91" y="122.64" width="17.61" height="0.86"/><path class="firstPagemodal-1" d="M202.55,343.91A3.25,3.25,0,0,1,201.4,346a3.25,3.25,0,0,1-1.15-2.13c0-1.18.52-1,1.15-1S202.55,342.74,202.55,343.91Z" transform="translate(-38.38 -216.56)"/><path class="firstPagemodal-1" d="M202.55,343.91A3.25,3.25,0,0,1,201.4,346a3.25,3.25,0,0,1-1.15-2.13c0-1.18.52-1,1.15-1S202.55,342.74,202.55,343.91Z" transform="translate(-38.38 -216.56)"/><path class="firstPagemodal-1" d="M202.55,347.77a3.25,3.25,0,0,0-1.15-2.12,3.25,3.25,0,0,0-1.15,2.12c0,1.18.52,1,1.15,1S202.55,349,202.55,347.77Z" transform="translate(-38.38 -216.56)"/><path class="firstPagemodal-6" d="M188.63,315.55c0,8.45-.29,9.42-6.69,9.42s-6.07-1-6.07-9.42,6.06-18.14,6.06-18.14S188.63,307.09,188.63,315.55Z" transform="translate(-38.38 -216.56)"/><path class="firstPagemodal-7" d="M185.94,323.55a35.53,35.53,0,0,0,12.86-2.29v-3.74a3.48,3.48,0,0,0-3.49-3.44H168.57a3.48,3.48,0,0,0-3.49,3.44v3.34a36.18,36.18,0,0,0,13.9,2.7Z" transform="translate(-38.38 -216.56)"/><path class="firstPagemodal-7" d="M178.91,327.07a36.21,36.21,0,0,1-13.83-2.66v5.18a3.48,3.48,0,0,0,3.49,3.44h26.74a3.48,3.48,0,0,0,3.49-3.44v-4.85a35.64,35.64,0,0,1-12.92,2.33Z" transform="translate(-38.38 -216.56)"/><path class="firstPagemodal-8" d="M185.94,323.55h-7a36,36,0,0,1-13.9-2.7v3.56a36.21,36.21,0,0,0,13.83,2.66h7a35.67,35.67,0,0,0,12.92-2.33v-3.49A35.7,35.7,0,0,1,185.94,323.55Z" transform="translate(-38.38 -216.56)"/></g><path id="yellow_flame_lamp" data-name="yellow flame lamp" class="firstPagemodal-9" d="M191.39,297.17c-1.12,8.46-5.41,9.68-11.14,8.92s-9-5.57-7.89-14,12-16.6,12-16.6S192.52,288.72,191.39,297.17Z" transform="translate(-38.38 -216.56)"/><path id="orange_flame_lamp" data-name="orange flame lamp" class="firstPagemodal-10" d="M191.52,295.89c1.11,7.39-2.2,9.47-7.21,10.22s-8.95-2.5-10.05-9.9,6-16.89,6-16.89S190.42,288.49,191.52,295.89Z" transform="translate(-38.38 -216.56)"/><path id="red_flame_lamp" data-name="red flame lamp" class="firstPagemodal-11" d="M188.48,300.19c-1.1,5.9-4.15,6.6-8.15,5.86s-6.13-4.24-5-10.14,9-11.22,9-11.22S189.58,294.3,188.48,300.19Z" transform="translate(-38.38 -216.56)"/><path id="glas" class="firstPagemodal-12" d="M185.81,323.55H179c-12.56,0-23.46-6.31-24.55-14a4.58,4.58,0,0,1,.26-2.2L163.85,282c3.53-9.76,5.39-18.37,5.27-28.09,0-2.87.39-8.16.12-11l-.33-26.05,23.65-.22L192,238.43c-.12,4,.5,7.77.71,11.77.61,11.9,5,24.12,9.13,35.87l7.56,21.55a4.67,4.67,0,0,1,.23,2.13C208.6,317.44,198.33,323.55,185.81,323.55Z" transform="translate(-38.38 -216.56)"/></g><g id="candle"><path id="yellow_flame" data-name="yellow flame" class="firstPagemodal-9" d="M114.49,339.36c-.8,6.05-3.87,6.92-8,6.37s-6.45-4-5.64-10,8.56-11.87,8.56-11.87S115.3,333.31,114.49,339.36Z" transform="translate(-38.38 -216.56)"/><path id="orange_flame" data-name="orange flame" class="firstPagemodal-10" d="M114.59,338.43c.79,5.29-1.58,6.78-5.17,7.31s-6.4-1.79-7.19-7.08,4.32-12.08,4.32-12.08S113.8,333.14,114.59,338.43Z" transform="translate(-38.38 -216.56)"/><path id="red_flame" data-name="red flame" class="firstPagemodal-11" d="M112.41,341.51c-.79,4.22-3,4.72-5.83,4.19s-4.38-3-3.6-7.25,6.44-8,6.44-8S113.19,337.29,112.41,341.51Z" transform="translate(-38.38 -216.56)"/><g id="candle_body" data-name="candle body"><path class="firstPagemodal-13" d="M108.05,341h0a1.61,1.61,0,0,1,1.61,1.61v6.54a1.61,1.61,0,0,1-1.61,1.61h0a1.61,1.61,0,0,1-1.61-1.61v-6.54A1.61,1.61,0,0,1,108.05,341Z" transform="translate(-38.38 -216.56)"/><path class="firstPagemodal-14" d="M127,375.23a3.33,3.33,0,0,0-1.58.39,3,3,0,0,0-5.4-1.45,3.88,3.88,0,1,0-.08,6.71,3.26,3.26,0,0,0,4.6.45l.25-.22a3.36,3.36,0,1,0,4.43-5.05,3.39,3.39,0,0,0-2.22-.83Z" transform="translate(-38.38 -216.56)"/><path class="firstPagemodal-14" d="M118.71,368.16v-3.91a1.65,1.65,0,0,0-1.32-1.64,1.63,1.63,0,0,0-1.91,1.3c0,.1,0,.2,0,.3v6.71h0a.58.58,0,0,1-.06.26,2.68,2.68,0,1,0,4.27-.73A3.22,3.22,0,0,1,118.71,368.16Z" transform="translate(-38.38 -216.56)"/><path class="firstPagemodal-14" d="M117.45,359.34v-9.89a1.26,1.26,0,0,0-1.11-1.27,1.24,1.24,0,0,0-1.35,1.11s0,.08,0,.12v12.42a2.36,2.36,0,1,0,3.36-.93A1.84,1.84,0,0,1,117.45,359.34Z" transform="translate(-38.38 -216.56)"/><path class="firstPagemodal-15" d="M102.82,352.12V352h0A.81.81,0,0,1,102.82,352.12Z" transform="translate(-38.38 -216.56)"/><path class="firstPagemodal-16" d="M98.91,351.21v.91h0v5.17a2,2,0,0,0,2,1.95h0a2,2,0,0,0,2-1.95v-2.87a2,2,0,0,0,2,2h0a2,2,0,0,0,2-2v-1.24A1.21,1.21,0,0,1,108,352h8.33v-.75Zm3.91.91a.81.81,0,0,0,0-.16h0Z" transform="translate(-38.38 -216.56)"/><path class="firstPagemodal-17" d="M98.91,370.08v9.83h17.37v-9a13.46,13.46,0,0,1-8.2,2.88A13.72,13.72,0,0,1,98.91,370.08Z" transform="translate(-38.38 -216.56)"/><path class="firstPagemodal-15" d="M116.16,352H108a1.21,1.21,0,0,0-1.22,1.21v1.25a2,2,0,0,1-2,2h0a2,2,0,0,1-2-2v2.87a2,2,0,0,1-2,1.95h0a2,2,0,0,1-2-1.95v12.79a13.72,13.72,0,0,0,9.17,3.68,13.44,13.44,0,0,0,8.2-2.88V352Z" transform="translate(-38.38 -216.56)"/><path class="firstPagemodal-14" d="M116.16,347.91H99a1.65,1.65,0,0,0-1.65,1.65h0a1.65,1.65,0,0,0,1.37,1.62.19.19,0,0,1,.15.19h0v5.17a2,2,0,0,0,2,1.95h0a2,2,0,0,0,2-1.95v-2.87a2,2,0,0,0,2,2h0a2,2,0,0,0,2-2v-1.24a1.21,1.21,0,0,1,1.21-1.22h8.22a1.66,1.66,0,0,0,1.65-1.65h0A1.65,1.65,0,0,0,116.16,347.91Zm-13.34,3.46a1,1,0,0,0,0-.17h0Z" transform="translate(-38.38 -216.56)"/><path class="firstPagemodal-18" d="M135.66,379.14h-5.32a2.41,2.41,0,0,1,1.21,1.82,2.33,2.33,0,0,1-1.12,1.75h5.22a1.26,1.26,0,0,0,1.26-1.26V380.4A1.25,1.25,0,0,0,135.66,379.14Z" transform="translate(-38.38 -216.56)"/><path class="firstPagemodal-19" d="M131.56,381a2.43,2.43,0,0,0-1.22-1.82H82.58a1.26,1.26,0,0,0-1.25,1.26v1.05a1.27,1.27,0,0,0,1.25,1.26h47.86A2.34,2.34,0,0,0,131.56,381Z" transform="translate(-38.38 -216.56)"/><path class="firstPagemodal-17" d="M109.2,364.47h0a1.61,1.61,0,0,1,1.61,1.61v8.45a1.61,1.61,0,0,1-1.61,1.6h0a1.61,1.61,0,0,1-1.61-1.6v-8.45A1.61,1.61,0,0,1,109.2,364.47Z" transform="translate(-38.38 -216.56)"/><path class="firstPagemodal-17" d="M112.49,361.9h0a1.68,1.68,0,0,1,1.68,1.68v10.87a1.68,1.68,0,0,1-1.68,1.68h0a1.68,1.68,0,0,1-1.68-1.68V363.58A1.68,1.68,0,0,1,112.49,361.9Z" transform="translate(-38.38 -216.56)"/><path class="firstPagemodal-17" d="M108.05,356.29h0a1.61,1.61,0,0,1,1.61,1.61v3.35a1.61,1.61,0,0,1-1.61,1.61h0a1.61,1.61,0,0,1-1.61-1.61V357.9A1.61,1.61,0,0,1,108.05,356.29Z" transform="translate(-38.38 -216.56)"/></g></g><g id="torch"><g id="body_torch" data-name="body torch"><path class="firstPagemodal-20" d="M62.28,295.72c-6.24,49.6-3.35,90.5-7.47,90.5s-.15-41.05-7.47-90.5c-2.68-18.08,6.15-16.55,6.9-12.5C56.64,296.08,66.45,262.54,62.28,295.72Z" transform="translate(-38.38 -216.56)"/><path class="firstPagemodal-21" d="M63.92,281.63c.73,2-.28,6.39-1.91,7.36-.87.53-.89-4.6-2.22-3.94-1.57.77-1,4.59-3.07,6-1.67,1.17-2.3-4.63-3.55-4.17-1.66.6-4.43,5-5.25,4.27s-1.14-2.09-1.09-4.11a12.53,12.53,0,0,1,.59-4.73c2.09-5.28,3.15-4,8.72-4.35C61.13,277.72,61.8,275.89,63.92,281.63Z" transform="translate(-38.38 -216.56)"/><path class="firstPagemodal-22" d="M47.17,283.16l7.18,1.53a7.2,7.2,0,0,0,1.54.18h0a7.63,7.63,0,0,0,1.65-.23L64.16,283" transform="translate(-38.38 -216.56)"/></g><path id="yellow_torch" data-name="yellow torch" class="firstPagemodal-9" d="M68.25,268.45c-.87,6.81-3.94,15.95-14.55,14.54C46.44,282,43,269.8,41.17,262.05c-.85-3.57,3.78-.05,4.44-5,.42-3.16-8.47-7.23-6-9.12,2.59-2,12.42-3.61,16.06-4.56,4.35-1.13-.72,13.9,3.12,13.68,4.87-.27,6.52-13.68,6.52-13.68s10.19,3.68,10,11.52C75.18,258.09,68.83,263.93,68.25,268.45Z" transform="translate(-38.38 -216.56)"/><path id="orange_torch" data-name="orange torch" class="firstPagemodal-10" d="M66.56,265.62c1.81,12.1-3.61,15.48-11.8,16.71S53.68,272.66,42.83,267c-3.24-1.68-4.73-5-4.4-7.13.39-2.48,8.1,1.15,9-1.2,1.09-2.84-4.54-11.6-3.29-13.81,2.15-3.82,9,6.36,9,6.36s8.34-9.84,12-5.68c1.61,1.82-6.57,9.57-5,11.81s7.65-3.64,11.09-4.43C73.8,252.32,66.22,263.34,66.56,265.62Z" transform="translate(-38.38 -216.56)"/><path id="red_torch" data-name="red torch" class="firstPagemodal-11" d="M67,274c-.41,2.19-4.25,1-5,2.35-2.43,4.72-3.3,8.17-8.34,7.23-4-.75-1.74-6.05-2.92-10.08-.74-2.51-6-2.79-5.31-6.5.61-3.27,4.37-1.24,6.47-2.46a38.8,38.8,0,0,0,7.39-5.75s-1.64,4.73.69,8.95C61.29,270,67.65,270.54,67,274Z" transform="translate(-38.38 -216.56)"/></g></svg>