<?xml version="1.0" encoding="utf-8"?>
<!-- Generator: Adobe Illustrator 23.1.0, SVG Export Plug-In . SVG Version: 6.00 Build 0)  -->
<svg version="1.1" id="Layer_1" xmlns="http://www.w3.org/2000/svg" xmlns:xlink="http://www.w3.org/1999/xlink" x="0px" y="0px"
	 viewBox="0 0 1687 615" style="enable-background:new 0 0 1687 615;" xml:space="preserve">
<style type="text/css">
	.st0{display:none;opacity:0.5;fill:#FFFFFF;enable-background:new    ;}
	.st1{fill:#F2F2F2;}
	.st2{fill:#AAAAAA;}
	.st3{fill:#D2D2D2;}
	.st4{fill:#8F8F8D;}
	.st5{fill:#BFBFBF;}
	.st6{fill:#F0F0F0;}
	.st7{fill:#3A3A3A;}
	.st8{opacity:0.68;fill:#494949;enable-background:new    ;}
	.st9{fill:#D5D5D5;}
	.st10{opacity:0.41;fill:#1C1C1C;enable-background:new    ;}
	.st11{fill:#EFEFED;}
	.st12{fill:#929292;}
	.st13{fill:#989833;}
	.st14{fill:#738234;}
	.st15{fill:#748234;}
	.st16{fill:none;stroke:#000000;stroke-miterlimit:10;}
	.st17{fill:#B5CB50;}
	.st18{fill:#431F0E;}
	.st19{fill:#CCCC66;}
	.st20{fill:#EA8A42;}
	.st21{fill:#954E22;}
	.st22{fill:#E7B47D;}
	.st23{fill:#E6B37C;}
	.st24{fill:#A75E31;}
	.st25{fill:#B88858;}
	.st26{fill:#BE8F63;}
	.st27{fill:#DBA976;}
	.st28{fill:#D0A06F;}
	.st29{fill:#282828;}
	.st30{fill:#393834;}
	.st31{fill:url(#SVGID_1_);}
	.st32{fill:url(#SVGID_2_);}
	.st33{fill:url(#SVGID_3_);}
	.st34{fill:url(#SVGID_4_);}
	.st35{fill:url(#SVGID_5_);}
	.st36{fill:url(#SVGID_6_);}
	.st37{fill:url(#SVGID_7_);}
	.st38{fill:url(#SVGID_8_);}
	.st39{fill:#58321D;}
	.st40{fill:#F7F6F2;}
	.st41{fill:url(#SVGID_9_);}
</style>
<g id="platinum" class="material">
	<rect x="-9.4" y="395.7" class="st0" width="309.1" height="224.2"/>
	<g>
		<polygon class="st1" points="231.3,441.5 193.1,466.4 67,429.7 175.4,426 		"/>
		<g>
			<g>
				<path class="st2" d="M147.4,423.6c0.8,0.3,1.2,0.7,1.2,1.1s-0.4,0.9-1.4,1.3c-2.3,1.2-4.7,1.1-5.9,0.6c-0.1,0-0.2-0.1-0.2-0.1
					l-0.4-0.4l-2.7,1.2c-1.4,0.7-1.4,0.8-0.6,1.2l-0.6,0.2l-3.2-1.3l0.6-0.2c1.2,0.3,1.3,0.3,2.8-0.3l6.6-3.1
					c1.4-0.7,1.3-0.7,0.6-1.1l0.4-0.2L147.4,423.6z M141.2,425.7c0,0.1,0.2,0.3,0.6,0.4c0.8,0.3,2.3,0.4,4.3-0.6
					c1.8-0.9,1.5-1.4,0.7-1.9c-0.3-0.1-0.7-0.2-0.8-0.1c-0.2,0-0.4,0.1-0.9,0.3L141.2,425.7z"/>
				<path class="st2" d="M149.1,431.3c-0.6,0.2-2.7,1-3.3,1.2l-5.5-2.3l0.4-0.2c1.2,0.3,1.4,0.3,2.9-0.3l6.3-3.2
					c1.3-0.7,1.2-0.8,0.4-1.2l0.4-0.2l3,1.2l-0.4,0.2c-1-0.3-1.2-0.3-2.4,0.3l-6.5,3.3c-1,0.6-1.2,0.7-0.6,1c0,0,0.9,0.3,0.9,0.4
					c0.6,0.2,0.9,0.2,1.5,0.1c0.8-0.1,1.7-0.3,2.4-0.6L149.1,431.3z"/>
				<path class="st2" d="M152.1,435l0.4-0.2c0.9,0.2,1.2,0.2,1.7-0.2c0.4-0.4,1-1,1.8-1.7l-2.5-1c-0.9,0.3-1.7,0.6-2.5,0.9
					c-1.3,0.4-1.3,0.7-0.4,1.1l-0.4,0.2l-2.8-1.1l0.4-0.2c0.9,0.2,1.2,0.2,3.1-0.4l10.3-3.5l0.4,0.1c-1.7,1.7-3.6,3.6-5.5,5.5
					c-1,1-1,1.1-0.2,1.5l-0.4,0.2L152.1,435z M159,429.8c-1.7,0.6-3.3,1.2-4.9,1.8l2.2,0.9L159,429.8z"/>
				<path class="st2" d="M168.1,434c0.3-0.3,0.6-0.7,0.7-0.9c0.1-0.3,0.1-0.4-0.6-0.7L167,432l-6.8,4.4c-1.2,0.8-1.2,0.9-0.1,1.4
					l-0.4,0.3l-3.6-1.4l0.4-0.2c1.2,0.4,1.5,0.3,2.7-0.4l7-4.4l-1.1-0.4c-0.7-0.2-0.9-0.2-1.5-0.1c-0.4,0.1-0.9,0.3-1.5,0.6
					l-0.3-0.1c0.9-0.6,1.9-1,2.7-1.4l0.2,0.1c-0.1,0.2,0,0.3,0.3,0.4l4.6,1.8c0.3,0.1,0.4,0.1,0.9,0l0.3,0.1
					c-0.6,0.4-1.5,1.1-2.2,1.5L168.1,434z"/>
				<path class="st2" d="M162.6,439.3l0.4-0.3c1.2,0.3,1.3,0.3,2.5-0.6l5.4-3.8c1.1-0.8,1.1-0.9,0.2-1.3l0.3-0.2l3.1,1.2l-0.3,0.2
					c-1.1-0.3-1.2-0.3-2.3,0.4l-5.4,3.8c-1.2,0.9-1.2,1-0.2,1.4l-0.4,0.3L162.6,439.3z"/>
				<path class="st2" d="M183.8,438.4c-0.9-0.2-1.2-0.2-1.8,0.2c-0.4,0.3-0.9,0.7-2.1,1.7l-5.2,4.2l-0.6-0.2l1.5-7.5l-3.2,2.4
					c-1.2,0.9-1.8,1.3-2.2,1.7c-0.7,0.6-0.6,0.9,0.2,1.2l-0.4,0.3l-3.1-1.2l0.4-0.3c0.9,0.2,1.3,0.2,2.1-0.2
					c0.4-0.3,1.1-0.8,2.3-1.7l3.3-2.4c0.3-0.2,0.6-0.4,0.6-0.7c0.1-0.3-0.1-0.4-0.6-0.8l0.3-0.2l1.8,0.7l-1.1,7.1l3.1-2.5
					c1.1-0.9,1.7-1.3,2-1.7c0.6-0.4,0.3-0.7-0.6-1.1l0.3-0.2L183.8,438.4L183.8,438.4z"/>
				<path class="st2" d="M193.3,442.2c-0.8-0.2-1.3-0.2-1.8,0.2c-0.2,0.2-0.8,0.7-1.8,1.7l-1.2,1.2c-1.2,1.1-2.3,2-3.8,2.3
					c-1.2,0.3-2.3,0.1-3.2-0.2c-0.8-0.3-1.4-0.8-1.5-1.4c-0.2-0.9,0.3-1.8,1.8-3l3-2.7c1-0.9,1-1,0.1-1.4l0.3-0.2l3.2,1.2l-0.3,0.2
					c-1-0.3-1.2-0.3-2.2,0.6l-3,2.5c-1.8,1.5-1.9,2.9-0.3,3.5c1.9,0.8,3.5,0,5.5-1.9l1.2-1.1c1-1,1.4-1.3,1.7-1.7
					c0.4-0.4,0.3-0.8-0.6-1.2l0.3-0.2l3,1.2L193.3,442.2z"/>
				<path class="st2" d="M194.3,452.4l0.3-0.3c1.2,0.3,1.3,0.3,2.4-1l4.2-4.6c-2.9,1.5-7.7,4.2-9.2,5.1l-0.3-0.1
					c0.6-1.3,2.1-5.1,3.1-7.4c-4.1,3.8-5,4.6-5.2,4.9c-0.7,0.7-0.4,0.9,0.4,1.3l-0.3,0.3l-3.2-1.3l0.3-0.3c0.9,0.2,1.3,0.2,2.1-0.3
					c0.6-0.4,1-0.9,5.3-4.7c0.6-0.6,0.7-0.8-0.3-1.2l0.3-0.3l2.2,0.9l-2.5,6.7l8.3-4.4l2.2,0.9l-0.2,0.3c-1.2-0.3-1.4-0.3-2.1,0.4
					l-3.8,4.4c-1.1,1.3-1.1,1.4,0,2L198,454L194.3,452.4z"/>
			</g>
		</g>
		<polygon class="st3" points="40.2,486.7 165.9,528.3 173.6,574.3 24.1,522.3 		"/>
		<polygon class="st4" points="206,498.5 69.1,464.5 40.2,486.7 165.9,528.3 		"/>
		<polygon class="st5" points="253.5,467.2 268,501.7 225.2,536 214.4,485.6 		"/>
		<polygon class="st6" points="237.9,460 253.5,467.2 238.6,474 		"/>
		<polygon class="st7" points="225.2,536 216.1,495.3 206,498.5 218.7,535 		"/>
		<polygon class="st8" points="155.7,554.7 104,543.3 131.6,517.3 140,519.9 		"/>
		<polygon class="st5" points="165.9,528.3 206,498.5 223.1,536.3 173.6,574.3 		"/>
		<polygon class="st9" points="67,429.7 52,464.5 203.1,511.2 193.1,466.4 		"/>
		<polygon class="st10" points="163.3,461.3 163.7,462.2 181,497.7 170.9,502.4 166.5,522.5 140.1,519.9 131.6,517.3 		"/>
		<polygon class="st11" points="94.2,392.7 20.6,528.3 80.7,551 155.9,408.3 		"/>
		<polygon class="st2" points="98.5,584.5 80.2,549.6 20.6,528.3 26.4,558.1 		"/>
		<polygon class="st5" points="155.9,408.3 186.3,419.7 98.5,584.5 80.7,551 		"/>
		<polygon class="st12" points="231.3,441.5 193.1,466.4 203.1,511.2 249,479.5 		"/>
		<g>
			<g>
				<path class="st2" d="M69.2,491.5c0.4-0.8,0.9-1.3,1.4-1.7c0.6-0.2,1.2-0.1,1.9,0.4c1.7,1.2,1.5,3.2,1,4.3c0,0.1-0.1,0.2-0.2,0.3
					l-0.6,0.7l1.8,1.4c1,0.8,1,0.7,1.8-0.3l0.3,0.2l-1.7,3.4l-0.3-0.2c0.4-1.1,0.3-1.2-0.6-2l-4.3-3.5c-0.9-0.8-1-0.7-1.5,0.2
					l-0.3-0.2L69.2,491.5z M72.4,495.2c0.1-0.1,0.3-0.3,0.6-0.8c0.4-0.8,0.6-2.1-0.9-3.1c-1.2-0.9-2.1-0.4-2.5,0.6
					c-0.1,0.3-0.2,0.6-0.2,0.8c0,0.1,0.1,0.3,0.4,0.6L72.4,495.2z"/>
				<path class="st2" d="M79.5,485.7c0.3,0.3,1.4,1.5,1.8,1.9l-2.9,5.7l-0.3-0.2c0.4-1.2,0.4-1.3-0.6-2.1l-4.5-3.3
					c-0.9-0.7-1-0.6-1.5,0.2l-0.3-0.2l1.5-3.1l0.3,0.2c-0.3,1-0.4,1.1,0.6,1.8l4.6,3.3c0.8,0.6,1,0.6,1.3-0.1c0,0,0.4-0.9,0.6-1
					c0.3-0.7,0.3-0.9,0.1-1.3c-0.1-0.6-0.6-1.1-0.9-1.5L79.5,485.7z"/>
				<path class="st2" d="M84.3,481.4l-0.3-0.2c0.3-0.9,0.2-1-0.3-1.2c-0.6-0.1-1.3-0.2-2.2-0.6l-1.3,2.5c0.4,0.6,0.8,1,1.2,1.5
					c0.7,0.8,0.9,0.7,1.4-0.2l0.3,0.2l-1.4,2.9l-0.3-0.2c0.3-0.9,0.3-1.1-0.6-2.2l-4.9-6.4l0.1-0.4c2.3,0.4,4.9,1,7.4,1.5
					c1.2,0.2,1.4,0.2,2-0.6l0.3,0.2L84.3,481.4z M77.4,478.6c0.8,1,1.7,2.1,2.4,3l1.1-2.2L77.4,478.6z"/>
				<path class="st2" d="M82.7,469.1c-0.4-0.1-0.9-0.1-1.2-0.1c-0.4,0-0.6,0.1-0.9,0.8L80,471l5.9,3.2c1,0.6,1.2,0.6,1.9-0.6
					l0.3,0.2l-1.8,3.5l-0.3-0.2c0.6-1.2,0.4-1.3-0.6-1.9l-5.9-3.3l-0.6,1.1c-0.3,0.7-0.3,0.9-0.1,1.2c0.1,0.2,0.4,0.6,0.8,0.9
					l-0.2,0.3c-0.7-0.4-1.3-1-2-1.4l0.1-0.2c0.3,0,0.4-0.1,0.6-0.4l2.3-4.5c0.1-0.3,0.1-0.4,0-0.8l0.1-0.2c0.6,0.3,1.4,0.7,2.1,1
					L82.7,469.1z"/>
				<path class="st2" d="M89.5,471l-0.3-0.2c0.4-1.1,0.3-1.2-0.7-1.8l-4.9-2.4c-1-0.6-1.1-0.4-1.7,0.4l-0.3-0.1l1.5-3.1l0.3,0.1
					c-0.3,1-0.3,1.1,0.7,1.7L89,468c1.1,0.6,1.2,0.4,1.8-0.4l0.3,0.2L89.5,471z"/>
				<path class="st2" d="M88,454.8c-0.3,0.8-0.3,1.1,0.2,1.3c0.4,0.2,0.9,0.4,2.1,0.9l5.3,2.2l-0.2,0.4l-9.3,2.2l3.1,1.4
					c1.2,0.6,1.8,0.8,2.1,0.9c0.7,0.3,1,0.1,1.5-0.8l0.3,0.1l-1.4,3l-0.3-0.2c0.3-0.8,0.2-1.2-0.3-1.5c-0.4-0.2-1-0.6-2.1-1.1
					l-3.2-1.4c-0.3-0.1-0.6-0.2-0.9-0.1c-0.4,0.1-0.6,0.3-1,0.8l-0.3-0.1l0.9-1.8l8.8-2.2l-3.2-1.3c-1.2-0.4-1.8-0.7-2.1-0.8
					c-0.6-0.2-0.9,0-1.4,0.9l-0.3-0.1l1.4-2.9L88,454.8z"/>
				<path class="st2" d="M92.4,446c-0.3,0.8-0.2,1.1,0.3,1.3c0.3,0.1,0.8,0.3,2,0.7l1.4,0.4c1.3,0.4,2.3,1,2.9,2
					c0.4,0.8,0.2,1.8-0.2,2.5c-0.3,0.7-0.9,1.4-1.7,1.8c-1,0.6-2.1,0.6-3.6-0.1l-3.3-1.2c-1.1-0.4-1.2-0.3-1.8,0.6l-0.3-0.1l1.5-3
					l0.3,0.1c-0.4,1-0.3,1.1,0.8,1.5l3.2,1.2c2,0.8,3.4,0.3,4.2-1.2c0.9-1.8-0.1-2.7-2.3-3.4l-1.3-0.4c-1.2-0.4-1.7-0.6-2.1-0.7
					c-0.6-0.1-0.9,0-1.4,0.9l-0.3-0.1L92,446H92.4z"/>
				<path class="st2" d="M104.3,441.3l-0.4-0.1c0.4-1,0.3-1.1-1.2-1.4l-5.6-1.5c2,1.7,5.2,4.2,6.2,5.1l-0.1,0.3
					c-1.5,0-6,0.3-8.8,0.4c4.5,1.7,5.6,2,6,2.1c0.8,0.2,1.1,0,1.5-0.9l0.4,0.1l-1.4,2.9l-0.4-0.1c0.2-0.8,0.2-1.1-0.4-1.4
					c-0.6-0.2-1.1-0.4-5.7-2.2c-0.7-0.2-0.9-0.2-1.5,0.8l-0.3-0.1l1-2l8.1-0.7l-5.4-4.6l1-2l0.3,0.1c-0.3,1-0.3,1.2,0.6,1.4l5.3,1.2
					c1.5,0.3,1.7,0.3,2.3-0.8l0.4,0.1L104.3,441.3z"/>
			</g>
		</g>
	</g>
</g>
<g id="bamboo" class="material">
	<path class="st13" d="M1183.8,390.3C1183.8,390.4,1183.8,390.4,1183.8,390.3c-3,3.4-9.1,2.8-13.7-1.4l0,0c0,0,0,0-0.1-0.1
		c-4.5-4.2-5.9-10.3-3-13.7c0.2-0.3,0.6-0.6,0.8-0.8c3.2-2.5,8.6-1.7,12.8,2.2C1185.3,380.7,1186.8,386.9,1183.8,390.3z"/>
	<path class="st14" d="M1184.3,390.5l-11.6,11.9l-33.1,33.7v0.2c-6.2-1.1-8.8-3.8-9.9-6.2l40.5-41.3c0,0,0,0,0.1,0.1l0,0
		C1175.1,393.1,1181.4,393.7,1184.3,390.5L1184.3,390.5z"/>
	<path class="st15" d="M1132.4,443.4l-5.1,5.3l-72.3,73.7c-3.2-0.4-8.8-1.7-10.7-5.3h0.1l74.5-76c-3.9-5.1-4.4-9.8-4.3-12.7l0.6-0.6
		v-4.2c0.6,4.7,2.1,8.4,4.2,11.2C1122.9,439.8,1128.1,442.2,1132.4,443.4z"/>
	<path class="st15" d="M1052.6,530.2l-5.9,0.6l-4.4,4.4l-35.7,36.3l-0.1-0.1c-3.1,2.9-8.9,2.2-13.5-1.7c0.2-0.4,0.6-0.9,0.9-1.2
		l0.1-0.1c0.1-0.1,0.2-0.2,0.3-0.3l0,0l40.6-40.6c-4-5.6-4.3-10.3-3.9-13l1.4-1.4c0,0.1,0,0.3,0.1,0.4v0.1c0,0.1,0.1,0.3,0.1,0.4
		c0,0.1,0.1,0.3,0.1,0.6c0,0.1,0.1,0.3,0.1,0.4c0,0,0,0,0,0.1c0.1,0.2,0.1,0.4,0.2,0.8c0,0.1,0,0.2,0.1,0.3c0,0.1,0.1,0.2,0.1,0.3
		c0.1,0.2,0.1,0.4,0.2,0.7c0,0.1,0.1,0.3,0.2,0.6s0.2,0.6,0.3,0.9c0.1,0.2,0.1,0.3,0.2,0.6c0,0,0,0,0,0.1c0.1,0.2,0.2,0.3,0.3,0.6
		c0.1,0.2,0.2,0.4,0.3,0.6l0,0C1039.7,528.3,1048.5,529.9,1052.6,530.2z"/>
	<path class="st16" d="M1032.5,512.9L1032.5,512.9L1032.5,512.9L1032.5,512.9z"/>
	<path class="st17" d="M1034.9,527.3L994.3,568l0,0c-0.1,0.1-0.2,0.2-0.3,0.3l-0.1,0.1c-0.3,0.4-0.6,0.8-0.9,1.2
		c-0.1,0-0.1-0.1-0.2-0.1l0,0c-4.7-4.2-6.2-10.4-3.2-13.8c0.1-0.1,0.3-0.3,0.4-0.4l0,0l41-41C1030.6,517.2,1031,521.7,1034.9,527.3z
		"/>
	<path class="st16" d="M1032.5,512.9L1032.5,512.9L1032.5,512.9L1032.5,512.9z"/>
	<path class="st17" d="M1054.9,522.4l-0.3,0.4l0,0l-0.3,4.1c-10.5-0.7-15.6-5.5-17.9-10.7c-2.4-5.3-2.1-10.8-2-12.5l5.6,0.8
		l74.4-75.9c-0.1,2.8,0.4,7.6,4.3,12.7l-74.5,76h-0.1C1046.1,520.7,1051.8,521.9,1054.9,522.4z"/>
	<path class="st17" d="M1139.6,436.3l-0.2,4.2c-9.5-0.4-14.8-4.4-17.8-8.8c-3.2-5-3.6-10.5-3.6-12.7h5.9l43.9-44.7l0.1,0.1
		c-0.3,0.2-0.6,0.4-0.9,0.8c-3,3.4-1.7,9.5,3.1,13.7l-40.5,41.2l0,0C1130.9,432.6,1133.5,435.2,1139.6,436.3z"/>
	<path class="st18" d="M1054.3,526.8l-0.2,3.2l-1.5,0.1l0,0c-4.1-0.3-12.8-1.9-17.6-9.9l0,0c-0.1-0.2-0.2-0.4-0.3-0.6
		c-0.1-0.2-0.2-0.3-0.3-0.6c0,0,0,0,0-0.1c-0.1-0.1-0.1-0.3-0.2-0.6s-0.2-0.6-0.3-0.9c-0.1-0.1-0.1-0.3-0.2-0.6
		c-0.1-0.2-0.1-0.4-0.2-0.7c0-0.1-0.1-0.2-0.1-0.3c0-0.1-0.1-0.2-0.1-0.3c-0.1-0.2-0.1-0.4-0.2-0.8c0,0,0,0,0-0.1
		c0-0.1-0.1-0.3-0.1-0.4c0-0.1-0.1-0.3-0.1-0.6c0-0.1-0.1-0.3-0.1-0.4v-0.1c0-0.1,0-0.3-0.1-0.4l0,0v-0.1c-0.4-2.8-0.6-5.9-0.2-9.4
		v-0.1c0.1-0.4,2.2,0,2.2,0s0,0.1,0,0.4c-0.1,1.7-0.4,7.2,2,12.5C1038.7,521.3,1043.8,526.1,1054.3,526.8z"/>
	<path class="st16" d="M1032.5,512.9L1032.5,512.9L1032.5,512.9L1032.5,512.9z"/>
	<path class="st18" d="M1139.9,440.5c0,4.1,0,4.1,0,4.1s-3.3,0-7.5-1.2c-4.3-1.2-9.5-3.6-13.1-8.5c-2.1-2.9-3.6-6.5-4.2-11.2
		c-0.2-1.5-0.2-3.2-0.2-5.1c0.4-1.2,3.2-0.8,3.2-0.8s0,0.3,0,1c0,2.2,0.4,7.8,3.6,12.7c3,4.5,8.3,8.4,17.8,8.8
		C1139.6,440.5,1139.7,440.5,1139.9,440.5z"/>
	<path class="st16" d="M1044.2,517.1c0-0.1,0-0.1-0.1-0.2"/>
	<path class="st19" d="M1181.1,387.3L1181.1,387.3c-1.8,2-5.4,1.7-8.2-0.9l0,0l0,0c-2.8-2.5-3.5-6.2-1.8-8.2
		c0.1-0.1,0.3-0.3,0.4-0.4c1.9-1.5,5.1-1,7.7,1.3C1182.1,381.6,1183,385.2,1181.1,387.3z"/>
</g>
<g id="beard" class="material">
	<path id="path" d="M1422.5,118.4c12,49.1-3,69.9-5.9,73c1.2-6.5-1.5-9.4-1.5-9.4s-8.8,32-43.2,47.3c1.8-3.8,5.3-10.8,4.5-20
		c-4.3,26.9-37.3,30.4-44.5,44.7c-19.3-21.4-40.1-19-44.5-44.5c-0.8,9.1,2.8,16.1,4.5,20c-34.3-15.1-43.2-47.3-43.2-47.3
		s-2.8,2.8-1.5,9.4c-17.4-21-8-64.2-5.9-73c-1,1.8-4.5,8.1-5.9,12.6c-5.3-31,19.3-66.9,9.1-97.2c4.7,3.8,7.7,15.3,9.8,26.9
		c12.5,88.8,48-3.3,77.3,26.9c32.9-30.5,64.8,64.6,78.3-32c2.1-10,4.5-17.9,8.8-22c-10.4,29.7,14.5,66.6,9.1,97.2
		C1427.4,124.7,1424.8,124.2,1422.5,118.4z"/>
</g>
<g id="fishing-line" class="material">
	<path class="st20" d="M941.7,221.2c-17.4,10.6-35.6,15.2-53.3,15.2c-26.9,0-52.3-10.9-70.6-27.8c-15.5-14.5-25.3-32.9-27.7-52.1
		c-2.7-21.5,3.9-43.4,18.9-63.2l0.1-0.1c19.7-22.4,45.4-30.9,70.6-23.6c23.7,7,42.7,27.4,46.3,49.8c3.2,20.5-6.5,39.4-27.3,53.3
		l-0.3,0.2c-22.3,11.2-43.5,1.5-53.8-11.9c-11-14.6-10.2-32.9,2.3-46.6l0.1-0.1c7.7-8,17.9-11,27.9-8.5c9.8,2.5,17.8,10,20.3,19.1
		c2.3,8.3-0.2,16.6-7,23.4l-0.1,0.1c-9.3,8.1-20.9,5.4-27.1-1.1c-5.4-5.7-7.4-15.1,0.3-23.2l4.1,3.9c-5.6,5.9-3.9,11.8-0.3,15.5
		c4.5,4.7,12.6,6.5,19.2,0.8c6.7-6.8,6.7-13.6,5.5-17.9c-2-7.1-8.5-13.1-16.3-15.1c-4.7-1.2-13.8-1.9-22.4,7
		c-12.8,14.1-9.4,29.6-1.9,39.4c8.8,11.7,27.3,20,46.7,10.4c18.8-12.6,27.5-29.6,24.7-47.8c-3.1-20.3-20.5-39-42.3-45.3
		c-23.1-6.7-46.6,1.1-64.7,21.8c-32.7,43.4-16,85.1,8.3,107.8c28.4,26.5,75.4,37.2,116.7,12L941.7,221.2z"/>
	<path d="M989.9,85.8c-32.7-8.1-44.2,24.7-44.3,31.4c-0.3,32.7,17.1,40.1,14.5,57.9c-3.2,20.8-15.6,33.3-15.6,33.3
		c-4.3-2.8-26.8,16.1-5.7,22.5c11.3,3.4,12.9-21.1,9.7-19.8c0,0,15.6-25.7,16-37.4c0.7-17.2-10-25-11.6-49.2
		c-1.5-24,18.4-40.4,35-33.5c16.6,6.9,23,16.2,18,40c-3.9-4.5-7.5-7.4-9.3-8.6c2.9,2.4,10.5,12.5-1,46.5
		C1005.9,141.7,1033.4,96.6,989.9,85.8z M945.6,221c-2.1,3.5-5.7,5.3-8.2,3.9s-2.8-5.5-0.7-9.1s5.7-5.3,8.2-3.9
		C947.4,213.4,947.6,217.4,945.6,221z"/>
	<path d="M931.1,275.6c-0.4-0.3-0.8-0.6-0.9-0.7C930.3,275.1,930.6,275.3,931.1,275.6z"/>
	<path class="st20" d="M957,209.8c-5,4.3-10.2,8.2-15.5,11.4l-3.2-4.6c5.1-3.1,10.2-6.7,15-11L957,209.8z"/>
</g>
<g id="cardboard" class="material">
	<polygon class="st21" points="404.7,122.4 405.7,171.8 350.5,166.4 352.2,140 	"/>
	<polygon class="st22" points="431.2,87 404.7,122.4 495.2,141.9 518.9,102.5 	"/>
	<polygon class="st23" points="404.7,122.4 333.1,150.7 302.2,101.8 378,82.6 	"/>
	<polygon class="st24" points="495.2,141.9 404.7,122.4 405.1,167.3 492.4,217.2 	"/>
	<polygon class="st25" points="295.4,126.8 333.1,150.7 427.4,171.8 393.3,149.8 	"/>
	<polygon class="st26" points="333.1,150.7 335.7,225.4 427.8,257.3 427.4,171.8 	"/>
	<polygon class="st27" points="427.4,171.8 495.2,141.9 492.4,217.2 427.8,257.3 	"/>
	<polygon class="st28" points="530.8,108.8 495.2,141.9 427.4,171.8 466.9,135.6 	"/>
</g>
<g id="rubber" class="material">
	<path class="st16" d="M678.8,471.4c0,23.7-7.4,44.3-18,53.3c-9.3-10.4-15.6-30-15.6-52.8c0-23.2,6.5-43.3,16.1-53.4
		C671.7,428,678.8,448.1,678.8,471.4z"/>
	<path class="st29" d="M692,362.8c-4.1-1.8-8.3-2.8-12.6-2.8c-4.4,0-8.7,1-12.8,2.9c-18.9,8.5-34.2,35.1-40.7,70
		c-2.3,12-3.5,25.1-3.5,38.6s1.2,26.6,3.5,38.6c6.4,33.6,20.8,59.5,38.8,68.9c4.7,2.5,9.7,3.9,14.9,3.9c3.5,0,7.1-0.7,10.4-1.9
		c26.6-9.5,46.8-55,46.8-109.7C736.6,418.3,717.5,373.9,692,362.8z M675.6,532.5c-5.4,0-10.4-2.8-14.8-7.6
		c-9.3-10.4-15.6-30-15.6-52.8c0-23.2,6.5-43.3,16.1-53.4c4.2-4.4,9.1-7,14.2-7c16.8,0,30.4,27.1,30.4,60.4S692.4,532.5,675.6,532.5
		z"/>
	<path class="st16" d="M678.8,471.4c0,23.7-7.4,44.3-18,53.3c-9.3-10.4-15.6-30-15.6-52.8c0-23.2,6.5-43.3,16.1-53.4
		C671.7,428,678.8,448.1,678.8,471.4z"/>
	<path d="M705.9,472.1c0,33.3-13.6,60.4-30.4,60.4c-5.4,0-10.4-2.8-14.8-7.6c10.6-9.1,18-29.6,18-53.3c0-23.3-7.1-43.5-17.4-52.8
		c4.2-4.4,9.1-7,14.2-7C692.4,411.7,705.9,438.8,705.9,472.1z"/>
	<path class="st30" d="M615.7,569.6l0.2,3.2c-27.4-17.1-46.5-56.4-46.5-102.3c0-51.2,24-94.4,56.6-107.4l-0.9,1.8l-10.6,5l0.8,3.2
		l-8.9,7.1l0.6,5.6l-10.2,10.3l1.8,7.7l-8.7,10.4l2.5,7.6l-7.3,13.3l2.7,8.8l-5.4,11.7l4,9.3l-5.3,14.8l6.1,7.5l-4,12.8l6.3,8
		l-2.4,13l7,7l-0.7,11.3l8,5.5l-0.9,8.7l7.7,6.5l0.1,6.4L615.7,569.6z"/>
	<path class="st30" d="M660,585.4c-8.5-0.7-16.8-2.5-23.3-4.3c-2-0.3-4-0.9-6-1.4l-1.4-2.3l-7.7-2.3l-1.7-6.1l-6.7-3l-0.7-8.1
		l-7.4-4.7l0.7-10.4l-7.7-3.3l0.7-13l-6.7-6.7l4-12.4l-7.7-7.7l4.7-13.5l-6.4-8.1c0,0,5.4-12.4,5.4-13.7c0-1.3-4.3-8.4-4.3-8.4
		l6.1-13.5l-3-7.4l7.1-13.5l-2-9.1l6.7-8.1l-1.3-9.1l10.4-9.1l-1-6.1l7.7-6.4v-4l11.4-6.1v-2.2c1-0.3,2-0.7,3.1-0.9c0,0,0,0,0.1,0
		c9.5-2.8,17.9-4.1,25.2-4.5l-0.1,0.1l-7.2,1.1l-2.9,5.5l-10.6,5l0.8,3.2l-8.9,7.1l0.6,5.5l-10.2,10.3l1.8,7.7l-8.7,10.4l2.5,7.6
		l-7.3,13.3l2.7,8.8l-5.4,11.7l4,9.3l-5.3,14.8l6.1,7.5l-4,12.9l6.3,8l-2.4,13l7,7l-0.7,11.3l8,5.5l-0.9,8.7l7.7,6.5l0.1,6.4
		l7.5,3.3l0.2,4.2l8.6,4.3c0,0,0.7,4.5,2.2,4.3c1.5-0.3,2.4-0.9,2.4-0.9l4,2.7L660,585.4z"/>
	<path class="st30" d="M679.4,583c3.5,0,7.1-0.7,10.4-1.9c-7.3,3.8-16,4.9-24.7,4.6l-5.3-5.2h-5l-3-5l-7.7-2.3l-1.7-6.1l-6.7-3
		L635,556l-7.4-4.7l0.7-10.4l-7.7-3.3l0.7-13l-6.7-6.7l4-12.4l-7.7-7.7l4.7-13.5l-6.4-8.1c0,0,5.4-12.4,5.4-13.7
		c0-1.3-4.4-8.4-4.4-8.4l6.1-13.5l-3-7.4l7.1-13.5l-2-9.1l6.7-8.1l-1.3-9.1l10.4-9.1l-1-6.1l7.7-6.4v-4l11.4-6.1v-3.9l9.7-1v-0.7
		c15.6-0.2,25.5,3.8,30.3,6.4c-4.1-1.8-8.3-2.8-12.6-2.8c-4.4,0-8.7,1-12.8,2.9c-18.9,8.5-34.1,35.1-40.7,70
		c-2.3,12-3.5,25.1-3.5,38.6c0,13.6,1.2,26.6,3.5,38.6c6.4,33.6,20.8,59.5,38.8,68.9C669.3,581.6,674.2,583,679.4,583z"/>
	<path d="M665.1,585.7c-1.3,0-2.7-0.1-4-0.2c-0.3,0-0.8-0.1-1.1-0.1l-4.2-3l-4-2.7c0,0-0.9,0.6-2.4,0.9s-2.2-4.3-2.2-4.3l-8.6-4.3
		l-0.2-4.2l-7.5-3.3l-0.1-6.4l-7.7-6.5l0.9-8.7l-8-5.5l0.7-11.3l-7-7l2.4-13l-6.3-8l4-12.9l-6-7.5L609,463l-4-9.3l5.4-11.7l-2.7-8.8
		l7.3-13.3l-2.5-7.6l8.7-10.4l-1.8-7.7l10.2-10.3l-0.6-5.5l8.9-7.1l-0.8-3.2l10.6-5l2.9-5.5l7.2-1.1l0.1-0.1c1.3-0.1,2.7-0.1,4-0.1
		v0.8l-9.7,1v4.3l-11.4,6.1v4l-7.6,6.4l1,6.1l-10.4,9.1l1.3,9.1l-6.7,8.1l2,9.1l-7.1,13.5l3,7.4l-6.3,13.1c0,0,4.3,7.1,4.3,8.4
		s-5.4,13.7-5.4,13.7l6.4,8.1l-4.7,13.5l7.7,7.7l-4,12.4l6.7,6.7l-0.7,13l7.7,3.3l-0.7,10.4l7.4,4.7l0.7,8.1l6.7,3l1.7,6.1l7.7,2.3
		l3,5h5L665.1,585.7z"/>
	<path d="M630.6,579.7c-5.1-1.5-10-3.9-14.7-6.8l-0.2-3.2l-7.5-3.3l-0.1-6.4l-7.7-6.5l0.9-8.7l-8-5.5L594,528l-7-7l2.4-13l-6.3-8
		l4-12.8l-6.1-7.5l5.3-14.8l-4-9.3l5.4-11.7l-2.7-8.8l7.3-13.3l-2.5-7.6l8.7-10.4l-1.8-7.7l10.2-10.3l-0.6-5.6l8.9-7.1l-0.8-3.2
		l10.6-5l0.9-1.8c1.1-0.4,2.3-0.9,3.4-1.2v2.2l-11.4,6.1v4l-7.7,6.4l1,6.1l-10.4,9.1l1.3,9.1l-6.7,8.1l2,9.1l-7.1,13.5l3,7.4
		l-6.1,13.5c0,0,4.3,7.1,4.3,8.4s-5.4,13.7-5.4,13.7l6.4,8.1l-4.7,13.5l7.7,7.7l-4,12.4l6.7,6.7l-0.7,13l7.7,3.3l-0.7,10.4l7.4,4.7
		l0.7,8.1l6.7,3l1.7,6.1l7.7,2.3L630.6,579.7z"/>
</g>
<g id="coconut" class="material">
	<g>
		
			<linearGradient id="SVGID_1_" gradientUnits="userSpaceOnUse" x1="1550.049" y1="3.4266" x2="1590.4922" y2="3.4266" gradientTransform="matrix(1 0 0 1 0 400.6383)">
			<stop  offset="0" style="stop-color:#73AC4B"/>
			<stop  offset="0.8127" style="stop-color:#4E6B37"/>
			<stop  offset="0.9771" style="stop-color:#4E6B37"/>
		</linearGradient>
		<polygon class="st31" points="1550,376.8 1571.1,431.3 1590.5,422.7 		"/>
		
			<linearGradient id="SVGID_2_" gradientUnits="userSpaceOnUse" x1="1573.3489" y1="4.4266" x2="1600.2925" y2="4.4266" gradientTransform="matrix(1 0 0 1 0 400.6383)">
			<stop  offset="0" style="stop-color:#73AC4B"/>
			<stop  offset="0.8127" style="stop-color:#4E6B37"/>
			<stop  offset="0.9771" style="stop-color:#4E6B37"/>
		</linearGradient>
		<polygon class="st32" points="1573.3,369 1577,441.1 1600.2,430.6 		"/>
		
			<linearGradient id="SVGID_3_" gradientUnits="userSpaceOnUse" x1="1593.2023" y1="14.3266" x2="1607.4187" y2="14.3266" gradientTransform="matrix(1 0 0 1 0 400.6383)">
			<stop  offset="0" style="stop-color:#73AC4B"/>
			<stop  offset="0.8127" style="stop-color:#4E6B37"/>
			<stop  offset="0.9771" style="stop-color:#4E6B37"/>
		</linearGradient>
		<polygon class="st33" points="1601.5,400.1 1593.2,427.1 1607.4,429.8 		"/>
		
			<linearGradient id="SVGID_4_" gradientUnits="userSpaceOnUse" x1="1444.424" y1="107.0265" x2="1501.5347" y2="107.0265" gradientTransform="matrix(1 0 0 1 0 400.6383)">
			<stop  offset="0" style="stop-color:#73AC4B"/>
			<stop  offset="0.8127" style="stop-color:#4E6B37"/>
			<stop  offset="0.9771" style="stop-color:#4E6B37"/>
		</linearGradient>
		<path class="st34" d="M1446.1,512.6l55.4-14.5l-1.8,19.1c0,0-32.8-0.8-55.4-4.2"/>
		
			<linearGradient id="SVGID_5_" gradientUnits="userSpaceOnUse" x1="1443.6489" y1="117.6266" x2="1528.6489" y2="117.6266" gradientTransform="matrix(1 0 0 1 0 400.6383)">
			<stop  offset="0" style="stop-color:#73AC4B"/>
			<stop  offset="0.8127" style="stop-color:#4E6B37"/>
			<stop  offset="0.9771" style="stop-color:#4E6B37"/>
		</linearGradient>
		<path class="st35" d="M1443.6,535.2l85-4.2l-22.3-29.7C1506.4,501.4,1463.7,523.9,1443.6,535.2z"/>
		
			<linearGradient id="SVGID_6_" gradientUnits="userSpaceOnUse" x1="1469.1489" y1="132.3766" x2="1557.8489" y2="132.3766" gradientTransform="matrix(1 0 0 1 0 400.6383)">
			<stop  offset="0" style="stop-color:#73AC4B"/>
			<stop  offset="0.8127" style="stop-color:#4E6B37"/>
			<stop  offset="0.9771" style="stop-color:#4E6B37"/>
		</linearGradient>
		<path class="st36" d="M1469.1,552.8c0,0,20.5-8.8,30.6-10.5c10-1.8,17.9-2.4,25.7-3.6c7.8-1.2,32.4-11.3,32.4-11.3l-36.8-14.2
			C1521,513.2,1478.4,535.5,1469.1,552.8z"/>
		<path class="st16" d="M1512.5,445.3c0.1-0.6,0.2-1.1,0.2-1.7C1512.8,444.2,1512.7,444.7,1512.5,445.3z"/>
		
			<linearGradient id="SVGID_7_" gradientUnits="userSpaceOnUse" x1="1448.3546" y1="54.3765" x2="1596.908" y2="54.3765" gradientTransform="matrix(1 0 0 1 0 400.6383)">
			<stop  offset="0" style="stop-color:#A1683D"/>
			<stop  offset="7.681940e-02" style="stop-color:#A3693E"/>
			<stop  offset="1" style="stop-color:#000000"/>
		</linearGradient>
		<path class="st37" d="M1587.7,499.7c-19.7,28.7-64.8,31.9-100.8,7.2c-36-24.7-49.1-68-29.5-96.6c19.7-28.7,64.8-31.9,100.8-7.2
			C1594.3,427.8,1607.4,471,1587.7,499.7z"/>
		
			<linearGradient id="SVGID_8_" gradientUnits="userSpaceOnUse" x1="1511.449" y1="93.3266" x2="1651.349" y2="93.3266" gradientTransform="matrix(1 0 0 1 0 400.6383)">
			<stop  offset="0" style="stop-color:#A1683D"/>
			<stop  offset="6.738545e-03" style="stop-color:#B97F4F"/>
			<stop  offset="7.681940e-02" style="stop-color:#A3693E"/>
			<stop  offset="0.4677" style="stop-color:#9F673D"/>
			<stop  offset="1" style="stop-color:#000000"/>
		</linearGradient>
		<path class="st38" d="M1651.3,479.1c-7.4,36.3-35.4,63.4-69,63.4c-39.1,0-70.9-37-70.9-82.5c0-5,0.3-9.8,1.1-14.6
			c-3.1,23.5,21.4,49.4,57.3,59.5c38.1,10.6,74.4-0.7,81.3-25.2C1651.2,479.4,1651.2,479.2,1651.3,479.1z"/>
		<path class="st39" d="M1594.7,415.9c-38.1-10.6-74.4,0.8-81.4,25.3c-0.2,0.8-0.4,1.5-0.6,2.4c-0.1,0.6-0.2,1.1-0.2,1.7l0,0
			c-3.1,23.5,21.4,49.4,57.3,59.5c38.1,10.6,74.4-0.7,81.3-25.2c0-0.2,0.1-0.4,0.1-0.6c0.3-1.5,0.6-3.1,0.8-4.6
			C1654.4,451.1,1630.1,425.7,1594.7,415.9z M1645.3,476.6c-6.3,22.6-39.9,33-74.9,23.2s-58.3-36.1-52-58.6
			c6.3-22.6,39.9-33,74.9-23.2C1628.3,427.7,1651.6,454,1645.3,476.6z"/>
		<path class="st16" d="M1652.1,474.4c-0.1,1.5-0.4,3.1-0.8,4.6C1651.6,477.5,1651.9,476,1652.1,474.4z"/>
		<path class="st40" d="M1645.3,476.6c-6.3,22.6-39.9,33-74.9,23.2s-58.3-36.1-52-58.6c6.3-22.6,39.9-33,74.9-23.2
			C1628.3,427.7,1651.6,454,1645.3,476.6z"/>
		
			<linearGradient id="SVGID_9_" gradientUnits="userSpaceOnUse" x1="1592.9368" y1="28.3695" x2="1576.0081" y2="78.9637" gradientTransform="matrix(1 0 0 1 0 400.6383)">
			<stop  offset="0" style="stop-color:#F2EFEB"/>
			<stop  offset="0.4461" style="stop-color:#E7E2DB"/>
			<stop  offset="0.8639" style="stop-color:#CDC2B3"/>
			<stop  offset="1" style="stop-color:#BFB4A7"/>
		</linearGradient>
		<path class="st41" d="M1625.3,468.7c-4.2,14.9-26.3,21.8-49.4,15.3c-23.1-6.5-38.4-23.7-34.2-38.6c4.2-14.9,26.3-21.8,49.4-15.3
			C1614.1,436.5,1629.5,453.8,1625.3,468.7z"/>
	</g>
</g>
</svg>
