<svg id="oil_lamp" data-name="oil lamp" xmlns="http://www.w3.org/2000/svg" viewBox="0 0 254.73 607.56"><defs><style>.cls-1{fill:#968a38;}.cls-2{fill:#b5a543;}.cls-3{fill:#9d9945;}.cls-4{fill:#5c5c5b;}.cls-5{fill:none;}.cls-6{fill:#a9a291;}.cls-12,.cls-7{fill:#a9d1d1;}.cls-8{fill:#91b3b4;}.cls-9{fill:#ffda00;}.cls-10{fill:#ef7b00;}.cls-11{fill:#e6312f;}.cls-12{opacity:0.5;}</style></defs><g id="oil_lamp_body" data-name="oil lamp body"><rect class="cls-1" x="123.22" y="446.96" width="50.72" height="6"/><path class="cls-1" d="M339.81,703.46H144.88a8.94,8.94,0,0,1-8.91-8.91v27.3a8.94,8.94,0,0,0,8.91,8.92H339.81a8.94,8.94,0,0,0,8.91-8.92v-27.3A8.94,8.94,0,0,1,339.81,703.46Z" transform="translate(-135.97 -123.2)"/><path class="cls-2" d="M339.81,618.7H321.56a4.74,4.74,0,0,1-4.69-4.88v-5.55a8.94,8.94,0,0,0-8.92-8.91H176.73a8.94,8.94,0,0,0-8.91,8.91v5.55a4.75,4.75,0,0,1-4.69,4.88H144.88a8.94,8.94,0,0,0-8.91,8.91v66.94a8.94,8.94,0,0,0,8.91,8.91H339.81a8.94,8.94,0,0,0,8.91-8.91V627.61A8.94,8.94,0,0,0,339.81,618.7Z" transform="translate(-135.97 -123.2)"/><path class="cls-3" d="M242.34,683.71c-24.7,0-48-6.15-65.55-17.33-18-11.45-27.95-26.84-28-43.34a3.85,3.85,0,0,1,3.41-3.92,3.72,3.72,0,0,1,4,3.7c0,29.48,38.65,53.46,86.16,53.46s86-23.9,86.17-53.31a3.83,3.83,0,0,1,2.93-3.78,3.72,3.72,0,0,1,4.5,3.63c0,16.59-10,32.06-28.05,43.56C290.33,677.56,267.05,683.71,242.34,683.71Z" transform="translate(-135.97 -123.2)"/><path class="cls-3" d="M282.63,619.11H206a9,9,0,0,1-8.92-8.91l16.5-64.47c0-4.91-32.21-22.76-27.3-22.76H298.37c4.9,0-26.73,17.85-26.73,22.76l19.91,64.47A8.94,8.94,0,0,1,282.63,619.11Z" transform="translate(-135.97 -123.2)"/><path class="cls-4" d="M359.79,723.67c-4.83,0-9-.74-11.31-2.65a5.59,5.59,0,0,1-1.86-6,2,2,0,1,1,3.87,1c-.22.84-.28,1.72,1.46,2.53,8,3.7,32-1.88,34.75-4.92V619.09a6.93,6.93,0,0,0-6.53-6.9L364,619l-1.92,1.22c-8.75,5.49-11.39,7.15-11.39,15.46a2,2,0,0,1-4,0c0-10.52,4.43-13.3,13.26-18.85l2.34-1.45,17.06-7.22h.41a10.93,10.93,0,0,1,10.91,10.91v94.82c0,2.14-2.33,3.52-4.1,4.37C381.41,720.77,369.33,723.67,359.79,723.67Zm26.91-9.77v0Z" transform="translate(-135.97 -123.2)"/><line class="cls-5" x1="73.13" y1="440.19" x2="144.31" y2="440.19"/><rect class="cls-1" x="65.36" y="470.44" width="85.24" height="3"/><rect class="cls-1" x="76.08" y="427.16" width="61.33" height="3"/><path class="cls-1" d="M313.93,566.77c0,4.1-4,7.41-4,7.41s-4-3.31-4-7.41,1.8-3.44,4-3.44S313.93,562.68,313.93,566.77Z" transform="translate(-135.97 -123.2)"/><path class="cls-1" d="M313.93,566.77c0,4.1-4,7.41-4,7.41s-4-3.31-4-7.41,1.8-3.44,4-3.44S313.93,562.68,313.93,566.77Z" transform="translate(-135.97 -123.2)"/><path class="cls-1" d="M313.93,580.23c0-4.09-4-7.41-4-7.41s-4,3.32-4,7.41,1.8,3.44,4,3.44S313.93,584.32,313.93,580.23Z" transform="translate(-135.97 -123.2)"/><path class="cls-6" d="M265.45,468c0,29.43-1,32.82-23.3,32.82S221,497.39,221,468s21.11-63.18,21.11-63.18S265.45,438.52,265.45,468Z" transform="translate(-135.97 -123.2)"/><path class="cls-7" d="M256.08,495.87a123.78,123.78,0,0,0,44.79-8v-13a12.12,12.12,0,0,0-12.17-12H195.6a12.12,12.12,0,0,0-12.17,12v11.62a125.85,125.85,0,0,0,48.41,9.4Z" transform="translate(-135.97 -123.2)"/><path class="cls-7" d="M231.59,508.13a126.05,126.05,0,0,1-48.16-9.29v18.05a12.12,12.12,0,0,0,12.17,12h93.1a12.12,12.12,0,0,0,12.17-12V500a123.67,123.67,0,0,1-45,8.13Z" transform="translate(-135.97 -123.2)"/><path class="cls-8" d="M256.08,495.87H231.84a125.85,125.85,0,0,1-48.41-9.4v12.37a126.05,126.05,0,0,0,48.16,9.29h24.24a123.67,123.67,0,0,0,45-8.13V487.84A123.78,123.78,0,0,1,256.08,495.87Z" transform="translate(-135.97 -123.2)"/></g><path id="yellow_flame_lamp" data-name="yellow flame lamp" class="cls-9" d="M275.07,404c-3.92,29.46-18.86,33.71-38.8,31.05s-31.41-19.41-27.48-48.87,41.68-57.8,41.68-57.8S279,374.56,275.07,404Z" transform="translate(-135.97 -123.2)"/><path id="orange_flame_lamp" data-name="orange flame lamp" class="cls-10" d="M275.53,399.52c3.86,25.76-7.68,33-25.13,35.59s-31.17-8.71-35-34.48,21-58.82,21-58.82S271.67,373.76,275.53,399.52Z" transform="translate(-135.97 -123.2)"/><path id="red_flame_lamp" data-name="red flame lamp" class="cls-11" d="M264.93,414.5c-3.82,20.55-14.46,23-28.37,20.41S215.21,420.14,219,399.6s31.36-39.09,31.36-39.09S268.75,394,264.93,414.5Z" transform="translate(-135.97 -123.2)"/><path id="glas" class="cls-12" d="M255.63,495.87H231.74c-43.74,0-81.7-22-85.49-48.9a16.07,16.07,0,0,1,.88-7.68l32-88.3c12.32-34,18.79-64,18.37-97.84-.12-10,1.35-28.42.42-38.42L196.77,124l82.36-.76L277,199.39c-.39,13.93,1.75,27.08,2.47,41,2.14,41.45,17.42,84,31.8,124.93l26.33,75.06a16.15,16.15,0,0,1,.83,7.42C335,474.58,299.24,495.87,255.63,495.87Z" transform="translate(-135.97 -123.2)"/></svg>