<svg id="patent" xmlns="http://www.w3.org/2000/svg" viewBox="0 0 177.84 210.7"><defs><style>.patent-1{fill:#f2eecb;}.patent-1,.patent-2,.patent-3,.patent-4,.patent-6{stroke:#1d1d1b;stroke-miterlimit:10;}.patent-2{fill:#d7da00;}.patent-3{fill:#d01817;}.patent-4{fill:#e78900;}.patent-5{fill:#1d1d1b;}.patent-6{fill:#04a339;}</style></defs><polygon class="patent-1" points="29.68 0.53 177.26 9.21 147.13 194.57 0.58 178.74 29.68 0.53"/><path class="patent-2" d="M213.51,424.6,224,427.15s-8.17,17.36-6.38,30.38l-4.09,8.17-1.4-8.93-5,8.93-.64-8.93S203.94,439.91,213.51,424.6Z" transform="translate(-191.36 -256.71)"/><path class="patent-3" d="M235.6,419.34c.05,1.71,5.11,6.85,4.85,7.81-.57,2.1-3.37-.57-4.08.49-.31.48-3-1-5.63,1.1-1.73,1.39,2.2,6.16,1.86,6.32-1.25.61-6.41.47-7.06.66-1.59.48-2.47-3-3.85-3s-2.61,3.36-3.4,3.07c-1.6-.58-3.6.81-4.72,0-.85-.6,1.7-4.79.93-5.45-1.21-1-4.38-.43-5.07-1.15-.55-.56-1.9,3-2.56,2.17-.51-.63,3.21-5.95,2.61-7-.24-.39-7.14.18-7.52-.76-.73-1.81,4.75-4.37,4.72-4.92-.14-2.2-5.2-3.27-4.79-4.59.31-1,2.67-3.57,3.13-4.47.58-1.12,2.87,1.73,5.17-.26,1.21-1-.31-7.15.51-7.59,1.22-.65,6.15-1.24,6.9-1.47,1-.32,1.05,4.79,3.38,4.79,1,0,3.69-6,6.06-5.17.53.18,1.72,3,3.21,4,1.32.85.15,4.47.69,5s6-3.19,7.21-1.34-.56,5.37-.28,6.13C238.36,415.07,235.52,417.07,235.6,419.34Z" transform="translate(-191.36 -256.71)"/><circle class="patent-4" cx="30.2" cy="162.27" r="11.36"/><path class="patent-1" d="M209.48,406.33" transform="translate(-191.36 -256.71)"/><path class="patent-1" d="M214.5,403" transform="translate(-191.36 -256.71)"/><path class="patent-1" d="M208.57,407.26" transform="translate(-191.36 -256.71)"/><path class="patent-2" d="M216.89,424" transform="translate(-191.36 -256.71)"/><path class="patent-5" d="M225.11,413.63a3.18,3.18,0,0,1,.81,3.05,3.35,3.35,0,0,1-1.7,2.72c-1.58.75-3.64-.22-4.74-.82l-1.2,6.24a.5.5,0,0,1-.58.4.51.51,0,0,1-.4-.59l1.33-6.91v0l.89-4.6.3-.08a8.06,8.06,0,0,1,4.45.08A2.84,2.84,0,0,1,225.11,413.63Zm-5.43,3.92c.81.45,2.84,1.55,4.11.95a2.45,2.45,0,0,0,1.14-2,2.26,2.26,0,0,0-.49-2.15c-1-.87-3-.67-4.06-.46Z" transform="translate(-191.36 -256.71)"/><polygon id="good-patent" class="patent-6" points="41.56 81.21 54.83 76.87 77.3 103.93 131.17 33.97 142.15 41.12 77.81 126.4 41.56 81.21"/></svg>