<svg id="platinum-money" xmlns="http://www.w3.org/2000/svg" viewBox="0 0 376.33 216.28"><defs><style>.pm-1{fill:#69b03f;}.pm-2{fill:#26642c;}.pm-3{font-size:22.12px;}.pm-3,.pm-4,.pm-5,.pm-6,.pm-7,.pm-8{fill:#fff;font-family:MyriadPro-Regular, Myriad Pro;}.pm-4{font-size:22.17px;}.pm-5{font-size:22.41px;}.pm-6{font-size:23.28px;}.pm-7{font-size:24.91px;}.pm-8{font-size:26.6px;}.pm-9{fill:#f2f2f2;}.pm-10{fill:#a9a9aa;}.pm-11{fill:#d2d2d2;}.pm-12{fill:#8f8f8d;}.pm-13{fill:#bfbebf;}.pm-14{fill:#f0f0f0;}.pm-15{fill:#3b3a3a;}.pm-16{fill:#4a4a4a;opacity:0.68;}.pm-16,.pm-18{isolation:isolate;}.pm-17{fill:#d6d6d6;}.pm-18{fill:#1d1d1d;opacity:0.41;}.pm-19{fill:#f0efee;}.pm-20{fill:#919292;}</style></defs><polygon class="pm-1" points="117.1 128.88 1.1 130.68 0 95.68 116 93.88 117.1 128.88"/><polygon class="pm-1" points="8.73 101.23 107.63 99.69 108.37 123.2 9.47 124.74 8.73 101.23"/><path class="pm-2" d="M431.38,247.88,432,267.4l-94.9,1.47-.61-19.51,94.89-1.48m3.88-4.06-102.9,1.6.87,27.51,102.89-1.6-.86-27.51Z" transform="translate(-325.69 -146.16)"/><ellipse class="pm-2" cx="58.54" cy="112.05" rx="16.06" ry="11.29"/><text class="pm-3" transform="matrix(1.42, -0.02, 0.03, 1, 49.9, 119.32)">$</text><polygon class="pm-1" points="372.73 134.06 257 128.17 260.6 93.25 376.33 99.14 372.73 134.06"/><polygon class="pm-1" points="266.14 122.81 268.56 99.35 367.2 104.37 364.79 127.83 266.14 122.81"/><path class="pm-2" d="M596,247.61l94.65,4.81-2,19.48L594,267.08l2-19.47m-3.59-4.19-2.82,27.44,102.65,5.23,2.82-27.45-102.65-5.22Z" transform="translate(-325.69 -146.16)"/><ellipse class="pm-2" cx="316.69" cy="113.43" rx="16.06" ry="11.29"/><text class="pm-4" transform="matrix(1.42, 0.07, -0.1, 0.99, 307.11, 120.09)">$</text><polygon class="pm-1" points="327.31 193.93 212.82 180.69 220.91 146.15 335.4 159.39 327.31 193.93"/><polygon class="pm-1" points="222.63 175.95 228.07 152.72 325.62 164 320.18 187.24 222.63 175.95"/><path class="pm-2" d="M555.3,301.07l93.55,10.82-4.52,19.31-93.55-10.82,4.52-19.31m-3.08-4.38-6.36,27.15,101.55,11.75,6.36-27.16L552.22,296.69Z" transform="translate(-325.69 -146.16)"/><ellipse class="pm-2" cx="274.16" cy="169.81" rx="16.06" ry="11.29"/><text class="pm-5" transform="matrix(1.39, 0.16, -0.23, 0.97, 263.76, 175.84)">$</text><polygon class="pm-1" points="278.33 69.53 168.59 43.06 184.75 9.95 294.5 36.41 278.33 69.53"/><polygon class="pm-1" points="179.44 39.59 190.35 17.25 283.71 39.76 272.8 62.11 179.44 39.59"/><path class="pm-2" d="M517.13,165.73l89.38,21.55L597.4,206,508,184.39l9.11-18.66M515,161.09l-12.71,26,97.34,23.48,12.71-26L515,161.09Z" transform="translate(-325.69 -146.16)"/><ellipse class="pm-2" cx="231.65" cy="39.52" rx="16.06" ry="11.29"/><text class="pm-6" transform="matrix(1.28, 0.31, -0.44, 0.9, 219.97, 44.24)">$</text><polygon class="pm-1" points="141.47 216.28 41.86 174.46 67.41 144.4 167.02 186.22 141.47 216.28"/><polygon class="pm-1" points="53.56 172.77 70.92 152.34 155.41 187.81 138.04 208.23 53.56 172.77"/><path class="pm-2" d="M397.19,300.91l80.62,33.84L463.16,352l-80.61-33.84,14.64-17.23M396,296.09,376,319.71l88.35,37.09,20.08-23.62L396,296.09Z" transform="translate(-325.69 -146.16)"/><ellipse class="pm-2" cx="104.61" cy="180.14" rx="16.06" ry="11.29"/><text class="pm-7" transform="matrix(1.08, 0.46, -0.65, 0.76, 91.79, 183.07)">$</text><polygon class="pm-1" points="101.69 80.16 14.6 26.28 47.52 0 134.61 53.88 101.69 80.16"/><polygon class="pm-1" points="26.57 26.26 49.12 8.25 122.76 53.81 100.21 71.81 26.57 26.26"/><path class="pm-2" d="M375,156.85l70,43.32-19.24,15.36-70-43.32L375,156.85m-.29-4.88-25.88,20.65,77.26,47.79,25.87-20.65L374.67,152Z" transform="translate(-325.69 -146.16)"/><ellipse class="pm-2" cx="74.82" cy="39.91" rx="16.06" ry="11.29"/><text class="pm-8" transform="matrix(0.89, 0.55, -0.78, 0.62, 61.46, 41.14)">$</text><polygon class="pm-9" points="242.68 74.14 213.85 92.83 118.82 65.2 200.53 62.41 242.68 74.14"/><path class="pm-10" d="M505.11,206.76c.6.24.91.5.91.8s-.31.65-1.09,1a5.81,5.81,0,0,1-4.37.46l-.2-.1-.36-.34-2,1c-1.11.51-1.07.55-.4,1l-.37.18-2.43-1,.38-.18c.87.25,1,.22,2.09-.28l5-2.33c1-.49,1-.53.41-.83l.32-.16Zm-4.69,1.63c0,.08.18.22.46.34a4.07,4.07,0,0,0,3.22-.42c1.29-.63,1.19-1.11.49-1.39a1.27,1.27,0,0,0-.59-.12,2,2,0,0,0-.64.22Z" transform="translate(-325.69 -146.16)"/><path class="pm-10" d="M506.44,212.51c-.44.18-2,.77-2.46,1l-4.18-1.71.36-.18c.93.28,1,.28,2.15-.27l4.77-2.45c1-.5.93-.56.36-.87l.31-.16,2.25.89-.32.16c-.75-.22-.89-.24-1.87.26l-4.87,2.52c-.77.4-.87.52-.37.74l.69.3a1.86,1.86,0,0,0,1.19.12,12.32,12.32,0,0,0,1.81-.46Z" transform="translate(-325.69 -146.16)"/><path class="pm-10" d="M508.65,215.37l.34-.2c.69.18.89.14,1.21-.18s.75-.73,1.29-1.25l-1.93-.77-1.89.67c-1,.36-1,.48-.33.86l-.34.2-2.11-.86.36-.2c.67.18.89.2,2.32-.3l7.72-2.62.34.08c-1.28,1.27-2.73,2.74-4.14,4.17-.73.74-.73.84-.18,1.16l-.34.2Zm5.21-3.92c-1.22.44-2.53.9-3.7,1.3l1.67.67Z" transform="translate(-325.69 -146.16)"/><path class="pm-10" d="M520.78,214.64a4.3,4.3,0,0,0,.53-.66c.12-.24.1-.32-.38-.5l-.87-.36-5.17,3.32c-.89.58-.93.68-.12,1.1l-.32.22-2.72-1.12.34-.2c.93.32,1.13.26,2-.31l5.22-3.3-.79-.32a1.41,1.41,0,0,0-1.13-.08c-.32.08-.64.22-1.14.4l-.26-.1c.7-.38,1.4-.74,2-1.08l.2.08c-.12.2,0,.24.24.34l3.46,1.37a.85.85,0,0,0,.67,0l.22.08c-.45.3-1.13.8-1.67,1.2Z" transform="translate(-325.69 -146.16)"/><path class="pm-10" d="M516.54,218.61l.32-.22c.87.24,1,.24,1.93-.39l4.11-2.85c.84-.57.8-.63.16-1l.28-.18,2.37.93-.28.2c-.84-.24-.94-.24-1.77.34l-4.08,2.86c-.93.66-.89.72-.2,1.12l-.31.22Z" transform="translate(-325.69 -146.16)"/><path class="pm-10" d="M532.58,218a1.29,1.29,0,0,0-1.35.13c-.3.22-.69.54-1.55,1.22l-3.91,3.18-.38-.16,1.13-5.65-2.44,1.81c-.92.68-1.36,1-1.63,1.27-.52.42-.44.64.17,1l-.29.22L520,220l.3-.22a1.59,1.59,0,0,0,1.59-.19c.36-.24.85-.58,1.79-1.26l2.5-1.85c.26-.19.4-.31.44-.53s-.08-.36-.46-.56l.26-.18,1.33.54-.85,5.29,2.36-1.89c.86-.7,1.24-1,1.48-1.23s.27-.52-.4-.84l.24-.2,2.24.9Z" transform="translate(-325.69 -146.16)"/><path class="pm-10" d="M539.68,220.78a1.19,1.19,0,0,0-1.35.18c-.2.18-.56.49-1.33,1.21l-.92.88a6,6,0,0,1-2.86,1.74,3.74,3.74,0,0,1-2.44-.19,1.81,1.81,0,0,1-1.18-1.06c-.14-.63.24-1.31,1.35-2.26l2.29-2c.78-.66.76-.74.08-1.08l.24-.19,2.4,1-.23.2c-.78-.26-.92-.22-1.69.44l-2.23,1.92c-1.37,1.2-1.45,2.15-.28,2.63,1.41.57,2.66,0,4.16-1.39l.87-.82a14.7,14.7,0,0,0,1.25-1.25c.34-.36.26-.56-.39-.88l.21-.19,2.23.89Z" transform="translate(-325.69 -146.16)"/><path class="pm-10" d="M540.48,228.41l.24-.26c.91.28,1,.22,1.84-.75l3.15-3.5c-2.17,1.19-5.81,3.18-6.9,3.84l-.26-.1c.44-1,1.61-3.8,2.32-5.55-3,2.8-3.73,3.5-3.89,3.66-.5.5-.3.67.32,1L537,227l-2.41-1,.26-.26a1.44,1.44,0,0,0,1.55-.26c.46-.36.78-.68,4-3.56.43-.4.47-.55-.28-.95l.22-.22,1.63.65-1.89,5.05,6.22-3.34,1.67.66-.2.22c-.89-.24-1.07-.22-1.55.36l-2.86,3.34c-.82,1-.84,1.07,0,1.53l-.22.26Z" transform="translate(-325.69 -146.16)"/><polygon class="pm-11" points="98.54 108.14 193.37 139.55 199.14 174.14 86.5 134.96 98.54 108.14"/><polygon class="pm-12" points="223.59 117.08 120.41 91.44 98.54 108.14 193.37 139.55 223.59 117.08"/><polygon class="pm-13" points="259.38 93.43 270.31 119.47 238.1 145.31 229.95 107.34 259.38 93.43"/><polygon class="pm-14" points="247.65 88.06 259.38 93.43 248.14 98.64 247.65 88.06"/><polygon class="pm-15" points="238.1 145.31 231.15 114.7 223.59 117.08 233.13 144.52 238.1 145.31"/><polygon class="pm-16" points="185.62 159.43 146.65 150.88 167.47 131.2 173.81 133.23 185.62 159.43"/><polygon class="pm-13" points="193.37 139.55 223.59 117.08 236.51 145.51 199.14 174.14 193.37 139.55"/><polygon class="pm-17" points="118.82 65.2 107.49 91.44 221.4 126.63 213.85 92.83 118.82 65.2"/><polygon class="pm-18" points="191.38 89.05 191.7 89.71 204.7 116.49 197.13 119.97 193.77 135.18 173.89 133.19 167.53 131.2 191.38 89.05"/><polygon class="pm-19" points="139.3 37.36 83.83 139.55 129.16 156.65 185.82 49.09 139.3 37.36"/><polygon class="pm-10" points="142.48 181.9 128.76 155.65 83.83 139.55 88.2 162.01 142.48 181.9"/><polygon class="pm-13" points="185.82 49.09 208.68 57.64 142.48 181.9 129.16 156.65 185.82 49.09"/><polygon class="pm-20" points="242.68 74.14 213.85 92.83 221.4 126.63 256 102.77 242.68 74.14"/><path class="pm-10" d="M446.18,257.88a2.36,2.36,0,0,1,1.08-1.22,1.41,1.41,0,0,1,1.43.3,2.67,2.67,0,0,1,.73,3.28,2.39,2.39,0,0,1-.13.24l-.46.5,1.33,1.07c.74.6.78.54,1.29-.24l.26.2-1.27,2.55-.24-.2c.32-.86.28-.94-.44-1.53l-3.28-2.69c-.69-.57-.77-.49-1.17.14l-.22-.18Zm2.35,2.88a1.54,1.54,0,0,0,.44-.58,1.83,1.83,0,0,0-.66-2.36,1.14,1.14,0,0,0-1.93.39,1.19,1.19,0,0,0-.16.56c0,.12.1.22.32.4Z" transform="translate(-325.69 -146.16)"/><path class="pm-10" d="M453.9,253.58c.26.24,1.05,1.17,1.29,1.45l-2.15,4.3-.26-.18c.34-.9.34-1-.43-1.57L449,255.09c-.7-.51-.78-.45-1.2.2l-.21-.16,1.17-2.32.22.16c-.28.73-.3.85.39,1.37l3.5,2.52c.56.4.72.42,1-.1,0,0,.34-.65.38-.71a1,1,0,0,0,.11-1,3.77,3.77,0,0,0-.65-1.19Z" transform="translate(-325.69 -146.16)"/><path class="pm-10" d="M457.56,250.3l-.26-.16c.22-.63.16-.77-.26-.87s-1-.2-1.65-.38l-1,2c.34.4.62.77.94,1.15.5.6.63.52,1.11-.18l.26.16-1.07,2.13-.26-.18c.22-.64.22-.82-.44-1.69l-3.66-4.79.08-.32,5.57,1.15c.95.2,1.07.16,1.49-.45l.26.16Zm-5.25-2.09c.59.76,1.23,1.55,1.81,2.27l.83-1.69Z" transform="translate(-325.69 -146.16)"/><path class="pm-10" d="M456.32,241.1a4.05,4.05,0,0,0-.87-.12c-.3,0-.42.06-.66.55l-.44.88,4.42,2.44c.73.42.89.4,1.39-.43l.28.14-1.35,2.68-.28-.16c.38-.89.32-1-.44-1.45L454,243.16l-.4.8c-.24.48-.26.66-.08.95a5.62,5.62,0,0,0,.56.7l-.14.26-1.47-1.06.1-.19c.25,0,.29-.12.43-.36l1.71-3.44a.52.52,0,0,0,0-.56l.1-.2c.42.22,1.06.52,1.59.74Z" transform="translate(-325.69 -146.16)"/><path class="pm-10" d="M461.45,242.51l-.28-.14c.3-.8.28-.9-.53-1.31l-3.7-1.87c-.76-.38-.84-.34-1.27.34l-.24-.12,1.17-2.33.24.12c-.28.76-.28.86.48,1.23l3.69,1.85c.84.42.92.36,1.38-.36l.27.14Z" transform="translate(-325.69 -146.16)"/><path class="pm-10" d="M460.28,230.28c-.22.58-.22.8.2,1s.67.31,1.55.67l4,1.63-.17.36-7,1.65,2.34,1.07c.88.4,1.34.58,1.61.7.52.22.78.06,1.18-.58l.28.12-1.12,2.25-.28-.14c.24-.6.2-.9-.27-1.15-.3-.18-.74-.4-1.61-.82l-2.39-1.11a.92.92,0,0,0-.68-.1c-.29.06-.45.22-.71.61l-.26-.11.66-1.3,6.64-1.69-2.39-1c-.87-.36-1.29-.52-1.57-.6s-.66,0-1.05.68l-.26-.1,1.07-2.15Z" transform="translate(-325.69 -146.16)"/><path class="pm-10" d="M463.62,223.62c-.24.56-.18.82.24,1,.22.08.61.23,1.51.53l1.07.36a3.34,3.34,0,0,1,2.17,1.47,2.15,2.15,0,0,1-.18,1.93,2.88,2.88,0,0,1-1.23,1.33,3.21,3.21,0,0,1-2.77-.08l-2.46-.93c-.84-.32-.94-.28-1.35.4l-.26-.1,1.13-2.29.26.1c-.3.72-.26.81.58,1.13l2.42.92c1.47.55,2.61.22,3.16-.88.66-1.31-.06-2-1.75-2.6l-1-.34c-.89-.3-1.27-.4-1.55-.48-.44-.12-.7,0-1.05.66l-.26-.1,1-2.09Z" transform="translate(-325.69 -146.16)"/><path class="pm-10" d="M472.66,220.1l-.29-.08c.29-.77.24-.81-.92-1.11l-4.19-1.09c1.47,1.21,3.87,3.2,4.65,3.79l-.12.24c-1.13,0-4.49.22-6.62.36,3.44,1.21,4.25,1.49,4.45,1.55.6.18.8,0,1.2-.64l.29.1L470,225.41l-.3-.1c.2-.56.18-.81-.36-1.07s-.79-.32-4.35-1.69c-.48-.2-.7-.16-1.15.59l-.26-.07.75-1.52,6.09-.49-4.1-3.48.76-1.51.28.06c-.28.77-.24.89.45,1.05l4,.95c1.17.26,1.25.24,1.75-.55l.32.08Z" transform="translate(-325.69 -146.16)"/></svg>