<svg xmlns="http://www.w3.org/2000/svg" viewBox="0 0 1195.27 1004.05"><defs><style>.cls-1{fill:#cadddc;}.cls-1,.cls-9{stroke:#b4d3d3;}.cls-1,.cls-2,.cls-3,.cls-4,.cls-5,.cls-6,.cls-7,.cls-8,.cls-9{stroke-miterlimit:10;}.cls-2{fill:#7db5b5;stroke:#7db5b5;}.cls-3{fill:#cec4c2;stroke:#b2aead;}.cls-4{fill:#3d3838;stroke:#9b4a21;}.cls-5{fill:#9e4102;stroke:#9e4102;}.cls-6{fill:#600a18;stroke:#600a18;}.cls-7{fill:#7c3403;stroke:#7c3403;}.cls-8{fill:#d8a503;stroke:#d8a503;}.cls-9{fill:#b4d3d3;}</style></defs><g id="Layer_2" data-name="Layer 2"><g id="smoke-2"><circle class="cls-1" cx="475.9" cy="317.57" r="34.62"/><circle class="cls-1" cx="419.75" cy="354.19" r="23.27"/><circle class="cls-1" cx="557.85" cy="277.87" r="46.15"/><ellipse class="cls-1" cx="653.78" cy="222.52" rx="56.15" ry="50.38" transform="translate(-36.6 240.2) rotate(-20.26)"/><ellipse class="cls-1" cx="743.73" cy="151.14" rx="63.46" ry="58.54" transform="translate(-6.31 266.94) rotate(-20.26)"/></g><g id="smoke-1"><circle class="cls-2" cx="140.15" cy="428.29" r="34.62"/><circle class="cls-2" cx="174.29" cy="354.19" r="46.15"/><ellipse class="cls-2" cx="259.37" cy="293.67" rx="56.15" ry="50.38" transform="matrix(0.94, -0.35, 0.35, 0.94, -85.66, 108.01)"/><ellipse class="cls-2" cx="371.42" cy="251.81" rx="63.46" ry="58.54" transform="translate(-64.22 144.22) rotate(-20.26)"/><circle class="cls-2" cx="475.9" cy="171.39" r="79.4"/><circle class="cls-2" cx="598.27" cy="92.38" r="91.86"/></g><g id="power-building"><path class="cls-3" d="M270.15,774.32H57.85a394.2,394.2,0,0,0,37.91-139A389,389,0,0,0,79.33,488.17a418,418,0,0,0,164.29,0,408,408,0,0,0-12.64,146A414,414,0,0,0,270.15,774.32Z"/><path class="cls-3" d="M570.15,761.25H311.69a552.11,552.11,0,0,0,46.16-183.08,552.34,552.34,0,0,0-20-193.85,376,376,0,0,0,200,0,579.26,579.26,0,0,0,32.3,376.93Z"/><rect class="cls-4" x="570.92" y="455.86" width="380" height="547.69" rx="12"/><rect class="cls-5" x="0.5" y="758.94" width="809.65" height="244.62" rx="12"/><rect class="cls-6" x="950.15" y="671.71" width="244.62" height="331.85" rx="12"/><rect class="cls-7" x="0.5" y="946.63" width="809.65" height="56.92" rx="12"/><rect class="cls-8" x="164" y="815.86" width="70.77" height="53.85" rx="12"/><rect class="cls-8" x="42.46" y="815.86" width="70.77" height="53.85" rx="12"/><rect class="cls-8" x="300.15" y="815.86" width="70.77" height="53.85" rx="12"/><rect class="cls-8" x="430.15" y="815.86" width="70.77" height="53.85" rx="12"/><rect class="cls-8" x="557.85" y="815.86" width="70.77" height="53.85" rx="12"/><rect class="cls-8" x="976.31" y="706.63" width="70.77" height="53.85" rx="12"/><rect class="cls-8" x="976.31" y="788.94" width="70.77" height="53.85" rx="12"/><rect class="cls-8" x="976.31" y="881.25" width="70.77" height="53.85" rx="12"/><rect class="cls-8" x="1091.69" y="881.25" width="70.77" height="53.85" rx="12"/><rect class="cls-8" x="1091.69" y="788.94" width="70.77" height="53.85" rx="12"/><rect class="cls-8" x="1091.69" y="706.63" width="70.77" height="53.85" rx="12"/><rect class="cls-8" x="690.15" y="815.86" width="70.77" height="53.85" rx="12"/><rect class="cls-9" x="611.69" y="538.94" width="290.77" height="33.85" rx="12"/><rect class="cls-9" x="611.69" y="614.32" width="290.77" height="33.85" rx="12"/><rect class="cls-9" x="611.69" y="689.71" width="290.77" height="33.85" rx="12"/></g></g></svg>