<svg id="staite" xmlns="http://www.w3.org/2000/svg" viewBox="0 0 268.45 223.37"><defs><style>.staiteTimeline-1{fill:#653711;}.staiteTimeline-2{fill:#b26d15;}.staiteTimeline-3{fill:#89562f;opacity:0.5;}.staiteTimeline-4{fill:#845113;}</style></defs><g id="cog3"><circle class="staiteTimeline-1" cx="54.6" cy="56.77" r="31.4"/><rect class="staiteTimeline-1" x="45.74" width="17.7" height="31.32" rx="4.89"/><rect class="staiteTimeline-1" x="407.83" y="193.78" width="17.7" height="31.32" rx="4.89" transform="translate(-62.97 -415.19) rotate(45)"/><rect class="staiteTimeline-1" x="418.81" y="220.53" width="17.7" height="31.32" rx="4.89" transform="translate(330.74 -373.36) rotate(90)"/><rect class="staiteTimeline-1" x="339.91" y="220.53" width="17.7" height="31.32" rx="4.89" transform="translate(251.85 -294.47) rotate(90)"/><rect class="staiteTimeline-1" x="45.74" y="80.55" width="17.7" height="31.32" rx="4.89"/><rect class="staiteTimeline-1" x="350.52" y="251.09" width="17.7" height="31.32" rx="4.89" transform="translate(-39.23 -357.88) rotate(45)"/><rect class="staiteTimeline-1" x="352.26" y="192.87" width="17.7" height="31.32" rx="4.89" transform="translate(-374.8 134.52) rotate(-45)"/><rect class="staiteTimeline-1" x="407.83" y="248.45" width="17.7" height="31.32" rx="4.89" transform="translate(-397.81 190.1) rotate(-45)"/><circle class="staiteTimeline-2" cx="55.18" cy="55.94" r="14.55"/><path class="staiteTimeline-3" d="M388.29,265.43a2,2,0,0,1,0-4,23.6,23.6,0,0,0,0-47.2,2,2,0,0,1,0-4,27.6,27.6,0,0,1,0,55.2Z" transform="translate(-333.11 -181.89)"/><circle class="staiteTimeline-4" cx="55.18" cy="55.94" r="5.43"/></g><g id="cog2"><circle class="staiteTimeline-1" cx="206.28" cy="161.78" r="35.1"/><rect class="staiteTimeline-1" x="196.39" y="98.33" width="19.79" height="35.01" rx="4.89"/><rect class="staiteTimeline-1" x="561.89" y="293.51" width="19.79" height="35.01" rx="4.89" transform="translate(54.28 -495.11) rotate(45)"/><rect class="staiteTimeline-1" x="574.16" y="323.41" width="19.79" height="35.01" rx="4.89" transform="translate(591.86 -425.03) rotate(90)"/><rect class="staiteTimeline-1" x="485.98" y="323.41" width="19.79" height="35.01" rx="4.89" transform="translate(503.68 -336.85) rotate(90)"/><rect class="staiteTimeline-1" x="196.39" y="188.36" width="19.79" height="35.01" rx="4.89"/><rect class="staiteTimeline-1" x="497.83" y="357.57" width="19.79" height="35.01" rx="4.89" transform="translate(80.82 -431.05) rotate(45)"/><rect class="staiteTimeline-1" x="499.77" y="292.49" width="19.79" height="35.01" rx="4.89" transform="translate(-403.03 269.29) rotate(-45)"/><rect class="staiteTimeline-1" x="561.89" y="354.61" width="19.79" height="35.01" rx="4.89" transform="translate(-428.76 331.41) rotate(-45)"/><circle class="staiteTimeline-2" cx="206.94" cy="160.85" r="16.27"/><path class="staiteTimeline-3" d="M540.05,373.59a2.24,2.24,0,1,1,0-4.47,26.38,26.38,0,0,0,0-52.75,2.24,2.24,0,1,1,0-4.47,30.85,30.85,0,0,1,0,61.69Z" transform="translate(-333.11 -181.89)"/><circle class="staiteTimeline-4" cx="206.94" cy="160.85" r="6.06"/></g><g id="cog1"><circle class="staiteTimeline-1" cx="128.16" cy="105.78" r="18.68"/><rect class="staiteTimeline-1" x="122.89" y="58.91" width="10.53" height="31.73" rx="4.89"/><rect class="staiteTimeline-1" x="478.48" y="248.31" width="10.53" height="33.47" rx="4.89" transform="translate(-4 -446.33) rotate(45)"/><rect class="staiteTimeline-1" x="488.29" y="268.37" width="10.53" height="35.66" rx="4.89" transform="translate(446.65 -389.24) rotate(90)"/><rect class="staiteTimeline-1" x="424.8" y="268.85" width="10.53" height="34.71" rx="4.89" transform="translate(383.16 -325.75) rotate(90)"/><rect class="staiteTimeline-1" x="122.89" y="119.93" width="10.53" height="35.11" rx="4.89"/><rect class="staiteTimeline-1" x="433.56" y="292.76" width="10.53" height="34.44" rx="4.89" transform="translate(14.61 -401.4) rotate(45)"/><rect class="staiteTimeline-1" x="434.37" y="246.41" width="10.53" height="35.06" rx="4.89" transform="translate(-390.98 206.28) rotate(-45)"/><rect class="staiteTimeline-1" x="480.09" y="290.66" width="10.53" height="38.01" rx="4.89" transform="translate(-409.91 252) rotate(-45)"/><circle class="staiteTimeline-2" cx="128.51" cy="105.29" r="8.66"/><path class="staiteTimeline-3" d="M461.62,303.6a1.19,1.19,0,1,1,0-2.38,14,14,0,0,0,0-28.08,1.19,1.19,0,1,1,0-2.38,16.42,16.42,0,0,1,0,32.84Z" transform="translate(-333.11 -181.89)"/><circle class="staiteTimeline-4" cx="128.51" cy="105.29" r="3.23"/></g></svg>