<svg id="swan_light" data-name="swan light" xmlns="http://www.w3.org/2000/svg" viewBox="0 0 355.49 348.61"><defs><style>.cls-1{fill:#706f6f;}.cls-2{fill:#936037;}.cls-3,.cls-8{fill:none;stroke-miterlimit:10;}.cls-3{stroke:#575756;stroke-width:3px;}.cls-4{fill:#785f3e;}.cls-5{fill:#58452b;}.cls-6{fill:#4c3c24;}.cls-7{fill:#514027;}.cls-8{stroke:#3c3c3b;stroke-width:2px;}.cls-9{fill:#5cbeb8;}.cls-10,.cls-9{opacity:0.5;isolation:isolate;}.cls-10{fill:#81cbd8;}.cls-11{fill:#e5f1e1;}</style></defs><path class="cls-1" d="M110.19,246.41l-1.51-3.7c20.39-8.31,27.56-27.51,29.28-33.2.87-2.82,1.29-18.42,1.1-22.42-1.14-24.58,5.2-51,7.17-58.52.57-2.18,3.29-16.85,5.93-31,3-16.06,5.8-31.23,6.5-33.95,8.35-32.28,43.59-54,74.81-61.24,15.74-3.64,27.57-3,31.65,1.81,1.7,2,2.34,4.77,1.88,8.3l-4-.5c.3-2.36,0-4.11-1-5.2C259.7,4,250,2.62,234.38,6.24c-30,7-63.91,27.68-71.84,58.34-.68,2.59-3.61,18.39-6.45,33.68-2.77,14.91-5.39,29-6,31.33-1.93,7.37-8.15,33.3-7,57.32.16,3.46-.12,20-1.28,23.77C139.94,216.78,132.23,237.43,110.19,246.41Z" transform="translate(0 -0.02)"/><rect class="cls-2" x="252.27" y="11.78" width="24.52" height="3.91" rx="1.95"/><line class="cls-3" x1="265.19" y1="15.68" x2="265.19" y2="24.83"/><rect class="cls-4" y="310.77" width="355.49" height="37.84" rx="12"/><rect class="cls-5" x="243.74" y="307.04" width="99.13" height="3.73" rx="1.86"/><path class="cls-4" d="M331,309.25H316.05c-2,0-3-4-2.28-8.18l5-28.26a1.9,1.9,0,0,1,1.76-1.58h5.92a1.9,1.9,0,0,1,1.76,1.58l5,28.26C334,305.29,333,309.25,331,309.25Z" transform="translate(0 -0.02)"/><path class="cls-1" d="M323.51,262h0a1.43,1.43,0,0,1,1.42,1.42v7.88a1.43,1.43,0,0,1-1.42,1.42h0a1.43,1.43,0,0,1-1.42-1.42v-7.88A1.43,1.43,0,0,1,323.51,262Z" transform="translate(0 -0.02)"/><path class="cls-6" d="M317.61,258.65h11.81a2.73,2.73,0,0,1,2.73,2.73h0a2.73,2.73,0,0,1-2.73,2.73H317.61a2.73,2.73,0,0,1-2.73-2.73h0A2.73,2.73,0,0,1,317.61,258.65Z" transform="translate(0 -0.02)"/><rect class="cls-4" x="254.65" y="304.87" width="21.08" height="4.35" rx="2.17"/><rect class="cls-7" x="48.5" y="246.82" width="69.82" height="69.82" rx="12"/><rect class="cls-4" x="54.9" y="242.02" width="57.03" height="4.8" rx="2.4"/><path class="cls-7" d="M90.87,244.44H75.94c-2,0-3-4-2.27-8.18l5-28.27a1.89,1.89,0,0,1,1.76-1.57h5.93A1.89,1.89,0,0,1,88.12,208l5,28.27C93.89,240.47,92.92,244.44,90.87,244.44Z" transform="translate(0 -0.02)"/><path class="cls-1" d="M83.41,200h0a1.43,1.43,0,0,1,1.42,1.42v6.22a1.43,1.43,0,0,1-1.42,1.42h0A1.43,1.43,0,0,1,82,207.66v-6.22A1.43,1.43,0,0,1,83.41,200Z" transform="translate(0 -0.02)"/><path class="cls-4" d="M77.08,196.77H89.73A2.3,2.3,0,0,1,92,199.08h0a2.3,2.3,0,0,1-2.31,2.31H77.08a2.3,2.3,0,0,1-2.31-2.31h0A2.3,2.3,0,0,1,77.08,196.77Z" transform="translate(0 -0.02)"/><line class="cls-3" x1="265.6" y1="295.72" x2="265.6" y2="304.87"/><rect class="cls-6" y="332.62" width="355.49" height="15.99" rx="7.99"/><line class="cls-8" x1="265.19" y1="24.83" x2="265.6" y2="296.12"/><path class="cls-9" d="M266.63,297.05h-1c-.08,0-.15-.18-.17-.42-.14-2.47-.75-2.43-1.1-4.59-.37-2.33-30-40.88-35.84-142.83-.28-4.88.44-20.28,2.88-56.26,2-30.39,33.88-69,34.81-69h0c1.85,0,41.34,73.51,35.18,126.89-11.79,102.16-32.83,138-33.26,140.67-.38,2.37-1.18,2.7-1.31,5.11A.93.93,0,0,1,266.63,297.05Z" transform="translate(0 -0.02)"/><path class="cls-10" d="M252.19,225.78a3.16,3.16,0,0,1-2.62-1.39c-5.87-8.77-12.14-34.13-12.14-79,0-38.49,3.09-58.66,10.68-69.63a3.15,3.15,0,1,1,5.18,3.59c-6.7,9.69-9.56,29.44-9.56,66,0,40.75,5.56,67.3,11.07,75.53a3.14,3.14,0,0,1-.84,4.36A3.18,3.18,0,0,1,252.19,225.78Z" transform="translate(0 -0.02)"/><ellipse class="cls-10" cx="290.28" cy="136.52" rx="5.69" ry="17.06"/><rect class="cls-11" x="263.27" y="81.77" width="5.45" height="25.58" rx="2.72"/><ellipse class="cls-11" cx="266.09" cy="78.22" rx="4.97" ry="5.69"/><rect class="cls-11" x="263.48" y="214.48" width="5.45" height="25.58" rx="2.72"/><ellipse class="cls-11" cx="266.29" cy="243.62" rx="4.97" ry="5.69"/></svg>