<svg id="swan-light2" xmlns="http://www.w3.org/2000/svg" xmlns:xlink="http://www.w3.org/1999/xlink" viewBox="0 0 355.5 348.51"><defs><style>.swanLight2Timeline-1{fill:#706f6f;}.swanLight2Timeline-2{fill:#936037;}.swanLight2Timeline-3,.swanLight2Timeline-8{fill:none;stroke-miterlimit:10;}.swanLight2Timeline-3{stroke:#575756;stroke-width:3px;}.swanLight2Timeline-4{fill:#785f3e;}.swanLight2Timeline-5{fill:#58452b;}.swanLight2Timeline-6{fill:#4c3c24;}.swanLight2Timeline-7{fill:#514027;}.swanLight2Timeline-8{stroke:#3c3c3b;stroke-width:2px;}.swanLight2Timeline-9{fill:#5cbeb8;}.swanLight2Timeline-10,.swanLight2Timeline-12,.swanLight2Timeline-9{opacity:0.5;}.swanLight2Timeline-10,.swanLight2Timeline-9{isolation:isolate;}.swanLight2Timeline-10{fill:#81cbd8;}.swanLight2Timeline-11{fill:#e5f1e1;}.swanLight2Timeline-12{fill:url(#radial-gradient);}</style><radialGradient id="radial-gradient" cx="262.88" cy="160.5" r="124.59" gradientTransform="translate(-23.14 -13.01) scale(1.1 1.07)" gradientUnits="userSpaceOnUse"><stop offset="0" stop-color="#f3e600"/><stop offset="0.5" stop-color="#f9f387"/><stop offset="0.85" stop-color="#fdfcdd"/><stop offset="1" stop-color="#fff"/></radialGradient></defs><g id="body-2swan"><path class="swanLight2Timeline-1" d="M110.2,246.4l-1.5-3.7c20.4-8.3,27.6-27.5,29.3-33.2.9-2.8,1.3-18.4,1.1-22.4-1.1-24.6,5.2-51,7.2-58.5.6-2.2,3.3-16.9,5.9-31,3-16.1,5.8-31.2,6.5-34,8.4-32.3,43.6-54,74.8-61.2,15.7-3.6,27.6-3,31.6,1.8,1.7,2,2.3,4.8,1.9,8.3l-4-.5c.3-2.4,0-4.1-1-5.2-2.3-2.8-12-4.2-27.6-.6-30,6.9-63.9,27.7-71.8,58.3-.7,2.6-3.6,18.4-6.4,33.7-2.8,14.9-5.4,29-6,31.3-1.9,7.4-8.2,33.3-7,57.3.2,3.5-.1,20-1.3,23.8C139.9,216.8,132.2,237.4,110.2,246.4Z" transform="translate(0 -0.09)"/><path class="swanLight2Timeline-2" d="M254.2,11.8h20.6a2,2,0,0,1,2,1.9h0a1.92,1.92,0,0,1-2,1.9H254.2a1.9,1.9,0,0,1-1.9-1.9h0A1.9,1.9,0,0,1,254.2,11.8Z" transform="translate(0 -0.09)"/><line class="swanLight2Timeline-3" x1="265.2" y1="15.61" x2="265.2" y2="24.81"/><path class="swanLight2Timeline-4" d="M12,310.8H343.5a12,12,0,0,1,12,12v13.8a12,12,0,0,1-12,12H12a12,12,0,0,1-12-12V322.8A12,12,0,0,1,12,310.8Z" transform="translate(0 -0.09)"/><path class="swanLight2Timeline-5" d="M245.6,307.1H341a1.9,1.9,0,0,1,1.9,1.9h0a1.9,1.9,0,0,1-1.9,1.9H245.6a1.9,1.9,0,0,1-1.9-1.9h0A1.9,1.9,0,0,1,245.6,307.1Z" transform="translate(0 -0.09)"/><path class="swanLight2Timeline-4" d="M331,309.3H316c-2,0-3-4-2.3-8.2l5-28.3a1.92,1.92,0,0,1,1.8-1.6h5.9a2,2,0,0,1,1.8,1.6l5,28.3C334,305.3,333,309.3,331,309.3Z" transform="translate(0 -0.09)"/><path class="swanLight2Timeline-1" d="M323.5,262h0a1.37,1.37,0,0,1,1.4,1.4v7.9a1.37,1.37,0,0,1-1.4,1.4h0a1.37,1.37,0,0,1-1.4-1.4v-7.9A1.37,1.37,0,0,1,323.5,262Z" transform="translate(0 -0.09)"/><path class="swanLight2Timeline-6" d="M317.6,258.7h11.8a2.69,2.69,0,0,1,2.7,2.7h0a2.69,2.69,0,0,1-2.7,2.7H317.6a2.69,2.69,0,0,1-2.7-2.7h0A2.69,2.69,0,0,1,317.6,258.7Z" transform="translate(0 -0.09)"/><path class="swanLight2Timeline-4" d="M256.8,304.9h16.7a2.22,2.22,0,0,1,2.2,2.2h0a2.22,2.22,0,0,1-2.2,2.2H256.8a2.22,2.22,0,0,1-2.2-2.2h0A2.22,2.22,0,0,1,256.8,304.9Z" transform="translate(0 -0.09)"/><path class="swanLight2Timeline-7" d="M60.5,246.8h45.8a12,12,0,0,1,12,12v45.8a12,12,0,0,1-12,12H60.5a12,12,0,0,1-12-12V258.8A12,12,0,0,1,60.5,246.8Z" transform="translate(0 -0.09)"/><path class="swanLight2Timeline-4" d="M57.3,242h52.2a2.43,2.43,0,0,1,2.4,2.4h0a2.43,2.43,0,0,1-2.4,2.4H57.3a2.43,2.43,0,0,1-2.4-2.4h0A2.43,2.43,0,0,1,57.3,242Z" transform="translate(0 -0.09)"/><path class="swanLight2Timeline-7" d="M90.9,244.4h-15c-2,0-3-4-2.3-8.2l5-28.3a1.92,1.92,0,0,1,1.8-1.6h5.9a1.91,1.91,0,0,1,1.8,1.6l5,28.3C93.9,240.5,92.9,244.4,90.9,244.4Z" transform="translate(0 -0.09)"/><path class="swanLight2Timeline-1" d="M83.4,200h0a1.37,1.37,0,0,1,1.4,1.4v6.2a1.37,1.37,0,0,1-1.4,1.4h0a1.37,1.37,0,0,1-1.4-1.4v-6.2A1.43,1.43,0,0,1,83.4,200Z" transform="translate(0 -0.09)"/><path class="swanLight2Timeline-4" d="M77.1,196.8H89.8a2.26,2.26,0,0,1,2.3,2.3h0a2.26,2.26,0,0,1-2.3,2.3H77.1a2.26,2.26,0,0,1-2.3-2.3h0A2.26,2.26,0,0,1,77.1,196.8Z" transform="translate(0 -0.09)"/><line class="swanLight2Timeline-3" x1="265.6" y1="295.61" x2="265.6" y2="304.81"/><path class="swanLight2Timeline-6" d="M8,332.6H347.5a8,8,0,0,1,8,8h0a8,8,0,0,1-8,8H8a8,8,0,0,1-8-8H0A8,8,0,0,1,8,332.6Z" transform="translate(0 -0.09)"/><line class="swanLight2Timeline-8" x1="265.2" y1="24.81" x2="265.6" y2="296.01"/><path class="swanLight2Timeline-9" d="M266.6,297.1h-1c-.1,0-.1-.2-.2-.4-.1-2.5-.8-2.4-1.1-4.6s-30-40.9-35.8-142.8c-.3-4.9.4-20.3,2.9-56.3,2-30.4,33.9-69,34.8-69h0c1.9,0,41.3,73.5,35.2,126.9-11.8,102.2-32.8,138-33.3,140.7-.4,2.4-1.2,2.7-1.3,5.1C266.8,296.8,266.7,296.9,266.6,297.1Z" transform="translate(0 -0.09)"/><path class="swanLight2Timeline-10" d="M252.2,225.8a3,3,0,0,1-2.6-1.4c-5.9-8.8-12.1-34.1-12.1-79,0-38.5,3.1-58.7,10.7-69.6a3.16,3.16,0,1,1,5.2,3.6c-6.7,9.7-9.6,29.4-9.6,66,0,40.8,5.6,67.3,11.1,75.5a3.2,3.2,0,0,1-.8,4.4A4.89,4.89,0,0,1,252.2,225.8Z" transform="translate(0 -0.09)"/><ellipse class="swanLight2Timeline-10" cx="290.3" cy="136.41" rx="5.7" ry="17.1"/><path class="swanLight2Timeline-11" d="M266,81.8h0a2.69,2.69,0,0,1,2.7,2.7v20.1a2.69,2.69,0,0,1-2.7,2.7h0a2.69,2.69,0,0,1-2.7-2.7V84.5A2.69,2.69,0,0,1,266,81.8Z" transform="translate(0 -0.09)"/><ellipse class="swanLight2Timeline-11" cx="266.1" cy="78.11" rx="5" ry="5.7"/><path class="swanLight2Timeline-11" d="M266.2,214.5h0a2.69,2.69,0,0,1,2.7,2.7v20.1a2.69,2.69,0,0,1-2.7,2.7h0a2.69,2.69,0,0,1-2.7-2.7V217.2A2.69,2.69,0,0,1,266.2,214.5Z" transform="translate(0 -0.09)"/><ellipse class="swanLight2Timeline-11" cx="266.3" cy="243.51" rx="5" ry="5.7"/></g><ellipse id="light-swan" class="swanLight2Timeline-12" fill="yellow" cx="265.2" cy="158.41" rx="81.67" ry="138.2"/></svg>