<svg id="swan_light" data-name="swan light" xmlns="http://www.w3.org/2000/svg" viewBox="0 0 355.49 348.63"><defs><style>.cls-1,.cls-3,.cls-9{fill:none;stroke-miterlimit:10;}.cls-1{stroke:#706f6f;stroke-width:4px;}.cls-2{fill:#936037;}.cls-3{stroke:#575756;stroke-width:3px;}.cls-4{fill:#785f3e;}.cls-5{fill:#58452b;}.cls-6{fill:#706f6f;}.cls-7{fill:#4c3c24;}.cls-8{fill:#514027;}.cls-9{stroke:#3c3c3b;stroke-width:2px;}.cls-10{fill:#5cbeb8;}.cls-10,.cls-11{opacity:0.5;}.cls-11{fill:#81cbd8;}.cls-12{fill:#e5f1e1;}</style></defs><g id="swan_body" data-name="swan body"><path class="cls-1" d="M212.65,531c19.19-7.82,27.62-25.1,30.44-34.47,1-3.22,1.37-19.18,1.19-23.09-1.07-23,4.5-48,7.1-57.92,1.21-4.62,11.09-59.82,12.44-65,13.25-51.22,92.82-70.53,103-58.63,1.72,2,1.66,4.87,1.42,6.75" transform="translate(-103.22 -286.44)"/><rect class="cls-2" x="252.27" y="11.8" width="24.52" height="3.91" rx="1.95"/><line class="cls-3" x1="265.19" y1="15.7" x2="265.19" y2="24.85"/><rect class="cls-4" y="310.79" width="355.49" height="37.84" rx="12"/><rect class="cls-5" x="243.74" y="307.06" width="99.13" height="3.73" rx="1.87"/><path class="cls-4" d="M434.19,595.69H419.27c-2,0-3-4-2.28-8.18l5-28.26a1.9,1.9,0,0,1,1.76-1.58h5.92a1.9,1.9,0,0,1,1.76,1.58l5,28.26C437.22,591.73,436.24,595.69,434.19,595.69Z" transform="translate(-103.22 -286.44)"/><rect class="cls-6" x="322.09" y="261.97" width="2.84" height="10.72" rx="1.42"/><rect class="cls-7" x="314.88" y="258.65" width="17.27" height="5.46" rx="2.73"/><rect class="cls-4" x="254.65" y="304.89" width="21.08" height="4.35" rx="2.18"/><rect class="cls-8" x="48.5" y="246.84" width="69.82" height="69.82" rx="12"/><rect class="cls-4" x="54.9" y="242.04" width="57.03" height="4.8" rx="2.4"/><path class="cls-8" d="M194.09,530.88H179.16c-2,0-3-4-2.27-8.18l5-28.27a1.89,1.89,0,0,1,1.76-1.57h5.93a1.89,1.89,0,0,1,1.76,1.57l5,28.27C197.11,526.91,196.14,530.88,194.09,530.88Z" transform="translate(-103.22 -286.44)"/><rect class="cls-6" x="81.99" y="200.02" width="2.84" height="9.06" rx="1.42"/><rect class="cls-4" x="74.77" y="196.77" width="17.27" height="4.62" rx="2.31"/><line class="cls-3" x1="265.6" y1="295.74" x2="265.6" y2="304.89"/><rect class="cls-7" y="332.64" width="355.49" height="15.99" rx="7.99"/><line class="cls-9" x1="265.19" y1="24.85" x2="265.6" y2="296.14"/></g><g id="swan_glass" data-name="swan glass"><path class="cls-10" d="M369.85,583.49h-1c-.08,0-.15-.18-.17-.42-.14-2.47-.75-2.43-1.1-4.59-.37-2.33-30-40.88-35.84-142.83-.28-4.88.44-20.28,2.88-56.26,2.05-30.39,33.88-69,34.81-69h0c1.85,0,41.34,73.51,35.18,126.89-11.79,102.16-32.83,138-33.26,140.67-.38,2.37-1.18,2.7-1.31,5.11A.92.92,0,0,1,369.85,583.49Z" transform="translate(-103.22 -286.44)"/><path class="cls-11" d="M355.41,512.22a3.14,3.14,0,0,1-2.62-1.39c-5.87-8.77-12.14-34.13-12.14-79,0-38.49,3.09-58.66,10.68-69.63a3.15,3.15,0,1,1,5.18,3.59c-6.7,9.69-9.56,29.44-9.56,66,0,40.75,5.56,67.3,11.07,75.53a3.14,3.14,0,0,1-2.61,4.9Z" transform="translate(-103.22 -286.44)"/><ellipse class="cls-11" cx="290.28" cy="136.54" rx="5.69" ry="17.06"/><rect class="cls-12" x="263.27" y="81.79" width="5.45" height="25.58" rx="2.72"/><ellipse class="cls-12" cx="266.09" cy="78.24" rx="4.97" ry="5.69"/><rect class="cls-12" x="263.48" y="214.5" width="5.45" height="25.58" rx="2.72"/><ellipse class="cls-12" cx="266.29" cy="243.64" rx="4.97" ry="5.69"/></g></svg>