<?xml version="1.0" encoding="utf-8"?>
<!-- Generator: Adobe Illustrator 23.1.0, SVG Export Plug-In . SVG Version: 6.00 Build 0)  -->
<svg version="1.1" id="theBamboo" xmlns="http://www.w3.org/2000/svg" xmlns:xlink="http://www.w3.org/1999/xlink" x="0px" y="0px"
	 viewBox="0 0 585 629" style="enable-background:new 0 0 585 629;" xml:space="preserve">
<style type="text/css">
	.st0{fill:url(#SVGID_1_);stroke:url(#SVGID_2_);stroke-miterlimit:10;}
	.st1{fill:#989833;}
	.st2{fill:#738234;}
	.st3{fill:#748234;}
	.st4{fill:none;stroke:#000000;stroke-miterlimit:10;}
	.st5{fill:#B5CB50;}
	.st6{fill:#431F0E;}
	.st7{fill:#CCCC66;}
</style>
<g id="bamboo" class="bamboo">
	<radialGradient id="SVGID_1_" cx="288.9968" cy="312.2377" r="276.9968" gradientUnits="userSpaceOnUse">
		<stop  offset="0" style="stop-color:#E6E6E6"/>
		<stop  offset="0" style="stop-color:#F7E857;stop-opacity:0.98"/>
		<stop  offset="1" style="stop-color:#FBF377;stop-opacity:0"/>
	</radialGradient>
	<radialGradient id="SVGID_2_" cx="288.9968" cy="312.2377" r="277.4968" gradientUnits="userSpaceOnUse">
		<stop  offset="0" style="stop-color:#E6E6E6"/>
		<stop  offset="0" style="stop-color:#FFFF00;stop-opacity:0.5"/>
		<stop  offset="1" style="stop-color:#FFFF00;stop-opacity:0"/>
	</radialGradient>
	<circle class="st0" cx="289" cy="312.2" r="277"/>
	<g id="bamboo">
		<path class="st1" d="M461,155.9C461,156.1,461,156.1,461,155.9c-5.8,6.6-17.6,5.4-26.5-2.7l0,0c0,0,0,0-0.2-0.2
			c-8.7-8.1-11.4-20-5.8-26.5c0.4-0.6,1.2-1.2,1.6-1.6c6.2-4.8,16.7-3.3,24.8,4.3C463.9,137.3,466.8,149.3,461,155.9z"/>
		<path class="st2" d="M462,156.3l-22.5,23.1l-64.1,65.3v0.4c-12-2.1-17.1-7.4-19.2-12l78.5-80c0,0,0,0,0.2,0.2l0,0
			C444.1,161.3,456.3,162.5,462,156.3L462,156.3z"/>
		<path class="st3" d="M361.4,258.8l-9.9,10.3L211.4,411.9c-6.2-0.8-17.1-3.3-20.7-10.3h0.2l144.4-147.3c-7.6-9.9-8.5-19-8.3-24.6
			l1.2-1.2v-8.1c1.2,9.1,4.1,16.3,8.1,21.7C343,251.8,353.1,256.5,361.4,258.8z"/>
		<path class="st3" d="M206.8,427l-11.4,1.2l-8.5,8.5L117.6,507l-0.2-0.2c-6,5.6-17.2,4.3-26.2-3.3c0.4-0.8,1.2-1.7,1.7-2.3l0.2-0.2
			c0.2-0.2,0.4-0.4,0.6-0.6l0,0l78.7-78.7c-7.8-10.9-8.3-20-7.6-25.2l2.7-2.7c0,0.2,0,0.6,0.2,0.8v0.2c0,0.2,0.2,0.6,0.2,0.8
			s0.2,0.6,0.2,1.2c0,0.2,0.2,0.6,0.2,0.8c0,0,0,0,0,0.2c0.2,0.4,0.2,0.8,0.4,1.6c0,0.2,0,0.4,0.2,0.6c0,0.2,0.2,0.4,0.2,0.6
			c0.2,0.4,0.2,0.8,0.4,1.4c0,0.2,0.2,0.6,0.4,1.2c0.2,0.6,0.4,1.2,0.6,1.7c0.2,0.4,0.2,0.6,0.4,1.2c0,0,0,0,0,0.2
			c0.2,0.4,0.4,0.6,0.6,1.2c0.2,0.4,0.4,0.8,0.6,1.2l0,0C181.8,423.3,198.8,426.4,206.8,427z"/>
		<path class="st4" d="M167.8,393.5L167.8,393.5v-0.2V393.5z"/>
		<path class="st5" d="M172.5,421.4l-78.7,78.9l0,0c-0.2,0.2-0.4,0.4-0.6,0.6L93,501c-0.6,0.8-1.2,1.6-1.7,2.3
			c-0.2,0-0.2-0.2-0.4-0.2l0,0c-9.1-8.1-12-20.2-6.2-26.7c0.2-0.2,0.6-0.6,0.8-0.8l0,0l79.4-79.4
			C164.1,401.8,164.9,410.5,172.5,421.4z"/>
		<path class="st4" d="M167.8,393.5L167.8,393.5v-0.2V393.5z"/>
		<path class="st5" d="M211.2,411.9l-0.6,0.8l0,0l-0.6,7.9c-20.3-1.4-30.2-10.7-34.7-20.7c-4.7-10.3-4.1-20.9-3.9-24.2l10.9,1.6
			l144.2-147.1c-0.2,5.4,0.8,14.7,8.3,24.6L190.5,402h-0.2C194.2,408.6,205.2,410.9,211.2,411.9z"/>
		<path class="st5" d="M375.3,245l-0.4,8.1c-18.4-0.8-28.7-8.5-34.5-17.1c-6.2-9.7-7-20.3-7-24.6h11.4l85.1-86.6l0.2,0.2
			c-0.6,0.4-1.2,0.8-1.7,1.6c-5.8,6.6-3.3,18.4,6,26.5L356,233l0,0C358.5,237.9,363.5,242.9,375.3,245z"/>
		<path class="st6" d="M210.1,420.4l-0.4,6.2l-2.9,0.2l0,0c-7.9-0.6-24.8-3.7-34.1-19.2l0,0c-0.2-0.4-0.4-0.8-0.6-1.2
			c-0.2-0.4-0.4-0.6-0.6-1.2c0,0,0,0,0-0.2c-0.2-0.2-0.2-0.6-0.4-1.2c-0.2-0.6-0.4-1.2-0.6-1.7c-0.2-0.2-0.2-0.6-0.4-1.2
			c-0.2-0.4-0.2-0.8-0.4-1.4c0-0.2-0.2-0.4-0.2-0.6c0-0.2-0.2-0.4-0.2-0.6c-0.2-0.4-0.2-0.8-0.4-1.6c0,0,0,0,0-0.2s-0.2-0.6-0.2-0.8
			s-0.2-0.6-0.2-1.2c0-0.2-0.2-0.6-0.2-0.8v-0.2c0-0.2,0-0.6-0.2-0.8l0,0v-0.2c-0.8-5.4-1.2-11.4-0.4-18.2v-0.2c0.2-0.8,4.3,0,4.3,0
			s0,0.2,0,0.8c-0.2,3.3-0.8,14,3.9,24.2C179.8,409.8,189.7,419.1,210.1,420.4z"/>
		<path class="st4" d="M167.8,393.5L167.8,393.5v-0.2V393.5z"/>
		<path class="st6" d="M375.9,253.2c0,7.9,0,7.9,0,7.9s-6.4,0-14.5-2.3c-8.3-2.3-18.4-7-25.4-16.5c-4.1-5.6-7-12.6-8.1-21.7
			c-0.4-2.9-0.4-6.2-0.4-9.9c0.8-2.3,6.2-1.6,6.2-1.6s0,0.6,0,1.9c0,4.3,0.8,15.1,7,24.6c5.8,8.7,16.1,16.3,34.5,17.1
			C375.3,253.2,375.5,253.2,375.9,253.2z"/>
		<path class="st4" d="M190.5,401.6c0-0.2,0-0.2-0.2-0.4"/>
		<path class="st7" d="M455.8,150.1L455.8,150.1c-3.5,3.9-10.5,3.3-15.9-1.7l0,0l0,0c-5.4-4.8-6.8-12-3.5-15.9
			c0.2-0.2,0.6-0.6,0.8-0.8c3.7-2.9,9.9-1.9,14.9,2.5C457.7,139.1,459.4,146,455.8,150.1z"/>
	</g>
</g>
</svg>
