<svg id="timeline" xmlns="http://www.w3.org/2000/svg" viewBox="0 0 671.08 33.73"><defs><style>.cls-1{fill:#b59e6e;}.cls-2{isolation:isolate;font-size:27.96px;fill:#1d1d1b;font-family:AtramentSemiBold-Regular, Atrament;}</style></defs>
<g id="1800" data-name=" 1800"><path class="cls-1" d="M55.71,32.18H4.93a5.28,5.28,0,0,1-2.71-.74A4,4,0,0,1,.84,26a4.18,4.18,0,0,1,.89-1l7.51-6.49a3.67,3.67,0,0,0,.37-5.18,4,4,0,0,0-.52-.49L1.23,6.68A3.25,3.25,0,0,1,.59,2.21,5.41,5.41,0,0,1,4.93,0H55.68a5.4,5.4,0,0,1,5.2,4A4.34,4.34,0,0,0,62.5,6.4l9.29,6.71a3.67,3.67,0,0,1,0,5.94l-9.25,6.67a4.48,4.48,0,0,0-1.67,2.5A5.4,5.4,0,0,1,55.71,32.18Z" transform="translate(0.03 0)"/><text class="cls-2" transform="translate(12.35 26.78)">1800</text></g>
<g id="1802" data-name=" 1802"><path class="cls-1" d="M130.43,32.18H79.67a5.25,5.25,0,0,1-2.7-.74A4,4,0,0,1,75.59,26a4.18,4.18,0,0,1,.89-1L84,18.43a3.67,3.67,0,0,0,.39-5.16,3.71,3.71,0,0,0-.54-.51L76,6.68a3.23,3.23,0,0,1-.64-4.47A5.41,5.41,0,0,1,79.67,0h50.76a5.4,5.4,0,0,1,5.19,4,4.34,4.34,0,0,0,1.62,2.4l9.3,6.71a3.67,3.67,0,0,1,0,5.94l-9.26,6.67a4.58,4.58,0,0,0-1.67,2.5A5.39,5.39,0,0,1,130.43,32.18Z" transform="translate(0.03 0)"/><text class="cls-2" transform="translate(87.44 26.78)">1802</text></g>
<g id="1840" data-name=" 1840"><path class="cls-1" d="M205.14,32.18H154.39a5.28,5.28,0,0,1-2.71-.74A4,4,0,0,1,150.3,26a4.18,4.18,0,0,1,.89-1l7.51-6.49a3.67,3.67,0,0,0,.37-5.18,4,4,0,0,0-.52-.49l-7.86-6.08a3.25,3.25,0,0,1-.64-4.47A5.41,5.41,0,0,1,154.39,0h50.75a5.4,5.4,0,0,1,5.2,4A4.27,4.27,0,0,0,212,6.4l9.3,6.71a3.67,3.67,0,0,1,0,5.94L212,25.72a4.54,4.54,0,0,0-1.68,2.5A5.37,5.37,0,0,1,205.14,32.18Z" transform="translate(0.03 0)"/><text class="cls-2" transform="translate(162.75 26.78)">1840</text></g>
<g id="1848" data-name=" 1848"><path class="cls-1" d="M279.86,32.18H229.1a5.38,5.38,0,0,1-2.71-.74,4,4,0,0,1-.46-6.52l7.5-6.49a3.67,3.67,0,0,0,.37-5.18,4,4,0,0,0-.52-.49l-7.85-6.08a3.24,3.24,0,0,1-.65-4.47A5.41,5.41,0,0,1,229.12,0h50.76a5.4,5.4,0,0,1,5.19,4,4.34,4.34,0,0,0,1.62,2.4l9.24,6.72a3.66,3.66,0,0,1,0,5.94l-9.25,6.67a4.48,4.48,0,0,0-1.67,2.5A5.4,5.4,0,0,1,279.86,32.18Z" transform="translate(0.03 0)"/><text class="cls-2" transform="translate(238.07 26.78)">1848</text></g>
<g id="1850" data-name=" 1850"><path class="cls-1" d="M354.57,32.18H303.82a5.28,5.28,0,0,1-2.71-.74A4,4,0,0,1,299.73,26a4.18,4.18,0,0,1,.89-1l7.51-6.49a3.67,3.67,0,0,0,.37-5.18,4,4,0,0,0-.52-.49l-7.86-6.08a3.25,3.25,0,0,1-.64-4.47A5.41,5.41,0,0,1,303.82,0h50.75a5.4,5.4,0,0,1,5.2,4,4.27,4.27,0,0,0,1.61,2.4l9.3,6.71a3.67,3.67,0,0,1,0,5.94l-9.25,6.67a4.54,4.54,0,0,0-1.68,2.5A5.37,5.37,0,0,1,354.57,32.18Z" transform="translate(0.03 0)"/><text class="cls-2" transform="translate(311.35 26.78)">1850</text></g>
<g id="1860" data-name=" 1860"><path class="cls-1" d="M429.29,32.18H378.53a5.38,5.38,0,0,1-2.71-.74A4,4,0,0,1,374.45,26a4.18,4.18,0,0,1,.89-1l7.5-6.49a3.67,3.67,0,0,0,.37-5.18,4,4,0,0,0-.52-.49l-7.86-6.08a3.25,3.25,0,0,1-.64-4.47A5.41,5.41,0,0,1,378.53,0h50.76a5.4,5.4,0,0,1,5.19,4,4.34,4.34,0,0,0,1.62,2.4l9.29,6.71a3.66,3.66,0,0,1,0,5.94l-9.25,6.67a4.48,4.48,0,0,0-1.67,2.5A5.39,5.39,0,0,1,429.29,32.18Z" transform="translate(0.03 0)"/><text class="cls-2" transform="translate(386.41 26.78)">1860</text></g>
<g id="1878" data-name=" 1878"><path class="cls-1" d="M504,32.18H453.25a5.28,5.28,0,0,1-2.71-.74A4,4,0,0,1,449.16,26a4.18,4.18,0,0,1,.89-1l7.51-6.49a3.67,3.67,0,0,0,.36-5.18,4,4,0,0,0-.52-.49l-7.85-6.08a3.24,3.24,0,0,1-.64-4.47A5.41,5.41,0,0,1,453.25,0H504a5.4,5.4,0,0,1,5.2,4,4.27,4.27,0,0,0,1.61,2.4l9.3,6.71a3.67,3.67,0,0,1,0,5.94l-9.25,6.67a4.54,4.54,0,0,0-1.68,2.5A5.39,5.39,0,0,1,504,32.18Z" transform="translate(0.03 0)"/><text class="cls-2" transform="translate(461.99 26.78)">1878</text></g>
<g id="1879" data-name=" 1879"><path class="cls-1" d="M578.72,32.18H527.93a5.28,5.28,0,0,1-2.71-.74A4,4,0,0,1,523.84,26a4.18,4.18,0,0,1,.89-1l7.51-6.49a3.67,3.67,0,0,0,.37-5.18,4,4,0,0,0-.52-.49l-7.86-6.08a3.25,3.25,0,0,1-.64-4.47A5.41,5.41,0,0,1,527.93,0h50.76a5.4,5.4,0,0,1,5.19,4,4.34,4.34,0,0,0,1.62,2.4l9.29,6.71a3.66,3.66,0,0,1,0,5.94l-9.25,6.67a4.48,4.48,0,0,0-1.67,2.5A5.39,5.39,0,0,1,578.72,32.18Z" transform="translate(0.03 0)"/><text class="cls-2" transform="translate(537.05 26.78)">1879</text></g>
<g id="1880" data-name=" 1880"><path class="cls-1" d="M653.43,32.7H602.68A5.36,5.36,0,0,1,600,32a4,4,0,0,1-.49-6.53L607,18.94a3.67,3.67,0,0,0,.37-5.17,4.1,4.1,0,0,0-.52-.5L599,7.19a3.24,3.24,0,0,1-.64-4.47A5.41,5.41,0,0,1,602.68.51h50.75a5.42,5.42,0,0,1,5.2,4,4.22,4.22,0,0,0,1.62,2.4l9.29,6.71a3.68,3.68,0,0,1,.81,5.13,3.94,3.94,0,0,1-.81.82l-9.25,6.67a4.41,4.41,0,0,0-1.67,2.5A5.42,5.42,0,0,1,653.43,32.7Z" transform="translate(0.03 0)"/><text class="cls-2" transform="translate(611.12 27.3)">1880</text></g></svg>