<svg id="Torch" xmlns="http://www.w3.org/2000/svg" viewBox="0 0 106.14 411.34"><defs><style>.cls-1{fill:#473414;}.cls-2{fill:#d0cbb6;}.cls-3{fill:none;stroke:#1d1d1b;stroke-miterlimit:10;}.cls-4{fill:#ffda00;}.cls-5{fill:#ef7b00;}.cls-6{fill:#e6312f;}</style></defs><g id="body_torch" data-name="body torch"><path class="cls-1" d="M224,403.5C206.05,546.25,214.37,664,202.5,664s-.44-118.18-21.5-260.5c-7.7-52.05,17.7-47.64,19.87-36C207.76,404.53,236,308,224,403.5Z" transform="translate(-155.22 -252.66)"/><path class="cls-2" d="M228.71,362.94c2.11,5.72-.78,18.38-5.48,21.19-2.52,1.51-2.56-13.24-6.38-11.36C212.31,375,214,386,208,390.13c-4.81,3.36-6.62-13.31-10.21-12-4.78,1.74-12.75,14.54-15.11,12.29-2.19-2.08-3.28-6-3.16-11.82.07-3.73-.29-8.53,1.72-13.62,6-15.21,9.06-11.64,25.08-12.51C220.68,351.69,222.62,346.42,228.71,362.94Z" transform="translate(-155.22 -252.66)"/><path class="cls-3" d="M180.5,367.35l20.68,4.4a20.58,20.58,0,0,0,4.42.5h.16a20.52,20.52,0,0,0,4.74-.66l18.92-4.71" transform="translate(-155.22 -252.66)"/></g><path id="yellow_torch" data-name="yellow torch" class="cls-4" d="M241.19,325c-2.5,19.59-11.33,45.9-41.87,41.84-20.9-2.78-30.73-37.95-36.07-60.26-2.47-10.29,10.88-.14,12.78-14.38,1.21-9.07-24.39-20.8-17.41-26.23,7.45-5.8,35.74-10.4,46.2-13.12,12.53-3.26-2.06,40,9,39.35,14-.77,18.75-39.35,18.75-39.35S261.9,263.43,261.35,286C261.13,295.18,242.85,312,241.19,325Z" transform="translate(-155.22 -252.66)"/><path id="orange_torch" data-name="orange torch" class="cls-5" d="M236.32,316.86c5.22,34.81-10.38,44.55-33.95,48.08s-3.13-27.82-34.36-44.05c-9.31-4.84-13.62-14.42-12.66-20.53,1.12-7.13,23.32,3.32,25.94-3.47,3.14-8.15-13.08-33.37-9.48-39.74,6.19-11,25.82,18.3,25.82,18.3s24-28.3,34.47-16.34c4.62,5.25-18.93,27.55-14.3,34s22-10.47,31.91-12.77C257.15,278.58,235.33,310.28,236.32,316.86Z" transform="translate(-155.22 -252.66)"/><path id="red_torch" data-name="red torch" class="cls-6" d="M237.64,340.86c-1.17,6.29-12.24,2.78-14.3,6.76-7,13.6-9.49,23.51-24,20.81-11.56-2.15-5-17.4-8.4-29-2.14-7.24-17.26-8.05-15.28-18.72,1.75-9.41,12.56-3.58,18.6-7.07a111.1,111.1,0,0,0,21.27-16.57s-4.71,13.62,2,25.76C221.16,329.57,239.47,331,237.64,340.86Z" transform="translate(-155.22 -252.66)"/></svg>