<svg id="voltaic_pile" data-name="voltaic pile" xmlns="http://www.w3.org/2000/svg" viewBox="0 0 423.43 559.94"><defs><style>.cls-1{fill:#c39257;}.cls-2{fill:#f6b66b;}.cls-3{fill:#cecece;}.cls-4{fill:#f3f3f3;}.cls-5{fill:#a6a7a6;}.cls-6{fill:#cececd;}.cls-7,.cls-8{fill:none;stroke-miterlimit:10;}.cls-7{stroke:#1d1d1b;stroke-width:5px;}.cls-8{stroke:#878787;}.cls-9{fill:#cdcccc;}.cls-10{fill:#af9787;}.cls-11{fill:#e8c6b0;}.cls-12{fill:#bce2e9;}.cls-13{fill:#ababac;}.cls-14{fill:#f9d1d8;}</style></defs><g id="zinc_disk" data-name="zinc disk"><path class="cls-1" d="M305.66,496.91c-21.43,0-39.08-5.81-41.46-13.28a5.71,5.71,0,0,0-.29,1.73c0,8.28,18.7,15,41.75,15s41.75-6.72,41.75-15a5.69,5.69,0,0,0-.28-1.73C344.75,491.1,327.1,496.91,305.66,496.91Z" transform="translate(-62 -84.89)"/><ellipse class="cls-2" cx="243.66" cy="398.74" rx="41.47" ry="13.28"/></g><g id="salt_cloth" data-name="salt cloth"><path class="cls-3" d="M305.66,448.69c-21.43,0-39.08-5.8-41.46-13.27a5.64,5.64,0,0,0-.29,1.72c0,8.28,18.7,15,41.75,15s41.75-6.72,41.75-15a5.63,5.63,0,0,0-.28-1.72C344.75,442.89,327.1,448.69,305.66,448.69Z" transform="translate(-62 -84.89)"/><ellipse class="cls-4" cx="243.66" cy="350.52" rx="41.47" ry="13.28"/></g><g id="silver_disk" data-name="silver disk"><path class="cls-5" d="M305.66,401.33c-21.43,0-39.08-5.81-41.46-13.28a5.69,5.69,0,0,0-.29,1.72c0,8.29,18.7,15,41.75,15s41.75-6.71,41.75-15a5.68,5.68,0,0,0-.28-1.72C344.75,395.52,327.1,401.33,305.66,401.33Z" transform="translate(-62 -84.89)"/><ellipse class="cls-6" cx="243.66" cy="303.16" rx="41.47" ry="13.28"/></g><line id="minus" class="cls-7" x1="225.25" y1="262.54" x2="263.55" y2="262.54"/><g id="plus"><line class="cls-7" x1="224.52" y1="453.19" x2="262.81" y2="453.19"/><line class="cls-7" x1="243.66" y1="434.04" x2="243.66" y2="472.34"/></g><g id="body_voltaic" data-name="body voltaic"><line class="cls-8" x1="375.12" y1="512.64" x2="380.86" y2="500.67"/><line class="cls-8" x1="377.77" y1="514.11" x2="377.42" y2="500.84"/><line class="cls-8" x1="377.46" y1="513.77" x2="383.2" y2="501.8"/><line class="cls-8" x1="373.9" y1="514.41" x2="385.4" y2="507.77"/><line class="cls-8" x1="374.23" y1="513.37" x2="383.07" y2="503.46"/><line class="cls-8" x1="373.81" y1="515.62" x2="383.92" y2="506.09"/><line class="cls-7" x1="385.13" y1="519.27" x2="423.43" y2="519.27"/><line class="cls-7" x1="404.28" y1="500.12" x2="404.28" y2="538.42"/><line class="cls-8" x1="392.81" y1="189.19" x2="402.38" y2="179.99"/><line class="cls-8" x1="394.77" y1="191.49" x2="399.1" y2="178.95"/><line class="cls-8" x1="394.61" y1="191.06" x2="404.18" y2="181.87"/><line class="cls-8" x1="391.05" y1="190.41" x2="404.14" y2="188.23"/><line class="cls-8" x1="391.72" y1="189.55" x2="403.47" y2="183.38"/><line class="cls-8" x1="390.53" y1="191.51" x2="403.34" y2="186.14"/><rect class="cls-9" x="21.3" y="529.53" width="11.49" height="26.81" rx="5.74"/><rect class="cls-9" x="136.19" y="529.53" width="11.49" height="26.81" rx="5.74"/><path class="cls-10" d="M149.17,624.26c-42.87,0-78.17-11.61-82.93-26.56a11,11,0,0,0-.57,3.45c0,16.57,37.38,30,83.5,30s83.5-13.43,83.5-30a11,11,0,0,0-.57-3.45C227.34,612.65,192,624.26,149.17,624.26Z" transform="translate(-62 -84.89)"/><ellipse class="cls-11" cx="87.17" cy="512.81" rx="82.93" ry="26.55"/><rect class="cls-9" x="21.3" y="78.89" width="11.49" height="437.36" rx="5.74"/><rect class="cls-9" x="136.19" y="78.89" width="11.49" height="437.36" rx="5.74"/><path class="cls-1" d="M145.5,602.33c-21.43,0-39.09-5.8-41.47-13.27a5.63,5.63,0,0,0-.28,1.72c0,8.28,18.69,15,41.75,15s41.75-6.72,41.75-15a5.63,5.63,0,0,0-.28-1.72C184.59,596.53,166.93,602.33,145.5,602.33Z" transform="translate(-62 -84.89)"/><ellipse class="cls-2" cx="83.5" cy="504.16" rx="41.47" ry="13.28"/><path class="cls-3" d="M145.5,595.58c-21.43,0-39.09-5.8-41.47-13.28a5.69,5.69,0,0,0-.28,1.73c0,8.28,18.69,15,41.75,15s41.75-6.72,41.75-15a5.69,5.69,0,0,0-.28-1.73C184.59,589.78,166.93,595.58,145.5,595.58Z" transform="translate(-62 -84.89)"/><ellipse class="cls-4" cx="83.5" cy="497.41" rx="41.47" ry="13.28"/><path class="cls-5" d="M145.5,587.33c-21.43,0-39.09-5.8-41.47-13.27a5.63,5.63,0,0,0-.28,1.72c0,8.28,18.69,15,41.75,15s41.75-6.72,41.75-15a5.63,5.63,0,0,0-.28-1.72C184.59,581.53,166.93,587.33,145.5,587.33Z" transform="translate(-62 -84.89)"/><ellipse class="cls-6" cx="83.5" cy="489.16" rx="41.47" ry="13.28"/><path class="cls-1" d="M145.5,579.83c-21.43,0-39.09-5.8-41.47-13.27a5.63,5.63,0,0,0-.28,1.72c0,8.28,18.69,15,41.75,15s41.75-6.72,41.75-15a5.63,5.63,0,0,0-.28-1.72C184.59,574,166.93,579.83,145.5,579.83Z" transform="translate(-62 -84.89)"/><ellipse class="cls-2" cx="83.5" cy="481.66" rx="41.47" ry="13.28"/><path class="cls-3" d="M145.5,573.08c-21.43,0-39.09-5.8-41.47-13.28a5.69,5.69,0,0,0-.28,1.73c0,8.28,18.69,15,41.75,15s41.75-6.72,41.75-15a5.69,5.69,0,0,0-.28-1.73C184.59,567.28,166.93,573.08,145.5,573.08Z" transform="translate(-62 -84.89)"/><ellipse class="cls-4" cx="83.5" cy="474.91" rx="41.47" ry="13.28"/><path class="cls-5" d="M145.5,564.83c-21.43,0-39.09-5.8-41.47-13.27a5.63,5.63,0,0,0-.28,1.72c0,8.28,18.69,15,41.75,15s41.75-6.72,41.75-15a5.63,5.63,0,0,0-.28-1.72C184.59,559,166.93,564.83,145.5,564.83Z" transform="translate(-62 -84.89)"/><ellipse class="cls-6" cx="83.5" cy="466.66" rx="41.47" ry="13.28"/><path class="cls-1" d="M145.5,557.33c-21.43,0-39.09-5.8-41.47-13.27a5.63,5.63,0,0,0-.28,1.72c0,8.28,18.69,15,41.75,15s41.75-6.72,41.75-15a5.63,5.63,0,0,0-.28-1.72C184.59,551.53,166.93,557.33,145.5,557.33Z" transform="translate(-62 -84.89)"/><ellipse class="cls-2" cx="83.5" cy="459.16" rx="41.47" ry="13.28"/><path class="cls-3" d="M145.5,550.58c-21.43,0-39.09-5.8-41.47-13.28a5.69,5.69,0,0,0-.28,1.73c0,8.28,18.69,15,41.75,15s41.75-6.72,41.75-15a5.69,5.69,0,0,0-.28-1.73C184.59,544.78,166.93,550.58,145.5,550.58Z" transform="translate(-62 -84.89)"/><ellipse class="cls-4" cx="83.5" cy="452.41" rx="41.47" ry="13.28"/><path class="cls-5" d="M145.5,542.33c-21.43,0-39.09-5.8-41.47-13.27a5.63,5.63,0,0,0-.28,1.72c0,8.28,18.69,15,41.75,15s41.75-6.72,41.75-15a5.63,5.63,0,0,0-.28-1.72C184.59,536.53,166.93,542.33,145.5,542.33Z" transform="translate(-62 -84.89)"/><ellipse class="cls-6" cx="83.5" cy="444.16" rx="41.47" ry="13.28"/><path class="cls-1" d="M145.5,534.83c-21.43,0-39.09-5.8-41.47-13.27a5.63,5.63,0,0,0-.28,1.72c0,8.28,18.69,15,41.75,15s41.75-6.72,41.75-15a5.63,5.63,0,0,0-.28-1.72C184.59,529,166.93,534.83,145.5,534.83Z" transform="translate(-62 -84.89)"/><ellipse class="cls-2" cx="83.5" cy="436.66" rx="41.47" ry="13.28"/><path class="cls-3" d="M145.5,528.08c-21.43,0-39.09-5.8-41.47-13.28a5.69,5.69,0,0,0-.28,1.73c0,8.28,18.69,15,41.75,15s41.75-6.72,41.75-15a5.69,5.69,0,0,0-.28-1.73C184.59,522.28,166.93,528.08,145.5,528.08Z" transform="translate(-62 -84.89)"/><ellipse class="cls-4" cx="83.5" cy="429.91" rx="41.47" ry="13.28"/><path class="cls-5" d="M145.5,519.83c-21.43,0-39.09-5.8-41.47-13.27a5.63,5.63,0,0,0-.28,1.72c0,8.28,18.69,15,41.75,15s41.75-6.72,41.75-15a5.63,5.63,0,0,0-.28-1.72C184.59,514,166.93,519.83,145.5,519.83Z" transform="translate(-62 -84.89)"/><ellipse class="cls-6" cx="83.5" cy="421.66" rx="41.47" ry="13.28"/><path class="cls-1" d="M145.5,511.36c-21.43,0-39.09-5.81-41.47-13.28a5.68,5.68,0,0,0-.28,1.72c0,8.29,18.69,15,41.75,15s41.75-6.71,41.75-15a5.68,5.68,0,0,0-.28-1.72C184.59,505.55,166.93,511.36,145.5,511.36Z" transform="translate(-62 -84.89)"/><ellipse class="cls-2" cx="83.5" cy="413.19" rx="41.47" ry="13.28"/><path class="cls-3" d="M145.5,504.6c-21.43,0-39.09-5.8-41.47-13.27a5.63,5.63,0,0,0-.28,1.72c0,8.28,18.69,15,41.75,15s41.75-6.72,41.75-15a5.63,5.63,0,0,0-.28-1.72C184.59,498.8,166.93,504.6,145.5,504.6Z" transform="translate(-62 -84.89)"/><ellipse class="cls-4" cx="83.5" cy="406.43" rx="41.47" ry="13.28"/><path class="cls-5" d="M145.5,496.36c-21.43,0-39.09-5.81-41.47-13.28a5.68,5.68,0,0,0-.28,1.72c0,8.29,18.69,15,41.75,15s41.75-6.71,41.75-15a5.68,5.68,0,0,0-.28-1.72C184.59,490.55,166.93,496.36,145.5,496.36Z" transform="translate(-62 -84.89)"/><ellipse class="cls-6" cx="83.5" cy="398.19" rx="41.47" ry="13.28"/><path class="cls-1" d="M145.5,488.86c-21.43,0-39.09-5.81-41.47-13.28a5.68,5.68,0,0,0-.28,1.72c0,8.29,18.69,15,41.75,15s41.75-6.71,41.75-15a5.68,5.68,0,0,0-.28-1.72C184.59,483.05,166.93,488.86,145.5,488.86Z" transform="translate(-62 -84.89)"/><ellipse class="cls-2" cx="83.5" cy="390.69" rx="41.47" ry="13.28"/><path class="cls-3" d="M145.5,482.1c-21.43,0-39.09-5.8-41.47-13.27a5.63,5.63,0,0,0-.28,1.72c0,8.28,18.69,15,41.75,15s41.75-6.72,41.75-15a5.63,5.63,0,0,0-.28-1.72C184.59,476.3,166.93,482.1,145.5,482.1Z" transform="translate(-62 -84.89)"/><ellipse class="cls-4" cx="83.5" cy="383.93" rx="41.47" ry="13.28"/><path class="cls-5" d="M145.5,473.86c-21.43,0-39.09-5.81-41.47-13.28a5.68,5.68,0,0,0-.28,1.72c0,8.29,18.69,15,41.75,15s41.75-6.71,41.75-15a5.68,5.68,0,0,0-.28-1.72C184.59,468.05,166.93,473.86,145.5,473.86Z" transform="translate(-62 -84.89)"/><ellipse class="cls-6" cx="83.5" cy="375.69" rx="41.47" ry="13.28"/><path class="cls-1" d="M145.5,467.33c-21.43,0-39.09-5.8-41.47-13.27a5.63,5.63,0,0,0-.28,1.72c0,8.28,18.69,15,41.75,15s41.75-6.72,41.75-15a5.63,5.63,0,0,0-.28-1.72C184.59,461.53,166.93,467.33,145.5,467.33Z" transform="translate(-62 -84.89)"/><ellipse class="cls-2" cx="83.5" cy="369.16" rx="41.47" ry="13.28"/><path class="cls-3" d="M145.5,460.58c-21.43,0-39.09-5.8-41.47-13.28a5.69,5.69,0,0,0-.28,1.73c0,8.28,18.69,15,41.75,15s41.75-6.72,41.75-15a5.69,5.69,0,0,0-.28-1.73C184.59,454.78,166.93,460.58,145.5,460.58Z" transform="translate(-62 -84.89)"/><ellipse class="cls-4" cx="83.5" cy="362.41" rx="41.47" ry="13.28"/><path class="cls-5" d="M145.5,452.33c-21.43,0-39.09-5.8-41.47-13.27a5.63,5.63,0,0,0-.28,1.72c0,8.28,18.69,15,41.75,15s41.75-6.72,41.75-15a5.63,5.63,0,0,0-.28-1.72C184.59,446.53,166.93,452.33,145.5,452.33Z" transform="translate(-62 -84.89)"/><ellipse class="cls-6" cx="83.5" cy="354.16" rx="41.47" ry="13.28"/><path class="cls-1" d="M145.5,444.83c-21.43,0-39.09-5.8-41.47-13.27a5.63,5.63,0,0,0-.28,1.72c0,8.28,18.69,15,41.75,15s41.75-6.72,41.75-15a5.63,5.63,0,0,0-.28-1.72C184.59,439,166.93,444.83,145.5,444.83Z" transform="translate(-62 -84.89)"/><ellipse class="cls-2" cx="83.5" cy="346.66" rx="41.47" ry="13.28"/><path class="cls-3" d="M145.5,438.08c-21.43,0-39.09-5.8-41.47-13.28a5.69,5.69,0,0,0-.28,1.73c0,8.28,18.69,15,41.75,15s41.75-6.72,41.75-15a5.69,5.69,0,0,0-.28-1.73C184.59,432.28,166.93,438.08,145.5,438.08Z" transform="translate(-62 -84.89)"/><ellipse class="cls-4" cx="83.5" cy="339.91" rx="41.47" ry="13.28"/><path class="cls-5" d="M145.5,429.83c-21.43,0-39.09-5.8-41.47-13.27a5.63,5.63,0,0,0-.28,1.72c0,8.28,18.69,15,41.75,15s41.75-6.72,41.75-15a5.63,5.63,0,0,0-.28-1.72C184.59,424,166.93,429.83,145.5,429.83Z" transform="translate(-62 -84.89)"/><ellipse class="cls-6" cx="83.5" cy="331.66" rx="41.47" ry="13.28"/><path class="cls-1" d="M146.49,422.33c-21.44,0-39.09-5.8-41.47-13.27a5.63,5.63,0,0,0-.28,1.72c0,8.28,18.69,15,41.75,15s41.75-6.72,41.75-15a5.63,5.63,0,0,0-.28-1.72C185.58,416.53,167.92,422.33,146.49,422.33Z" transform="translate(-62 -84.89)"/><ellipse class="cls-2" cx="84.49" cy="324.16" rx="41.47" ry="13.28"/><path class="cls-3" d="M146.49,415.58c-21.44,0-39.09-5.8-41.47-13.28a5.69,5.69,0,0,0-.28,1.73c0,8.28,18.69,15,41.75,15s41.75-6.72,41.75-15a5.69,5.69,0,0,0-.28-1.73C185.58,409.78,167.92,415.58,146.49,415.58Z" transform="translate(-62 -84.89)"/><ellipse class="cls-4" cx="84.49" cy="317.41" rx="41.47" ry="13.28"/><path class="cls-5" d="M146.49,407.33c-21.44,0-39.09-5.8-41.47-13.27a5.63,5.63,0,0,0-.28,1.72c0,8.28,18.69,15,41.75,15s41.75-6.72,41.75-15a5.63,5.63,0,0,0-.28-1.72C185.58,401.53,167.92,407.33,146.49,407.33Z" transform="translate(-62 -84.89)"/><ellipse class="cls-6" cx="84.49" cy="309.16" rx="41.47" ry="13.28"/><path class="cls-1" d="M146.49,401.52c-21.44,0-39.09-5.8-41.47-13.28a5.69,5.69,0,0,0-.28,1.73c0,8.28,18.69,15,41.75,15s41.75-6.72,41.75-15a5.69,5.69,0,0,0-.28-1.73C185.58,395.72,167.92,401.52,146.49,401.52Z" transform="translate(-62 -84.89)"/><ellipse class="cls-2" cx="84.49" cy="303.35" rx="41.47" ry="13.28"/><path class="cls-3" d="M146.49,394.77c-21.44,0-39.09-5.81-41.47-13.28a5.68,5.68,0,0,0-.28,1.72c0,8.29,18.69,15,41.75,15s41.75-6.71,41.75-15a5.68,5.68,0,0,0-.28-1.72C185.58,389,167.92,394.77,146.49,394.77Z" transform="translate(-62 -84.89)"/><ellipse class="cls-4" cx="84.49" cy="296.6" rx="41.47" ry="13.28"/><path class="cls-5" d="M146.49,386.52c-21.44,0-39.09-5.8-41.47-13.28a5.69,5.69,0,0,0-.28,1.73c0,8.28,18.69,15,41.75,15s41.75-6.72,41.75-15a5.69,5.69,0,0,0-.28-1.73C185.58,380.72,167.92,386.52,146.49,386.52Z" transform="translate(-62 -84.89)"/><ellipse class="cls-6" cx="84.49" cy="288.35" rx="41.47" ry="13.28"/><path class="cls-1" d="M146.49,379c-21.44,0-39.09-5.8-41.47-13.28a5.69,5.69,0,0,0-.28,1.73c0,8.28,18.69,15,41.75,15s41.75-6.72,41.75-15a5.69,5.69,0,0,0-.28-1.73C185.58,373.22,167.92,379,146.49,379Z" transform="translate(-62 -84.89)"/><ellipse class="cls-2" cx="84.49" cy="280.85" rx="41.47" ry="13.28"/><path class="cls-3" d="M146.49,372.27c-21.44,0-39.09-5.81-41.47-13.28a5.68,5.68,0,0,0-.28,1.72c0,8.29,18.69,15,41.75,15s41.75-6.71,41.75-15A5.68,5.68,0,0,0,188,359C185.58,366.46,167.92,372.27,146.49,372.27Z" transform="translate(-62 -84.89)"/><ellipse class="cls-4" cx="84.49" cy="274.1" rx="41.47" ry="13.28"/><path class="cls-5" d="M146.49,364c-21.44,0-39.09-5.8-41.47-13.28a5.69,5.69,0,0,0-.28,1.73c0,8.28,18.69,15,41.75,15s41.75-6.72,41.75-15a5.69,5.69,0,0,0-.28-1.73C185.58,358.22,167.92,364,146.49,364Z" transform="translate(-62 -84.89)"/><ellipse class="cls-6" cx="84.49" cy="265.85" rx="41.47" ry="13.28"/><path class="cls-1" d="M146.49,356.52c-21.44,0-39.09-5.8-41.47-13.28a5.69,5.69,0,0,0-.28,1.73c0,8.28,18.69,15,41.75,15s41.75-6.72,41.75-15a5.69,5.69,0,0,0-.28-1.73C185.58,350.72,167.92,356.52,146.49,356.52Z" transform="translate(-62 -84.89)"/><ellipse class="cls-2" cx="84.49" cy="258.35" rx="41.47" ry="13.28"/><path class="cls-3" d="M146.49,349.77c-21.44,0-39.09-5.81-41.47-13.28a5.68,5.68,0,0,0-.28,1.72c0,8.29,18.69,15,41.75,15s41.75-6.71,41.75-15a5.68,5.68,0,0,0-.28-1.72C185.58,344,167.92,349.77,146.49,349.77Z" transform="translate(-62 -84.89)"/><ellipse class="cls-4" cx="84.49" cy="251.6" rx="41.47" ry="13.28"/><path class="cls-5" d="M146.49,341.52c-21.44,0-39.09-5.8-41.47-13.28a5.69,5.69,0,0,0-.28,1.73c0,8.28,18.69,15,41.75,15s41.75-6.72,41.75-15a5.69,5.69,0,0,0-.28-1.73C185.58,335.72,167.92,341.52,146.49,341.52Z" transform="translate(-62 -84.89)"/><ellipse class="cls-6" cx="84.49" cy="243.35" rx="41.47" ry="13.28"/><path class="cls-1" d="M146.49,334c-21.44,0-39.09-5.8-41.47-13.28a5.69,5.69,0,0,0-.28,1.73c0,8.28,18.69,15,41.75,15s41.75-6.72,41.75-15a5.69,5.69,0,0,0-.28-1.73C185.58,328.22,167.92,334,146.49,334Z" transform="translate(-62 -84.89)"/><ellipse class="cls-2" cx="84.49" cy="235.85" rx="41.47" ry="13.28"/><path class="cls-3" d="M146.49,327.27c-21.44,0-39.09-5.81-41.47-13.28a5.68,5.68,0,0,0-.28,1.72c0,8.29,18.69,15,41.75,15s41.75-6.71,41.75-15A5.68,5.68,0,0,0,188,314C185.58,321.46,167.92,327.27,146.49,327.27Z" transform="translate(-62 -84.89)"/><ellipse class="cls-4" cx="84.49" cy="229.1" rx="41.47" ry="13.28"/><path class="cls-5" d="M146.49,319c-21.44,0-39.09-5.8-41.47-13.28a5.69,5.69,0,0,0-.28,1.73c0,8.28,18.69,15,41.75,15s41.75-6.72,41.75-15a5.69,5.69,0,0,0-.28-1.73C185.58,313.22,167.92,319,146.49,319Z" transform="translate(-62 -84.89)"/><ellipse class="cls-6" cx="84.49" cy="220.85" rx="41.47" ry="13.28"/><path class="cls-1" d="M146.49,311.52c-21.44,0-39.09-5.8-41.47-13.28a5.69,5.69,0,0,0-.28,1.73c0,8.28,18.69,15,41.75,15s41.75-6.72,41.75-15a5.69,5.69,0,0,0-.28-1.73C185.58,305.72,167.92,311.52,146.49,311.52Z" transform="translate(-62 -84.89)"/><ellipse class="cls-2" cx="84.49" cy="213.35" rx="41.47" ry="13.28"/><path class="cls-3" d="M146.49,304.77c-21.44,0-39.09-5.81-41.47-13.28a5.68,5.68,0,0,0-.28,1.72c0,8.29,18.69,15,41.75,15s41.75-6.71,41.75-15a5.68,5.68,0,0,0-.28-1.72C185.58,299,167.92,304.77,146.49,304.77Z" transform="translate(-62 -84.89)"/><ellipse class="cls-4" cx="84.49" cy="206.6" rx="41.47" ry="13.28"/><path class="cls-5" d="M146.49,296.52c-21.44,0-39.09-5.8-41.47-13.28a5.69,5.69,0,0,0-.28,1.73c0,8.28,18.69,15,41.75,15s41.75-6.72,41.75-15a5.69,5.69,0,0,0-.28-1.73C185.58,290.72,167.92,296.52,146.49,296.52Z" transform="translate(-62 -84.89)"/><ellipse class="cls-6" cx="84.49" cy="198.35" rx="41.47" ry="13.28"/><path class="cls-1" d="M146.49,289c-21.44,0-39.09-5.8-41.47-13.28a5.69,5.69,0,0,0-.28,1.73c0,8.28,18.69,15,41.75,15s41.75-6.72,41.75-15a5.69,5.69,0,0,0-.28-1.73C185.58,283.22,167.92,289,146.49,289Z" transform="translate(-62 -84.89)"/><ellipse class="cls-2" cx="84.49" cy="190.85" rx="41.47" ry="13.28"/><path class="cls-3" d="M146.49,282.27c-21.44,0-39.09-5.81-41.47-13.28a5.68,5.68,0,0,0-.28,1.72c0,8.29,18.69,15,41.75,15s41.75-6.71,41.75-15A5.68,5.68,0,0,0,188,269C185.58,276.46,167.92,282.27,146.49,282.27Z" transform="translate(-62 -84.89)"/><ellipse class="cls-4" cx="84.49" cy="184.1" rx="41.47" ry="13.28"/><path class="cls-5" d="M146.49,274c-21.44,0-39.09-5.8-41.47-13.28a5.69,5.69,0,0,0-.28,1.73c0,8.28,18.69,15,41.75,15s41.75-6.72,41.75-15a5.69,5.69,0,0,0-.28-1.73C185.58,268.22,167.92,274,146.49,274Z" transform="translate(-62 -84.89)"/><ellipse class="cls-6" cx="84.49" cy="175.85" rx="41.47" ry="13.28"/><path class="cls-1" d="M146.49,266.52c-21.44,0-39.09-5.8-41.47-13.28a5.69,5.69,0,0,0-.28,1.73c0,8.28,18.69,15,41.75,15s41.75-6.72,41.75-15a5.69,5.69,0,0,0-.28-1.73C185.58,260.72,167.92,266.52,146.49,266.52Z" transform="translate(-62 -84.89)"/><ellipse class="cls-2" cx="84.49" cy="168.35" rx="41.47" ry="13.28"/><path class="cls-3" d="M146.49,259.77c-21.44,0-39.09-5.81-41.47-13.28a5.68,5.68,0,0,0-.28,1.72c0,8.29,18.69,15,41.75,15s41.75-6.71,41.75-15a5.68,5.68,0,0,0-.28-1.72C185.58,254,167.92,259.77,146.49,259.77Z" transform="translate(-62 -84.89)"/><ellipse class="cls-4" cx="84.49" cy="161.6" rx="41.47" ry="13.28"/><path class="cls-5" d="M146.49,251.52c-21.44,0-39.09-5.8-41.47-13.28a5.69,5.69,0,0,0-.28,1.73c0,8.28,18.69,15,41.75,15s41.75-6.72,41.75-15a5.69,5.69,0,0,0-.28-1.73C185.58,245.72,167.92,251.52,146.49,251.52Z" transform="translate(-62 -84.89)"/><ellipse class="cls-6" cx="84.49" cy="153.35" rx="41.47" ry="13.28"/><line class="cls-8" x1="95.49" y1="151.96" x2="85.28" y2="160.44"/><line class="cls-8" x1="93.69" y1="149.52" x2="88.48" y2="161.72"/><line class="cls-8" x1="93.83" y1="149.96" x2="83.62" y2="158.44"/><line class="cls-8" x1="97.33" y1="150.86" x2="84.12" y2="152.1"/><line class="cls-8" x1="96.6" y1="151.67" x2="84.44" y2="156.99"/><line class="cls-8" x1="97.92" y1="149.8" x2="84.76" y2="154.25"/><path class="cls-12" d="M366.47,312.79q-5.13,0-10.39-.48c-29.11-2.71-62.21-17.14-98.38-42.9-3.63-2.58-6.57-4.83-9.18-6.81-6-4.6-10.37-7.91-18.34-11.87-21.67-10.76-46.87-14.52-74.91-11.2l-.71-6c29.22-3.46,55.55.5,78.28,11.79,8.49,4.21,13.27,7.85,19.32,12.47,2.57,1.95,5.47,4.17,9,6.69,35.31,25.14,67.42,39.21,95.47,41.81,41.05,3.82,76.46-17.11,98.94-35.34l3.78,4.66C437.92,293,405.06,312.79,366.47,312.79Z" transform="translate(-62 -84.89)"/><rect class="cls-13" x="77.6" y="90.38" width="9.57" height="64.73" rx="4.79"/><path class="cls-10" d="M145.5,185.11c-42.87,0-78.17-11.61-82.93-26.56A11,11,0,0,0,62,162c0,16.57,37.38,30,83.5,30S229,178.57,229,162a11,11,0,0,0-.57-3.45C223.67,173.5,188.37,185.11,145.5,185.11Z" transform="translate(-62 -84.89)"/><ellipse class="cls-11" cx="83.5" cy="73.66" rx="82.93" ry="26.55"/><line class="cls-8" x1="107.53" y1="517.61" x2="96.64" y2="525.2"/><line class="cls-8" x1="105.95" y1="515.03" x2="99.71" y2="526.74"/><line class="cls-8" x1="106.04" y1="515.48" x2="95.15" y2="523.06"/><line class="cls-8" x1="109.46" y1="516.68" x2="96.19" y2="516.79"/><line class="cls-8" x1="108.66" y1="517.42" x2="96.09" y2="521.68"/><line class="cls-8" x1="110.14" y1="515.67" x2="96.65" y2="518.98"/><rect class="cls-13" x="77.6" width="9.57" height="73.66" rx="4.79"/><path class="cls-14" d="M406.15,627.83c-3.42,0-34.79,3.64-38.3,3.32-29.11-2.7-61.74,29.36-97.91,3.6-3.62-2.58-6.57-4.83-9.17-6.81-6-4.59-10.38-7.91-18.35-11.87-21.67-10.75-46.87-14.52-74.91-11.2l-.71-6c29.22-3.47,55.56.49,78.29,11.78,8.48,4.21,13.26,7.85,19.31,12.47,2.57,2,5.48,4.17,9,6.69,35.3,25.14,64.09-11.4,92.13-8.8,41.06,3.82,48-7.25,70.47-25.48l9.62,2.08C414.92,607.92,432.21,618.2,406.15,627.83Z" transform="translate(-62 -84.89)"/><line class="cls-7" x1="380.25" y1="166.63" x2="418.54" y2="166.63"/></g></svg>