<svg id="warren" xmlns="http://www.w3.org/2000/svg" viewBox="0 0 600.07 78.24"><defs><style>.warrenTimeline-1{fill:#5ebeb8;}.warrenTimeline-1,.warrenTimeline-6{opacity:0.5;isolation:isolate;}.warrenTimeline-2{fill:#79603f;}.warrenTimeline-3{fill:#524128;}.warrenTimeline-4{fill:#660e36;}.warrenTimeline-5{fill:#1d1d1b;}.warrenTimeline-6{fill:#82cbd8;}</style></defs><rect class="warrenTimeline-1" x="140.67" y="9.03" width="318.74" height="60.66"/><rect class="warrenTimeline-2" x="102.64" y="4.26" width="38.03" height="69.72" rx="6.99"/><rect class="warrenTimeline-3" x="94.04" width="8.68" height="78.24" rx="4.34"/><rect class="warrenTimeline-2" x="4.77" y="35.78" width="42.89" height="8.85" rx="4.43"/><rect class="warrenTimeline-2" x="73.49" y="30.42" width="20.68" height="17.87"/><circle class="warrenTimeline-4" cx="60.85" cy="39.36" r="18.89"/><rect class="warrenTimeline-3" y="17.06" width="9.53" height="47.32" rx="4.77"/><rect class="warrenTimeline-2" x="534.51" y="237.52" width="38.03" height="69.72" rx="6.99" transform="translate(1031.94 311.5) rotate(-180)"/><rect class="warrenTimeline-3" x="572.46" y="233.26" width="8.68" height="78.24" rx="4.34" transform="translate(1078.49 311.5) rotate(-180)"/><rect class="warrenTimeline-2" x="627.52" y="269.04" width="42.89" height="8.85" rx="4.43" transform="translate(1222.83 313.68) rotate(-180)"/><rect class="warrenTimeline-2" x="581.01" y="263.68" width="20.68" height="17.87" transform="translate(1107.59 311.98) rotate(180)"/><circle class="warrenTimeline-4" cx="539.22" cy="39.36" r="18.89"/><rect class="warrenTimeline-3" x="665.65" y="250.32" width="9.53" height="47.32" rx="4.77" transform="translate(1265.72 314.7) rotate(-180)"/><polygon class="warrenTimeline-5" points="459.4 40.21 459.4 40.21 459.4 40.21 459.4 40.21"/><path class="warrenTimeline-5" d="M534.54,272.38h0l-.41-.29-.11.15c-2.59,3.67-5,5.39-7.28,5.1-3.57-.46-5.6-5.93-5.61-6s-.44-1.27-1.14-2.78c-1.44-3.08-4.21-7.74-8.17-8.79a7,7,0,0,0-5.74,1.12,5.9,5.9,0,0,0-3-2.54c-1.49-.46-3.13,0-5,1.3-.93.66-2,1.48-3.11,2.39l-.75.62c-.17-.32-.36-.64-.55-1a9.92,9.92,0,0,0-3.09-3.26c-2.34-1.47-5.21-1.56-8.55-.3-3.33-1.26-6.21-1.16-8.54.3a10.44,10.44,0,0,0-3.64,4.22c-1.38-1.17-2.72-2.2-3.87-3-1.89-1.34-3.53-1.76-5-1.3a5.88,5.88,0,0,0-3,2.54,7,7,0,0,0-5.75-1.12c-4.7,1.24-7.72,7.57-8.83,10.31-1.1-2.74-4.13-9.07-8.83-10.31a7,7,0,0,0-5.74,1.12,5.9,5.9,0,0,0-3-2.54c-1.49-.46-3.13,0-5,1.3-1.15.81-2.49,1.84-3.86,3a10.52,10.52,0,0,0-3.64-4.22c-2.34-1.47-5.22-1.56-8.55-.3-3.33-1.26-6.21-1.17-8.54.3a10.54,10.54,0,0,0-3.65,4.22c-1.37-1.17-2.71-2.2-3.86-3-1.89-1.34-3.53-1.76-5-1.3a5.84,5.84,0,0,0-3,2.54,7,7,0,0,0-5.75-1.12c-4.7,1.24-7.72,7.58-8.83,10.31-1.11-2.73-4.13-9.07-8.83-10.31a7,7,0,0,0-5.75,1.12,5.84,5.84,0,0,0-3-2.54c-1.49-.46-3.13,0-5,1.3-1.05.75-2.27,1.67-3.52,2.72a9.42,9.42,0,0,0-3.18-3.92c-2.21-1.47-5-1.57-8.37-.31-3.33-1.26-6.2-1.17-8.54.3a10.44,10.44,0,0,0-3.64,4.22c-1.37-1.17-2.72-2.2-3.87-3-1.88-1.34-3.52-1.76-5-1.3a5.9,5.9,0,0,0-3,2.54,7,7,0,0,0-5.75-1.12c-4.71,1.25-7.74,7.62-8.84,10.34-1.14-2.79-4.14-9-8.79-10.21a7,7,0,0,0-5.74,1.12,5.9,5.9,0,0,0-3-2.54c-1.49-.46-3.13,0-5,1.3-.78.55-1.66,1.21-2.58,1.95a7.27,7.27,0,0,0-2.26-3.27c-1.9-1.48-4.55-1.58-7.86-.32-3.34-1.26-6.21-1.17-8.55.3a10.52,10.52,0,0,0-3.64,4.22c-1.37-1.17-2.71-2.2-3.86-3-1.89-1.34-3.53-1.76-5-1.3a5.9,5.9,0,0,0-3,2.54,7,7,0,0,0-5.74-1.12c-5.9,1.56-9.17,11.16-9.31,11.57l.95.31.13-.35c.64-1.72,3.69-9.3,8.48-10.56a6.06,6.06,0,0,1,5,1,40.58,40.58,0,0,0-2.55,5.94l-.25.66c-.48,1.32-1,2.69-1.53,4-1,2.31-1,4,0,5.14,1.78,2.05,6.17.95,6.36.9l.14-.06c.18-.11,4.28-2.79,4.64-7.2a9,9,0,0,0-1.86-5.9,17.62,17.62,0,0,0-2.71-3c-.29-.26-.58-.51-.87-.73a4.89,4.89,0,0,1,2.49-2.15c1.17-.37,2.52,0,4.14,1.16,1.12.79,2.26,1.68,3.37,2.6l.63.52a23.06,23.06,0,0,0-1.66,6.59v.12c0,.3,1.31,7.32,4.78,8.85a3.5,3.5,0,0,0,1.41.3,4.59,4.59,0,0,0,2.48-.83,4.15,4.15,0,0,0,2.1-3.55c.09-3.61-3.89-8.18-7.89-11.72a11.56,11.56,0,0,1,.6-1.09,8.75,8.75,0,0,1,2.79-3c2-1.22,4.39-1.33,7.23-.35l.59.21.19-.47h0l.18.47c.19-.08.37-.13.55-.2,2.79-1,5-.88,6.52.31a6.34,6.34,0,0,1,1.91,2.78c0,.13.1.25.14.37-4.37,3.65-9.24,8.82-9.14,12.8a4.15,4.15,0,0,0,2.1,3.55,4.59,4.59,0,0,0,2.48.83,3.5,3.5,0,0,0,1.41-.3c3.47-1.53,4.73-8.55,4.79-8.87a22.21,22.21,0,0,0-.49-7.67,1.56,1.56,0,0,0,.2-.16c.88-.7,1.76-1.37,2.63-2,1.62-1.14,3-1.52,4.15-1.15a5,5,0,0,1,2.49,2.15c-.3.22-.59.47-.88.73a19,19,0,0,0-2.33,2.48,9.22,9.22,0,0,0-2.23,6.43c.35,4.41,4.45,7.09,4.63,7.2l.14.06c.19.05,4.58,1.15,6.36-.9.95-1.1.94-2.83,0-5.14-.54-1.29-1-2.66-1.53-4l-.42-1.12a38.29,38.29,0,0,0-2.38-5.48,6.06,6.06,0,0,1,5-1c4.76,1.25,7.81,8.76,8.47,10.53.09.23.14.37.14.38l.65-.21.27.08.13-.35c.63-1.72,3.69-9.3,8.48-10.56a6.06,6.06,0,0,1,5,1,41.67,41.67,0,0,0-2.56,5.94l-.24.66c-.49,1.32-1,2.69-1.53,4-1,2.31-1,4,0,5.14,1.77,2.05,6.17.95,6.36.9l.14-.06c.18-.11,4.28-2.79,4.63-7.2a8.92,8.92,0,0,0-1.85-5.9,17.62,17.62,0,0,0-2.71-3c-.3-.26-.59-.51-.88-.73a5,5,0,0,1,2.49-2.15c1.17-.37,2.53,0,4.15,1.16,1.12.79,2.26,1.68,3.37,2.6l.63.52a23.06,23.06,0,0,0-1.66,6.59v.12c.06.3,1.31,7.32,4.79,8.85a3.47,3.47,0,0,0,1.41.3,4.61,4.61,0,0,0,2.48-.83,4.15,4.15,0,0,0,2.1-3.55c.08-3.61-3.89-8.18-7.9-11.72.18-.37.39-.74.6-1.09a8.82,8.82,0,0,1,2.79-3c2-1.23,4.4-1.34,7.24-.36l.59.21.18-.47h0l.18.47.58-.21c2.84-1,5.21-.87,7.05.35a8,8,0,0,1,2.49,2.9c.16.29.31.58.44.88-4.11,3.58-8.31,8.3-8.23,12a4.18,4.18,0,0,0,2.1,3.55,4.64,4.64,0,0,0,2.49.83,3.42,3.42,0,0,0,1.4-.3c3.48-1.53,4.74-8.55,4.8-8.94a22.49,22.49,0,0,0-1.36-6.88l.51-.42c1.05-.86,2.13-1.69,3.19-2.44,1.62-1.15,3-1.53,4.14-1.16a5,5,0,0,1,2.49,2.15c-.29.22-.58.47-.87.73a18.08,18.08,0,0,0-2.62,2.88,9,9,0,0,0-1.95,6c.36,4.41,4.46,7.09,4.63,7.2l.15.06c.19.05,4.58,1.15,6.35-.9.95-1.1.95-2.83,0-5.14-.54-1.29-1-2.66-1.54-4-.09-.26-.19-.51-.28-.77a40,40,0,0,0-2.52-5.83,6.06,6.06,0,0,1,5-1c4.79,1.26,7.84,8.82,8.48,10.55.08.21.13.35.14.36l.47-.15.47.15a2.87,2.87,0,0,0,.13-.35c.64-1.72,3.7-9.3,8.49-10.56a6.06,6.06,0,0,1,5,1,41.67,41.67,0,0,0-2.56,5.94l-.24.66c-.49,1.32-1,2.69-1.53,4-1,2.31-1,4,0,5.14,1.77,2.05,6.17.95,6.35.9l.15-.06c.17-.11,4.27-2.79,4.63-7.2a8.92,8.92,0,0,0-1.85-5.9,17.71,17.71,0,0,0-2.72-3c-.29-.26-.58-.51-.87-.73a5,5,0,0,1,2.49-2.15c1.17-.37,2.52,0,4.14,1.16,1.13.79,2.26,1.68,3.37,2.6l.64.52a22.32,22.32,0,0,0-1.66,6.59v.12c.05.3,1.31,7.32,4.79,8.85a3.42,3.42,0,0,0,1.4.3,4.64,4.64,0,0,0,2.49-.83,4.18,4.18,0,0,0,2.1-3.55c.08-3.61-3.9-8.18-7.9-11.72a11.56,11.56,0,0,1,.6-1.09,8.75,8.75,0,0,1,2.79-3c2-1.22,4.39-1.33,7.23-.35.2.07.4.13.6.21l.18-.47h0l.18.47.6-.21c2.84-1,5.27-.87,7.23.35a8.75,8.75,0,0,1,2.79,3,11.56,11.56,0,0,1,.6,1.09c-4,3.54-8,8.11-7.9,11.72a4.18,4.18,0,0,0,2.1,3.55,4.64,4.64,0,0,0,2.49.83,3.42,3.42,0,0,0,1.4-.3c3.48-1.53,4.74-8.55,4.79-8.85v-.12a23.06,23.06,0,0,0-1.66-6.59c.2-.18.42-.34.63-.52,1.11-.92,2.24-1.81,3.37-2.6,1.62-1.15,3-1.53,4.14-1.16a4.93,4.93,0,0,1,2.49,2.15c-.29.22-.58.47-.87.73a17.71,17.71,0,0,0-2.72,3,9,9,0,0,0-1.85,5.9c.36,4.41,4.46,7.09,4.64,7.2l.14.06c.19.05,4.58,1.15,6.35-.9,1-1.1,1-2.83,0-5.14-.54-1.29-1.05-2.66-1.54-4l-.24-.66a40.56,40.56,0,0,0-2.56-5.94,6.08,6.08,0,0,1,5-1c4.79,1.26,7.84,8.84,8.48,10.56.08.21.12.34.13.35l.47-.15.48.15.13-.35c.63-1.72,3.68-9.3,8.48-10.56a6.06,6.06,0,0,1,5,1,41.67,41.67,0,0,0-2.56,5.94l-.24.66c-.49,1.32-1,2.69-1.53,4-1,2.31-1,4,0,5.14,1.78,2.05,6.17.95,6.35.9l.15-.06c.17-.11,4.27-2.79,4.63-7.2a8.92,8.92,0,0,0-1.85-5.9,17.71,17.71,0,0,0-2.72-3c-.29-.26-.58-.51-.87-.73a5,5,0,0,1,2.49-2.15c1.17-.37,2.53,0,4.14,1.16,1.13.79,2.26,1.68,3.37,2.6l.64.52a22.32,22.32,0,0,0-1.66,6.59v.12c.06.3,1.31,7.32,4.79,8.85a3.42,3.42,0,0,0,1.4.3,4.64,4.64,0,0,0,2.49-.83,4.15,4.15,0,0,0,2.1-3.55c.08-3.61-3.89-8.18-7.9-11.72.18-.37.39-.74.6-1.09a9,9,0,0,1,2.79-3c2-1.22,4.4-1.33,7.23-.35.2.07.4.13.6.21l.18-.47h0l.19.47.68-.24c2.8-.95,5.21-.83,7.14.38a8,8,0,0,1,2.15,2,11.73,11.73,0,0,1,1.24,2c-4,3.54-8,8.11-7.89,11.72a4.15,4.15,0,0,0,2.1,3.55,4.59,4.59,0,0,0,2.48.83,3.5,3.5,0,0,0,1.41-.3c3.47-1.53,4.73-8.55,4.78-8.85v-.12a23.06,23.06,0,0,0-1.66-6.59c.49-.42,1-.83,1.51-1.24.83-.66,1.66-1.3,2.49-1.88,1.62-1.15,3-1.53,4.14-1.16a4.89,4.89,0,0,1,2.49,2.15c-.29.22-.58.47-.87.73a19.34,19.34,0,0,0-1.8,1.84c-2,2.34-3,4.71-2.76,7.07.35,4.41,4.45,7.09,4.63,7.2l.14.06c.19.05,4.58,1.15,6.36-.9,1-1.1.94-2.83,0-5.14-.54-1.29-1.05-2.66-1.53-4-.36-1-.71-1.9-1.07-2.81a29.19,29.19,0,0,0-1.73-3.79,6,6,0,0,1,5-1c3.24.85,5.69,4.61,7.13,7.48a28.21,28.21,0,0,1,1.48,3.45c.09.24,2.25,6.09,6.43,6.64,2.67.35,5.48-1.56,8.34-5.68Zm-24.52.36c.8,1.93.86,3.31.18,4.1-1.11,1.28-4.1.89-5.27.6-.5-.34-3.82-2.76-4.11-6.39-.21-2.65,1.22-5.37,4.24-8.09.24-.22.49-.42.73-.61a48.74,48.74,0,0,1,2.68,6.36C509,270.05,509.47,271.43,510,272.74Zm-18.93,5.52a3,3,0,0,1-2.95-.45,3.2,3.2,0,0,1-1.64-2.73c-.06-2.95,3.25-7.1,7.33-10.75a23.32,23.32,0,0,1,1.46,5.9C495.16,270.91,493.93,277,491.09,278.26Zm-27.91-7.21c-.29,3.63-3.6,6.05-4.11,6.39-1.17.28-4.16.68-5.26-.6-.69-.79-.63-2.17.18-4.1.55-1.31,1.06-2.69,1.55-4a46.14,46.14,0,0,1,2.68-6.36c.24.19.48.39.73.61C462,265.68,463.4,268.4,463.18,271.05Zm-32-2.34c.49,1.34,1,2.72,1.54,4,.81,1.93.87,3.31.19,4.1-1.11,1.28-4.1.89-5.27.6-.51-.34-3.82-2.76-4.11-6.39-.21-2.65,1.21-5.37,4.24-8.09.24-.22.48-.42.73-.61A48.16,48.16,0,0,1,431.17,268.71Zm-45.29,2.34c-.29,3.63-3.6,6.05-4.11,6.39-1.17.29-4.16.68-5.27-.6-.68-.79-.62-2.17.19-4.1.55-1.31,1.05-2.69,1.55-4a47.45,47.45,0,0,1,2.67-6.36c.25.19.49.39.73.61C384.67,265.68,386.09,268.4,385.88,271.05Zm-32-2.34c.49,1.34,1,2.72,1.54,4,.81,1.93.87,3.31.19,4.1-1.11,1.28-4.1.89-5.27.6-.51-.34-3.82-2.76-4.11-6.39-.21-2.65,1.21-5.37,4.24-8.09.24-.22.48-.42.73-.61A48.74,48.74,0,0,1,353.87,268.71Zm-44.3,2.34c-.29,3.63-3.61,6.05-4.11,6.39-1.17.29-4.16.68-5.27-.6-.69-.79-.62-2.17.18-4.1.55-1.31,1.06-2.69,1.55-4a46.14,46.14,0,0,1,2.68-6.36c.24.19.48.39.73.61C308.35,265.68,309.78,268.4,309.57,271.05Zm-30.44,1.82c.8,1.93.86,3.31.18,4.1-1.11,1.28-4.1.89-5.27.6-.5-.34-3.81-2.75-4.11-6.39-.21-2.65,1.21-5.37,4.24-8.09.24-.22.49-.42.73-.61a47.4,47.4,0,0,1,2.68,6.36C278.07,270.18,278.58,271.56,279.13,272.87Zm-43.49-1.82c-.29,3.63-3.61,6.05-4.11,6.39-1.17.29-4.16.68-5.27-.6-.68-.79-.62-2.17.18-4.1.55-1.31,1.06-2.69,1.55-4a48.74,48.74,0,0,1,2.68-6.36c.24.19.49.39.73.61C234.42,265.68,235.85,268.4,235.64,271.05Zm9.73,7.21c-2.84-1.24-4.07-7.35-4.2-8a23.06,23.06,0,0,1,1.47-5.9c4.07,3.65,7.38,7.8,7.31,10.75a3.17,3.17,0,0,1-1.63,2.73A3,3,0,0,1,245.37,278.26Zm19-8c0,.07-1.22,6.79-4.21,8.1a3,3,0,0,1-2.94-.45,3.16,3.16,0,0,1-1.64-2.73c-.08-3.22,3.86-7.86,8.44-11.73A22.53,22.53,0,0,1,264.41,270.29Zm54.89,8c-2.84-1.24-4.07-7.35-4.2-8a22.54,22.54,0,0,1,1.46-5.91c4.08,3.66,7.39,7.81,7.32,10.76a3.16,3.16,0,0,1-1.64,2.73A3,3,0,0,1,319.3,278.26Zm17.19,0a3,3,0,0,1-2.95-.45,3.18,3.18,0,0,1-1.64-2.73c-.07-3,3.41-7.31,7.62-11a22,22,0,0,1,1.17,6.1C340.68,270.23,339.48,277,336.49,278.26Zm59.12,0c-2.83-1.24-4.06-7.35-4.19-8a22.42,22.42,0,0,1,1.46-5.9c4.08,3.65,7.39,7.8,7.32,10.75a3.18,3.18,0,0,1-1.64,2.73A3,3,0,0,1,395.61,278.26Zm18.18,0a3,3,0,0,1-3-.45,3.2,3.2,0,0,1-1.64-2.73c-.06-2.95,3.25-7.1,7.32-10.76a22.54,22.54,0,0,1,1.46,5.91C417.85,270.91,416.63,277,413.79,278.26Zm59.12,0c-2.83-1.24-4.06-7.35-4.19-8a22.42,22.42,0,0,1,1.46-5.9c4.08,3.65,7.39,7.8,7.32,10.75a3.18,3.18,0,0,1-1.64,2.73A3,3,0,0,1,472.91,278.26Z" transform="translate(-75.11 -233.26)"/><rect class="warrenTimeline-6" x="145.7" y="13.66" width="305.02" height="4.43" rx="2.21"/><rect class="warrenTimeline-6" x="300.04" y="60.64" width="135.53" height="3.74" rx="1.87"/></svg>