<?xml version="1.0" encoding="utf-8"?>
<!-- Generator: Adobe Illustrator 23.1.0, SVG Export Plug-In . SVG Version: 6.00 Build 0)  -->
<svg version="1.1" id="beard" xmlns="http://www.w3.org/2000/svg" xmlns:xlink="http://www.w3.org/1999/xlink" x="0px" y="0px"
	 viewBox="0 0 788 893" style="enable-background:new 0 0 788 893;" xml:space="preserve">
<path d="M755,340.1c47.6,194.4-11.8,276.7-23,289c5-26-6-37-6-37s-35,127-171,187c7-15,21-43,18-79C556,806.8,425.3,820.5,397,877
	c-76.5-84.9-158.7-75-176-176c-3,36,11,64,18,79C103,720,68,593,68,593s-11,11-6,37c-69.2-83.1-31.4-254.2-23-289c-4,7-18,32-23,50
	C-5.2,268,92.6,126,52,6c18.6,14.9,30.4,60.6,38.9,106.5C140.2,464.1,280.9,99.2,397,219C527.2,98.5,653.8,474.6,707,92
	c8.1-39.6,17.8-70.8,35-86.9c-41.1,117.5,57.3,263.5,36,385C774.3,365.2,764.4,363,755,340.1z"/>
</svg>
