<?xml version="1.0" encoding="utf-8"?>
<!-- Generator: Adobe Illustrator 23.1.0, SVG Export Plug-In . SVG Version: 6.00 Build 0)  -->
<svg version="1.1" id="cardboard" xmlns="http://www.w3.org/2000/svg" xmlns:xlink="http://www.w3.org/1999/xlink" x="0px" y="0px"
	 viewBox="0 0 776 580" style="enable-background:new 0 0 776 580;" xml:space="preserve">
<style type="text/css">
	.st0{fill:#954E22;}
	.st1{fill:#E7B47D;}
	.st2{fill:#E6B37C;}
	.st3{fill:#A75E31;}
	.st4{fill:#B88858;}
	.st5{fill:#BE8F63;}
	.st6{fill:#DBA976;}
	.st7{fill:#D0A06F;}
</style>
<g>
	<polygon class="st0" points="366,140 369,297 194,280 199.5,196.2 	"/>
	<polygon class="st1" points="450,28 366,140 653,202 728,77 	"/>
	<polygon class="st2" points="366,140 139,230 41,75 281,14 	"/>
	<polygon class="st3" points="653,202 366,140 367.2,282.7 644,441 	"/>
	<polygon class="st4" points="19,154 139,230 438,297 330,227 	"/>
	<polygon class="st5" points="139,230 147,467 439,568 438,297 	"/>
	<polygon class="st6" points="438,297 653,202 644,441 439,568 	"/>
	<polygon class="st7" points="766,97 653,202 438,297 563,182 	"/>
</g>
</svg>
