<?xml version="1.0" encoding="utf-8"?>
<!-- Generator: Adobe Illustrator 23.1.0, SVG Export Plug-In . SVG Version: 6.00 Build 0)  -->
<svg version="1.1" id="coconut" xmlns="http://www.w3.org/2000/svg" xmlns:xlink="http://www.w3.org/1999/xlink" x="0px" y="0px"
	 viewBox="0 0 892 777" style="enable-background:new 0 0 892 777;" xml:space="preserve">
<style type="text/css">
	.st0{fill:url(#SVGID_1_);}
	.st1{fill:url(#SVGID_2_);}
	.st2{fill:url(#SVGID_3_);}
	.st3{fill:url(#SVGID_4_);}
	.st4{fill:url(#SVGID_5_);}
	.st5{fill:url(#SVGID_6_);}
	.st6{fill:none;stroke:#000000;stroke-miterlimit:10;}
	.st7{fill:url(#SVGID_7_);}
	.st8{fill:url(#SVGID_8_);}
	.st9{fill:#58321D;}
	.st10{fill:#F7F6F2;}
	.st11{fill:url(#SVGID_9_);}
</style>
<g>
	<g>
		
			<linearGradient id="SVGID_1_" gradientUnits="userSpaceOnUse" x1="462" y1="619" x2="627" y2="619" gradientTransform="matrix(1 0 0 -1 0 778)">
			<stop  offset="0" style="stop-color:#73AC4B"/>
			<stop  offset="0.8127" style="stop-color:#4E6B37"/>
			<stop  offset="0.9771" style="stop-color:#4E6B37"/>
		</linearGradient>
		<polygon class="st0" points="462,48 548,270 627,235 		"/>
		
			<linearGradient id="SVGID_2_" gradientUnits="userSpaceOnUse" x1="557" y1="615" x2="667" y2="615" gradientTransform="matrix(1 0 0 -1 0 778)">
			<stop  offset="0" style="stop-color:#73AC4B"/>
			<stop  offset="0.8127" style="stop-color:#4E6B37"/>
			<stop  offset="0.9771" style="stop-color:#4E6B37"/>
		</linearGradient>
		<polygon class="st1" points="557,16 572,310 667,267 		"/>
		
			<linearGradient id="SVGID_3_" gradientUnits="userSpaceOnUse" x1="638" y1="574.5" x2="696" y2="574.5" gradientTransform="matrix(1 0 0 -1 0 778)">
			<stop  offset="0" style="stop-color:#73AC4B"/>
			<stop  offset="0.8127" style="stop-color:#4E6B37"/>
			<stop  offset="0.9771" style="stop-color:#4E6B37"/>
		</linearGradient>
		<polygon class="st2" points="672,143 638,253 696,264 		"/>
		
			<linearGradient id="SVGID_4_" gradientUnits="userSpaceOnUse" x1="31" y1="196" x2="264" y2="196" gradientTransform="matrix(1 0 0 -1 0 778)">
			<stop  offset="0" style="stop-color:#73AC4B"/>
			<stop  offset="0.8127" style="stop-color:#4E6B37"/>
			<stop  offset="0.9771" style="stop-color:#4E6B37"/>
		</linearGradient>
		<path class="st3" d="M38,602l226-59l-7,78c0,0-134-3-226-17"/>
		
			<linearGradient id="SVGID_5_" gradientUnits="userSpaceOnUse" x1="28" y1="153" x2="375" y2="153" gradientTransform="matrix(1 0 0 -1 0 778)">
			<stop  offset="0" style="stop-color:#73AC4B"/>
			<stop  offset="0.8127" style="stop-color:#4E6B37"/>
			<stop  offset="0.9771" style="stop-color:#4E6B37"/>
		</linearGradient>
		<path class="st4" d="M28,694l347-17l-91-121C284,556,110,648,28,694z"/>
		
			<linearGradient id="SVGID_6_" gradientUnits="userSpaceOnUse" x1="132" y1="93" x2="494" y2="93" gradientTransform="matrix(1 0 0 -1 0 778)">
			<stop  offset="0" style="stop-color:#73AC4B"/>
			<stop  offset="0.8127" style="stop-color:#4E6B37"/>
			<stop  offset="0.9771" style="stop-color:#4E6B37"/>
		</linearGradient>
		<path class="st5" d="M132,766c0,0,84-36,125-43s73-10,105-15s132-46,132-46l-150-58C344,604,170,695,132,766z"/>
		<path class="st6" d="M309,327.2c0.3-2.3,0.7-4.6,1.1-6.9C309.8,322.6,309.4,324.9,309,327.2z"/>
		
			<linearGradient id="SVGID_7_" gradientUnits="userSpaceOnUse" x1="47.026" y1="411.25" x2="653.0296" y2="411.25" gradientTransform="matrix(1 0 0 -1 0 778)">
			<stop  offset="0" style="stop-color:#A1683D"/>
			<stop  offset="7.681940e-02" style="stop-color:#A3693E"/>
			<stop  offset="1" style="stop-color:#000000"/>
		</linearGradient>
		<path class="st7" d="M615.8,549.3c-80.4,117-264.5,130.1-411.2,29.3S3.9,301.2,84.3,184.2s264.5-130.1,411.2-29.3
			S696.1,432.3,615.8,549.3z"/>
		
			<linearGradient id="SVGID_8_" gradientUnits="userSpaceOnUse" x1="304.5" y1="252.55" x2="875.2" y2="252.55" gradientTransform="matrix(1 0 0 -1 0 778)">
			<stop  offset="0" style="stop-color:#A1683D"/>
			<stop  offset="6.738545e-03" style="stop-color:#B97F4F"/>
			<stop  offset="7.681940e-02" style="stop-color:#A3693E"/>
			<stop  offset="0.4677" style="stop-color:#9F673D"/>
			<stop  offset="1" style="stop-color:#000000"/>
		</linearGradient>
		<path class="st8" d="M875.2,464.8C845,613.1,730.5,723.5,593.7,723.5C434,723.5,304.5,572.8,304.5,387c0-20.3,1.5-40.2,4.5-59.6
			c-12.8,96,87.4,201.6,233.9,242.6c155.2,43.4,303.7-2.7,331.7-102.9C874.8,466.4,875,465.6,875.2,464.8z"/>
		<path class="st9" d="M644.3,207.2c-155.2-43.4-303.8,3.1-331.8,103.3c-0.9,3.3-1.7,6.5-2.3,9.8c-0.4,2.3-0.8,4.6-1.1,6.9
			c0,0.1,0,0.1,0,0.2C296.3,423.4,396.5,529,543,570c155.2,43.4,303.7-2.7,331.7-102.9c0.2-0.8,0.4-1.6,0.6-2.4
			c1.3-6.2,2.4-12.4,3.3-18.7C888,351.2,788.7,247.6,644.3,207.2z M850.5,455.1c-25.8,92.3-162.6,134.7-305.5,94.7
			S307.1,402.7,332.9,310.5c25.8-92.3,162.6-134.7,305.5-94.7C781.3,255.7,876.3,362.9,850.5,455.1z"/>
		<path class="st6" d="M878.5,446.1c-0.6,6.3-1.7,12.5-3.3,18.7C876.5,458.6,877.6,452.4,878.5,446.1z"/>
		<path class="st10" d="M850.5,455.1c-25.8,92.3-162.6,134.7-305.5,94.7S307.1,402.7,332.9,310.5c25.8-92.3,162.6-134.7,305.5-94.7
			C781.3,255.7,876.3,362.9,850.5,455.1z"/>
		
			<linearGradient id="SVGID_9_" gradientUnits="userSpaceOnUse" x1="637.001" y1="517.3181" x2="567.9348" y2="310.9048" gradientTransform="matrix(1 0 0 -1 0 778)">
			<stop  offset="0" style="stop-color:#F2EFEB"/>
			<stop  offset="0.4461" style="stop-color:#E7E2DB"/>
			<stop  offset="0.8639" style="stop-color:#CDC2B3"/>
			<stop  offset="1" style="stop-color:#BFB4A7"/>
		</linearGradient>
		<path class="st11" d="M769.3,422.7c-17,60.8-107.1,88.7-201.3,62.4c-94.2-26.3-156.8-97-139.8-157.8s107.1-88.8,201.3-62.4
			C723.7,291.2,786.3,361.9,769.3,422.7z"/>
	</g>
</g>
</svg>
