<?xml version="1.0" encoding="utf-8"?>
<!-- Generator: Adobe Illustrator 23.1.0, SVG Export Plug-In . SVG Version: 6.00 Build 0)  -->
<svg version="1.1" id="fishing-line" xmlns="http://www.w3.org/2000/svg" xmlns:xlink="http://www.w3.org/1999/xlink" x="0px"
	 y="0px" viewBox="0 0 603 472" style="enable-background:new 0 0 603 472;" xml:space="preserve">
<style type="text/css">
	.st0{fill:#EA8A42;}
</style>
<g>
	<path class="st0" d="M404.2,410.5c-44.8,27.6-92.1,39.7-137.8,39.7c-69.8,0-135.8-28.2-183-72.2c-40.1-37.4-65.6-85.4-71.8-135.2
		C4.7,187.1,21.6,130.4,60.5,79l0.3-0.4c50.9-58,117.6-80.2,182.9-61.2c61.6,18,110.9,71,119.8,129.1
		c8.2,53.2-16.9,102.3-70.7,138.3l-0.8,0.5c-57.9,28.8-112.9,4.1-139.5-31c-28.7-37.8-26.3-85.3,6-120.9l0.2-0.2
		c20-20.6,46.3-28.6,72.3-21.9c25.5,6.5,46.2,26,52.8,49.5c5.9,21.4-0.5,43-18.1,60.7l-0.4,0.4c-24,20.8-54,14-70.1-2.9
		c-14.1-14.8-19.2-39.2,1-60.2l10.5,10.1c-14.5,15.1-10,30.7-0.9,40.2c11.7,12.3,32.5,16.9,49.9,2.1c17.4-17.8,17.4-35.1,14.2-46.4
		c-5.1-18.4-22.1-34.2-42.4-39.3c-12.2-3.1-35.9-4.9-58.2,17.9c-33.1,36.6-24.3,76.8-5,102.3c23,30.4,70.7,51.8,121,27
		c48.6-32.6,71.3-76.6,64.1-123.8C341.3,96.3,296.3,48,239.8,31.6C180.1,14,118.9,34.6,72,88c-84.8,112.4-41.5,220.7,21.4,279.4
		c73.5,68.6,195.5,96.5,302.5,31.2L404.2,410.5z"/>
	<path d="M529.4,59.7c-84.6-20.9-114.6,64.2-114.8,81.3c-1,84.6,44.4,104,37.4,150c-8.2,53.8-40.3,86.4-40.3,86.4
		c-11.3-7.2-69.6,41.7-15,58.3c29.1,8.9,33.4-54.6,25.1-51.1c0,0,40.3-66.6,41.4-97c1.7-44.6-26.1-64.7-30.1-127.6
		c-4-62,47.7-104.8,90.6-86.8c42.9,18.1,59.4,42.1,46.7,103.7c-9.9-11.6-19.6-19.1-24-22.3c7.5,6.3,27.3,32.3-2.7,120.4
		C570.9,204.6,642.2,87.6,529.4,59.7z M414.6,410c-5.3,9.3-14.8,13.8-21.2,10.1c-6.4-3.7-7.2-14.2-1.8-23.4
		c5.3-9.3,14.8-13.8,21.2-10.1C419.1,390.3,419.9,400.8,414.6,410z"/>
	<path d="M376.8,551.6c-1.2-0.8-2-1.4-2.3-1.6C374.9,550.1,375.7,550.7,376.8,551.6z"/>
	<path class="st0" d="M444.1,381c-13,11.3-26.4,21.2-40,29.5l-8.3-11.9c13.2-8,26.2-17.5,38.8-28.5L444.1,381z"/>
</g>
</svg>
