<?xml version="1.0" encoding="utf-8"?>
<!-- Generator: Adobe Illustrator 23.1.0, SVG Export Plug-In . SVG Version: 6.00 Build 0)  -->
<svg version="1.1" id="platinm" xmlns="http://www.w3.org/2000/svg" xmlns:xlink="http://www.w3.org/1999/xlink" x="0px" y="0px"
	 viewBox="0 0 971 746" style="enable-background:new 0 0 971 746;" xml:space="preserve">
<style type="text/css">
	.st0{display:none;}
	.st1{display:none;opacity:0.5;fill:#FFFFFF;enable-background:new    ;}
	.st2{fill:#F2F2F2;}
	.st3{fill:#AAAAAA;}
	.st4{fill:#D2D2D2;}
	.st5{fill:#8F8F8D;}
	.st6{fill:#BFBFBF;}
	.st7{fill:#F0F0F0;}
	.st8{fill:#3A3A3A;}
	.st9{opacity:0.68;fill:#494949;enable-background:new    ;}
	.st10{fill:#D5D5D5;}
	.st11{opacity:0.41;fill:#1C1C1C;enable-background:new    ;}
	.st12{fill:#EFEFED;}
	.st13{fill:#929292;}
</style>
<g class="st0">
	
		<image style="display:inline;overflow:visible;enable-background:new    ;" width="1201" height="741" xlink:href="A660E225.jpg"  transform="matrix(0.999 0 0 0.999 -146.5231 61.0062)">
	</image>
</g>
<g>
	<rect x="-97" y="20" class="st1" width="1172" height="850"/>
	<g>
		<polygon class="st2" points="816,194 671,288 193,149 604,135 		"/>
		<g>
			<g>
				<path class="st3" d="M497.8,125.9c3,1.2,4.6,2.5,4.6,4s-1.6,3.3-5.5,5.2c-8.8,4.4-17.9,4-22,2.3c-0.5-0.2-0.8-0.4-1-0.5
					l-1.8-1.7L462,140c-5.6,2.6-5.4,2.8-2,4.8l-1.9,0.9l-12.2-5l1.9-0.9c4.4,1.3,5,1.1,10.5-1.4l25-11.7c5.3-2.5,5-2.7,2.1-4.2
					l1.6-0.8L497.8,125.9z M474.2,134.1c0.1,0.4,0.9,1.1,2.3,1.7c2.9,1.2,8.6,1.6,16.2-2.1c6.5-3.2,6-5.6,2.5-7
					c-1.2-0.5-2.4-0.7-3-0.6c-0.7,0.1-1.6,0.3-3.2,1.1L474.2,134.1z"/>
				<path class="st3" d="M504.5,154.8c-2.2,0.9-10,3.9-12.4,4.8l-21-8.6l1.8-0.9c4.7,1.4,5.3,1.4,10.8-1.4l24-12.3
					c4.9-2.5,4.7-2.8,1.8-4.4l1.6-0.8l11.3,4.5l-1.6,0.8c-3.8-1.1-4.5-1.2-9.4,1.3l-24.5,12.7c-3.9,2-4.4,2.6-1.9,3.7
					c0,0,3.2,1.4,3.5,1.5c2.3,0.9,3.4,1,6,0.6c2.8-0.4,6.2-1.4,9.1-2.3L504.5,154.8z"/>
				<path class="st3" d="M515.6,169.2l1.7-1c3.5,0.9,4.5,0.7,6.1-0.9c1.7-1.6,3.8-3.7,6.5-6.3l-9.7-3.9c-3.4,1.2-6.4,2.3-9.5,3.4
					c-5,1.8-4.9,2.4-1.7,4.3l-1.7,1l-10.6-4.3l1.8-1c3.4,0.9,4.5,1,11.7-1.5l38.8-13.2l1.7,0.4c-6.4,6.4-13.7,13.8-20.8,21
					c-3.7,3.7-3.7,4.2-0.9,5.8l-1.7,1L515.6,169.2z M541.8,149.5c-6.1,2.2-12.7,4.5-18.6,6.5l8.4,3.4L541.8,149.5z"/>
				<path class="st3" d="M576.6,165.5c1.2-1.2,2.3-2.6,2.7-3.3c0.6-1.2,0.5-1.6-1.9-2.5l-4.4-1.8l-26,16.7c-4.5,2.9-4.7,3.4-0.6,5.5
					l-1.6,1.1l-13.7-5.6l1.7-1c4.7,1.6,5.7,1.3,10.2-1.6l26.3-16.6l-4-1.6c-2.4-1-3.4-1-5.7-0.4c-1.6,0.4-3.2,1.1-5.7,2l-1.3-0.5
					c3.5-1.9,7-3.7,10-5.4l1,0.4c-0.6,1,0,1.2,1.2,1.7l17.4,6.9c1.2,0.5,1.8,0.5,3.4,0.1l1.1,0.4c-2.3,1.5-5.7,4-8.4,6L576.6,165.5z
					"/>
				<path class="st3" d="M555.3,185.5l1.6-1.1c4.4,1.2,5,1.2,9.7-2l20.7-14.3c4.2-2.9,4-3.2,0.8-4.9l1.4-0.9l11.9,4.7l-1.4,1
					c-4.2-1.2-4.7-1.2-8.9,1.7l-20.5,14.4c-4.7,3.3-4.5,3.6-1,5.6l-1.6,1.1L555.3,185.5z"/>
				<path class="st3" d="M636,182.3c-3.2-0.9-4.7-0.9-6.8,0.7c-1.5,1.1-3.5,2.7-7.8,6.1l-19.7,16l-1.9-0.8l5.7-28.4l-12.3,9.1
					c-4.6,3.4-6.8,5.2-8.2,6.4c-2.6,2.1-2.2,3.2,0.9,4.8l-1.5,1.1l-11.8-4.8l1.5-1.1c3.3,1,5.2,0.9,8-1c1.8-1.2,4.3-2.9,9-6.3
					l12.6-9.3c1.3-1,2-1.6,2.2-2.7c0.3-1.2-0.4-1.8-2.3-2.8l1.3-0.9l6.7,2.7l-4.3,26.6l11.9-9.5c4.3-3.5,6.2-5.1,7.4-6.2
					c1.9-1.7,1.4-2.6-2-4.2l1.2-1l11.3,4.5L636,182.3z"/>
				<path class="st3" d="M671.7,196.4c-3.1-1-4.9-0.8-6.8,0.9c-1,0.9-2.8,2.5-6.7,6.1l-4.6,4.4c-4.5,4.3-8.6,7.4-14.4,8.8
					c-4.7,1.2-8.8,0.5-12.3-1c-2.9-1.2-5.4-3-5.9-5.3c-0.7-3.2,1.2-6.6,6.8-11.4l11.5-9.9c3.9-3.3,3.8-3.7,0.4-5.4l1.2-1l12.1,4.8
					l-1.2,1c-3.9-1.3-4.6-1.1-8.5,2.2l-11.2,9.7c-6.9,6-7.3,10.8-1.4,13.2c7.1,2.9,13.4,0,20.9-7l4.4-4.1c3.9-3.6,5.3-5.2,6.3-6.3
					c1.7-1.8,1.3-2.8-2-4.4l1.1-1l11.2,4.5L671.7,196.4z"/>
				<path class="st3" d="M675.7,234.8l1.2-1.3c4.6,1.4,5,1.1,9.3-3.8l15.8-17.6c-10.9,6-29.2,16-34.7,19.3l-1.3-0.5
					c2.2-4.9,8.1-19.1,11.7-27.9c-15.3,14.1-18.8,17.6-19.6,18.4c-2.5,2.5-1.5,3.4,1.6,5.1l-1.3,1.3l-12.1-4.9l1.3-1.3
					c3.2,0.9,5,0.9,7.8-1.3c2.3-1.8,3.9-3.4,20.3-17.9c2.2-2,2.4-2.8-1.4-4.8l1.1-1.1l8.2,3.3l-9.5,25.4l31.3-16.8l8.4,3.3l-1,1.1
					c-4.5-1.2-5.4-1.1-7.8,1.8l-14.4,16.8c-4.1,5.1-4.2,5.4,0,7.7l-1.1,1.3L675.7,234.8z"/>
			</g>
		</g>
		<polygon class="st4" points="91,365 568,523 597,697 30.4,499.9 		"/>
		<polygon class="st5" points="720,410 201,281 91,365 568,523 		"/>
		<polygon class="st6" points="900,291 955,422 793,552 752,361 		"/>
		<polygon class="st7" points="841,264 900,291 843.5,317.2 		"/>
		<polygon class="st8" points="793,552 758,398 720,410 768,548 		"/>
		<polygon class="st9" points="529,623 333,580 437.7,481 469.6,491.2 		"/>
		<polygon class="st6" points="568,523 720,410 785,553 597,697 		"/>
		<polygon class="st10" points="193,149 136,281 709,458 671,288 		"/>
		<polygon class="st11" points="558,269 559.6,272.3 625,407 586.9,424.5 570,501 470,491 438,481 		"/>
		<polygon class="st12" points="296,9 17,523 245,609 530,68 		"/>
		<polygon class="st3" points="312,736 243,604 17,523 39,636 		"/>
		<polygon class="st6" points="530,68 645,111 312,736 245,609 		"/>
		<polygon class="st13" points="816,194 671,288 709,458 883,338 		"/>
		<g>
			<g>
				<path class="st3" d="M201.4,383c1.5-3.1,3.3-5.2,5.4-6.1c2-0.8,4.5-0.6,7.2,1.5c6.1,4.6,5.8,12.2,3.7,16.5
					c-0.2,0.5-0.5,0.9-0.7,1.2l-2.3,2.5l6.7,5.4c3.7,3,3.9,2.7,6.5-1.2l1.3,1l-6.4,12.8l-1.2-1c1.6-4.3,1.4-4.7-2.2-7.7l-16.5-13.5
					c-3.5-2.9-3.9-2.5-5.9,0.7l-1.1-0.9L201.4,383z M213.2,397.5c0.5-0.3,1.4-1.3,2.2-2.9c1.5-3,1.9-7.9-3.3-11.9
					c-4.5-3.5-7.8-1.7-9.7,2c-0.6,1.3-0.9,2.3-0.8,2.8c0.1,0.6,0.5,1.1,1.6,2L213.2,397.5z"/>
				<path class="st3" d="M240.2,361.4c1.3,1.2,5.3,5.9,6.5,7.3l-10.8,21.6l-1.3-0.9c1.7-4.5,1.7-5.1-2.2-7.9l-17-12.5
					c-3.5-2.6-3.9-2.3-6,1l-1.1-0.8l5.9-11.7l1.1,0.8c-1.4,3.7-1.5,4.3,2,6.9l17.6,12.7c2.8,2,3.6,2.1,4.9-0.5c0,0,1.7-3.3,1.9-3.6
					c1.2-2.4,1.3-3.2,0.6-5.1c-0.6-2-1.9-4.2-3.3-6L240.2,361.4z"/>
				<path class="st3" d="M258.6,344.9l-1.3-0.8c1.1-3.2,0.8-3.9-1.3-4.4c-2.1-0.5-4.9-1-8.3-1.9l-4.9,9.8c1.7,2,3.1,3.9,4.7,5.8
					c2.5,3,3.2,2.6,5.6-0.9l1.3,0.8L249,364l-1.3-0.9c1.1-3.2,1.1-4.1-2.2-8.5l-18.4-24.1l0.4-1.6c8.7,1.8,18.6,3.8,28,5.8
					c4.8,1,5.4,0.8,7.5-2.3l1.3,0.8L258.6,344.9z M232.2,334.4c3,3.8,6.2,7.8,9.1,11.4l4.2-8.5L232.2,334.4z"/>
				<path class="st3" d="M252.4,298.6c-1.6-0.4-3.4-0.6-4.4-0.6c-1.5,0.1-2.1,0.3-3.3,2.8l-2.2,4.4l22.2,12.3c3.7,2.1,4.5,2,7-2.2
					l1.4,0.7l-6.8,13.5l-1.4-0.8c1.9-4.5,1.6-5.1-2.2-7.3L240.6,309l-2,4c-1.2,2.4-1.3,3.3-0.4,4.8c0.6,1,1.5,2,2.8,3.5l-0.7,1.3
					c-2.5-1.8-5.1-3.7-7.4-5.3l0.5-1c1.3-0.1,1.5-0.6,2.2-1.8l8.6-17.3c0.6-1.2,0.6-1.7,0.1-2.8l0.5-1c2.1,1.1,5.3,2.6,8,3.7
					L252.4,298.6z"/>
				<path class="st3" d="M278.2,305.7l-1.4-0.7c1.5-4,1.4-4.5-2.7-6.6l-18.6-9.4c-3.8-1.9-4.2-1.7-6.4,1.7l-1.2-0.6l5.9-11.7
					l1.2,0.6c-1.4,3.8-1.4,4.3,2.4,6.2l18.6,9.3c4.2,2.1,4.6,1.8,6.9-1.8l1.4,0.7L278.2,305.7z"/>
				<path class="st3" d="M272.3,244.2c-1.1,2.9-1.1,4,1,5c1.5,0.7,3.4,1.6,7.8,3.4l20,8.2l-0.9,1.8l-35.2,8.3l11.8,5.4
					c4.4,2,6.7,2.9,8.1,3.5c2.6,1.1,3.9,0.3,5.9-2.9l1.4,0.6l-5.6,11.3l-1.4-0.7c1.2-3,1-4.5-1.4-5.8c-1.5-0.9-3.7-2-8.1-4.1
					l-12-5.6c-1.3-0.6-2.1-0.8-3.4-0.5c-1.5,0.3-2.3,1.1-3.6,3.1l-1.3-0.6l3.3-6.5l33.4-8.5l-12-5c-4.4-1.8-6.5-2.6-7.9-3
					c-2.1-0.7-3.3,0-5.3,3.4l-1.3-0.5l5.4-10.8L272.3,244.2z"/>
				<path class="st3" d="M289.1,210.7c-1.2,2.8-0.9,4.1,1.2,4.9c1.1,0.4,3.1,1.2,7.6,2.7l5.4,1.8c5.2,1.7,9,3.6,10.9,7.4
					c1.5,3.1,0.7,6.5-0.9,9.7c-1.3,2.7-3.4,5.3-6.2,6.7c-3.8,1.9-8,1.9-13.9-0.4l-12.4-4.7c-4.2-1.6-4.7-1.4-6.8,2l-1.3-0.5
					l5.7-11.5l1.3,0.5c-1.5,3.6-1.3,4.1,2.9,5.7l12.2,4.6c7.4,2.8,13.1,1.1,15.9-4.4c3.3-6.6-0.3-10.2-8.8-13.1l-5.1-1.7
					c-4.5-1.5-6.4-2-7.8-2.4c-2.2-0.6-3.5,0.1-5.3,3.3l-1.3-0.5l5.2-10.5L289.1,210.7z"/>
				<path class="st3" d="M334.6,193l-1.5-0.4c1.5-3.9,1.2-4.1-4.6-5.6l-21.1-5.5c7.4,6.1,19.5,16.1,23.4,19.1l-0.6,1.2
					c-5.7,0.2-22.6,1.1-33.3,1.8c17.3,6.1,21.4,7.5,22.4,7.8c3,0.9,4-0.2,6-3.2l1.5,0.5l-5.5,11l-1.5-0.5c1-2.8,0.9-4.1-1.8-5.4
					c-2.2-1-4-1.6-21.9-8.5c-2.4-1-3.5-0.8-5.8,3l-1.3-0.4l3.8-7.6l30.6-2.5l-20.6-17.5l3.8-7.6l1.4,0.3c-1.4,3.9-1.2,4.5,2.3,5.3
					l20.1,4.8c5.9,1.3,6.3,1.2,8.8-2.8l1.6,0.4L334.6,193z"/>
			</g>
		</g>
	</g>
</g>
</svg>
