<svg xmlns="http://www.w3.org/2000/svg" viewBox="0 0 567.1 189.54"><defs><style>.cls-1,.cls-3,.cls-5{fill:#e5dfdf;}.cls-1{stroke:#d8d2d2;}.cls-1,.cls-2,.cls-3,.cls-4,.cls-5,.cls-6,.cls-7{stroke-miterlimit:10;}.cls-2,.cls-4{fill:#848181;stroke:#848181;}.cls-3{stroke:#cecece;stroke-width:2px;}.cls-4{stroke-width:0.75px;}.cls-5{stroke:#e5dfdf;}.cls-6{fill:#bfbebe;}.cls-6,.cls-7{stroke:#bfbebe;}.cls-7{fill:#c4c4c4;}</style></defs><g id="Layer_2" data-name="Layer 2"><g id="Plug"><path class="cls-1" d="M273.1,93.2a7.86,7.86,0,0,1-7.9,7.76L8.26,98.64A7.84,7.84,0,0,1,8.4,83l161.39,1.46,95.55.87C269.87,86.21,273.13,89.63,273.1,93.2Z"/><rect class="cls-2" x="504" y="88.68" width="23.08" height="100.58" rx="11.54" transform="translate(371.92 653.23) rotate(-89.48)"/><rect class="cls-2" x="504.77" y="3.06" width="23.08" height="100.58" rx="11.54" transform="translate(458.3 569.16) rotate(-89.48)"/><path class="cls-1" d="M496.85,19l-1.38,152.51A17.79,17.79,0,0,1,477.58,189l-63.48-.58a66.4,66.4,0,0,1-12.47-5.32A70.7,70.7,0,0,1,374.69,156L373.61,32.27A80.39,80.39,0,0,1,403.24,5.59,76.49,76.49,0,0,1,415.8.5l63.48.57A17.79,17.79,0,0,1,496.85,19Z"/><rect class="cls-3" x="259.97" y="66.43" width="31.33" height="53.59" rx="9.14" transform="translate(179.92 368) rotate(-89.48)"/><rect class="cls-4" x="248.59" y="101.68" width="11.08" height="2.93" rx="1.47" transform="translate(148.68 356.33) rotate(-89.48)"/><rect class="cls-4" x="248.77" y="81.44" width="11.08" height="2.93" rx="1.47" transform="translate(169.11 336.46) rotate(-89.48)"/><rect class="cls-5" x="295" y="28.83" width="123.66" height="130.26" rx="40.4" transform="translate(259.65 449.93) rotate(-89.48)"/><rect class="cls-4" x="257.62" y="102.69" width="11.08" height="2.93" rx="1.47" transform="translate(156.64 366.37) rotate(-89.48)"/><rect class="cls-4" x="257.81" y="81.52" width="11.08" height="2.93" rx="1.47" transform="translate(177.99 345.58) rotate(-89.48)"/><rect class="cls-4" x="265.99" y="102.57" width="11.08" height="2.93" rx="1.47" transform="matrix(0.01, -1, 1, 0.01, 165.05, 374.62)"/><rect class="cls-4" x="266.18" y="81.6" width="11.08" height="2.93" rx="1.47" transform="translate(186.21 354.03) rotate(-89.48)"/><rect class="cls-4" x="274.55" y="102.65" width="11.08" height="2.93" rx="1.47" transform="translate(173.44 383.25) rotate(-89.48)"/><rect class="cls-4" x="274.74" y="81.68" width="11.08" height="2.93" rx="1.47" transform="translate(194.61 362.66) rotate(-89.48)"/><rect class="cls-4" x="283.1" y="102.73" width="11.08" height="2.93" rx="1.47" transform="translate(181.84 391.88) rotate(-89.48)"/><rect class="cls-4" x="283.29" y="81.75" width="11.08" height="2.93" rx="1.47" transform="translate(203.01 371.29) rotate(-89.48)"/><rect class="cls-6" x="436.24" y="47.18" width="23.08" height="96.73" rx="3.82" transform="translate(348.2 542.44) rotate(-89.48)"/><rect class="cls-7" x="443.9" y="54.24" width="7.63" height="96.73" rx="3.82" transform="translate(341.07 549.38) rotate(-89.48)"/></g></g></svg>