<?xml version="1.0" encoding="utf-8"?>
<!-- Generator: Adobe Illustrator 23.1.0, SVG Export Plug-In . SVG Version: 6.00 Build 0)  -->
<svg version="1.1" id="rubber" xmlns="http://www.w3.org/2000/svg" xmlns:xlink="http://www.w3.org/1999/xlink" x="0px" y="0px"
	 viewBox="0 0 619.4 815.7" style="enable-background:new 0 0 619.4 815.7;" xml:space="preserve">
<style type="text/css">
	.st0{fill:none;stroke:#000000;stroke-miterlimit:10;}
	.st1{fill:#282828;}
	.st2{fill:#393834;}
</style>
<g>
	<path class="st0" d="M401.3,409.3c0,81.5-25.3,151.6-61.7,182.8c-31.8-35.4-53.3-103.1-53.3-180.8c0-79.3,22.4-148.2,55.3-183
		C376.9,260.3,401.3,329.3,401.3,409.3z"/>
	<path class="st1" d="M446.5,36.6c-13.9-6.1-28.4-9.3-43.2-9.3c-15.1,0-29.9,3.3-44,9.7c-64.7,29-117.2,120.3-139.8,239.8
		c-7.8,41.3-12.1,86-12.1,132.6s4.3,91.3,12.1,132.6c21.8,115.1,71.3,204,132.7,236.3c16.3,8.6,33.4,13.1,51.1,13.1
		c12.2,0,24.1-2.2,35.7-6.3c91.2-32.7,160.3-188.5,160.3-375.7C599.3,227.3,534,75,446.5,36.6z M390.3,618.3
		c-18.4,0-35.7-9.5-50.7-26.2c-31.8-35.4-53.3-103.1-53.3-180.8c0-79.3,22.4-148.2,55.3-183c14.5-15.3,31.1-24,48.7-24
		c57.4,0,104,92.7,104,207S447.7,618.3,390.3,618.3z"/>
	<path class="st0" d="M401.3,409.3c0,81.5-25.3,151.6-61.7,182.8c-31.8-35.4-53.3-103.1-53.3-180.8c0-79.3,22.4-148.2,55.3-183
		C376.9,260.3,401.3,329.3,401.3,409.3z"/>
	<path d="M494.3,411.3c0,114.3-46.6,207-104,207c-18.4,0-35.7-9.5-50.7-26.2c36.4-31.2,61.7-101.3,61.7-182.8
		c0-80-24.4-149-59.7-181c14.5-15.3,31.1-24,48.7-24C447.7,204.3,494.3,297,494.3,411.3z"/>
	<path class="st2" d="M184.9,745.6l0.6,11C91.8,697.8,26.3,563.1,26.3,406.3c0-175.7,82.3-323.7,194.3-368.3l-3.1,5.9l-36.4,16.9
		l2.7,11.1L153.2,96l1.9,19.2l-34.9,35.2l6.1,26.4l-29.9,35.6l8.8,26L80.3,284l9.2,30.3l-18.4,40.2l13.8,31.8l-18,50.9L87.6,463
		l-13.8,44l21.5,27.2L86.9,579l23.7,23.8l-2.3,38.7l27.2,18.8l-3.1,29.9l26.4,22.2l0.4,21.8L184.9,745.6z"/>
	<path class="st2" d="M336.6,799.9c-29.2-2.4-57.5-8.7-80-14.9c-7-1.3-13.8-3-20.6-5.1l-4.8-8l-26.4-8l-5.7-20.7l-23-10.3l-2.3-27.6
		l-25.3-16.1l2.3-35.6l-26.4-11.5l2.3-44.8l-23-23l13.8-42.5l-26.4-26.4l16.1-46l-21.8-27.6c0,0,18.4-42.5,18.4-47.1
		S88.9,356,88.9,356l20.7-46l-10.3-25.3l24.1-46l-6.9-31l23-27.6l-4.6-31l35.6-31l-3.4-20.7l26.4-21.8V62l39.1-20.7v-7.5
		c3.5-1.1,7-2.2,10.5-3.1c0.1,0,0.1,0,0.2,0c32.6-9.4,61.3-14,86.2-15.5l-0.2,0.4l-24.5,3.8l-10,18.8l-36.4,16.9l2.7,11.1
		l-30.6,24.1l1.9,19.1l-34.9,35.2l6.1,26.4l-29.9,35.6l8.8,26l-24.9,45.6l9.2,30.3l-18.4,40.2l13.8,31.8l-18,50.9l20.7,25.7
		l-13.8,44.1l21.5,27.2l-8.4,44.8l23.8,23.7l-2.3,38.7l27.2,18.8l-3.1,29.9l26.4,22.2l0.4,21.8l25.7,11.5l0.8,14.5l29.5,14.9
		c0,0,2.3,15.7,7.7,14.6c5.4-1.2,8.4-3.1,8.4-3.1l13.8,9.2L336.6,799.9z"/>
	<path class="st2" d="M403.3,791.3c12.2,0,24.1-2.2,35.7-6.3c-24.8,12.8-54.8,16.7-84.8,15.9l-18.3-17.6h-17.2l-10.3-17.2l-26.4-8
		l-5.7-20.7l-23-10.3l-2.3-27.6l-25.3-16.1l2.3-35.6l-26.4-11.5l2.3-44.8l-23-23l13.8-42.5l-26.4-26.4l16.1-46l-22-27.6
		c0,0,18.4-42.5,18.4-47.1s-14.9-28.7-14.9-28.7l20.7-46L176.2,279l24.1-46l-6.9-31l23-27.6l-4.6-31l35.6-31L244,91.7l26.4-21.8
		V56.1l39.1-20.7V20.5l33.3-3.5v-2.4c53.3-0.8,87.3,13,103.7,22c-13.9-6.1-28.4-9.3-43.2-9.3c-15.1,0-29.9,3.3-44,9.7
		c-64.7,29-117.1,120.3-139.8,239.8c-7.9,41.3-12.1,86-12.1,132.6s4.3,91.3,12.1,132.6c21.8,115.1,71.3,204,132.7,236.3
		C368.5,786.7,385.6,791.3,403.3,791.3z"/>
	<path d="M354.2,800.9c-4.6-0.1-9.1-0.3-13.7-0.7c-1.3-0.1-2.6-0.2-3.9-0.3l-14.5-10.1l-13.8-9.2c0,0-3.1,1.9-8.4,3.1
		c-5.4,1.1-7.7-14.6-7.7-14.6l-29.5-14.9l-0.8-14.5l-25.7-11.5l-0.4-21.8l-26.4-22.2l3.1-29.9l-27.2-18.8l2.3-38.7l-23.8-23.7
		l8.4-44.8l-21.5-27.2l13.8-44.1L144,431.4l18-50.9l-13.8-31.8l18.4-40.2l-9.2-30.3l24.9-45.6l-8.8-26l29.9-35.6l-6.1-26.4
		l34.9-35.2l-1.9-19.1L260.8,66l-2.7-11.1L294.5,38l10-18.8l24.5-3.8l0.2-0.4c4.6-0.3,9.2-0.4,13.5-0.5V17l-33.3,3.5v14.9
		l-39.1,20.7v13.8L244,91.7l3.4,20.7l-35.6,31l4.6,31l-23,27.6l6.9,31l-24.1,46l10.3,25.3l-20.7,46c0,0,14.9,24.1,14.9,28.7
		s-18.4,47.1-18.4,47.1l21.8,27.6l-16.1,46l26.4,26.4l-13.8,42.5l23,23l-2.3,44.8l26.4,11.5l-2.3,35.6l25.3,16.1l2.3,27.6l23,10.3
		l5.7,20.7l26.4,8l10.3,17.2h17.2L354.2,800.9z"/>
	<path d="M236,780c-17.5-5.4-34.5-13.2-50.5-23.3l-0.6-11l-25.7-11.5l-0.4-21.8l-26.4-22.2l3.1-29.9l-27.2-18.8l2.3-38.7L86.9,579
		l8.4-44.8L73.8,507l13.8-44l-20.7-25.7l18-50.9l-13.8-31.8l18.4-40.2l-9.2-30.3l24.9-45.6l-8.8-26l29.9-35.6l-6.1-26.4l34.9-35.2
		l-1.9-19.2L183.8,72l-2.7-11.1L217.5,44l3.1-5.9c3.9-1.5,7.8-3,11.8-4.3v7.5L193.3,62v13.8l-26.4,21.8l3.4,20.7l-35.6,31l4.6,31
		l-23,27.6l6.9,31l-24.1,46l10.3,25.3l-20.7,46c0,0,14.9,24.1,14.9,28.7S85.2,432,85.2,432l21.8,27.6l-16.1,46l26.4,26.4l-13.8,42.5
		l23,23l-2.3,44.8l26.4,11.5l-2.3,35.6l25.3,16.1l2.3,27.6l23,10.3l5.7,20.7l26.4,8L236,780z"/>
</g>
</svg>
